<ttFont>
          <CharString index="0">
            8 callsubr
            -29 -102 callgsubr
            52 vmoveto
            -91 callgsubr
            29 hlineto
            120 -64 callgsubr
            47 callgsubr
            -120 vhcurveto
            return
          </CharString>
          <CharString index="1">
            -20 -31 -17 -24 -25 31 -16 -49 callgsubr
            16 25 24 -32 17 -19 hvcurveto
            return
          </CharString>
          <CharString index="2">
            -81 callsubr
            257 vlineto
            30 -16 4 -11 12 callgsubr
            138 vhcurveto
            29 hlineto
            69 62 20 43 40 hvcurveto
            return
          </CharString>
          <CharString index="3">
            -16 callsubr
            151 -100 86 -132 -133 -99 -86 -151 vhcurveto
            -1 callgsubr
            602 vmoveto
            115 -40 callgsubr
            -178 vlineto
            -117 -65 -69 -115 -115 -65 69 117 vhcurveto
            178 vlineto
            116 65 70 115 vhcurveto
            return
          </CharString>
          <CharString index="4">
            314 hmoveto
            -107 callsubr
            return
          </CharString>
          <CharString index="5">
            90 10 58 53 24 -8 12 -18 -42 callgsubr
            -44 -11 -18 -44 hvcurveto
            -134 hlineto
            -121 -50 return
          </CharString>
          <CharString index="6">
            rmoveto
            -14 -12 -15 -10 -9 5 -7 8 -9 hvcurveto
            69 -68 rlineto
            -9 8 9 -4 8 hhcurveto
            15 10 14 10 10 -5 7 -7 8 hvcurveto
            -70 69 rlineto
            9 -8 -8 4 -8 hhcurveto
            return
          </CharString>
          <CharString index="7">
            rmoveto
            43 23 68 80 vhcurveto
            98 hlineto
            122 48 -9 -117 -20 10 -13 16 17 10 12 21 155 -86 23 -137 hvcurveto
            -76 -25 callsubr
            -38 -87 -75 -89 34 -48 95 -21 hvcurveto
            235 -52 rlineto
            23 -5 37 -38 -72 vvcurveto
            -40 -19 -73 -80 vhcurveto
            -102 hlineto
            -122 14 callgsubr
            138 hvcurveto
            83 hlineto
            133 37 89 75 74 -30 77 -97 21 hvcurveto
            -237 51 rlineto
            -32 7 -28 40 55 vvcurveto
            return
          </CharString>
          <CharString index="8">
            rmoveto
            -11 -14 -10 -16 -7 3 -8 6 -7 hvcurveto
            96 -115 rlineto
            -10 9 8 -5 8 hhcurveto
            10 15 9 16 9 -3 7 -6 7 hvcurveto
            -96 115 rlineto
            10 -9 -8 5 -8 hhcurveto
            return
          </CharString>
          <CharString index="9">
            10 rmoveto
            -18 18 -4 8 11 13 6 14 6 vhcurveto
            70 169 rlineto
            260 hlineto
            70 -169 rlineto
            -13 6 13 -7 11 hhcurveto
            8 18 4 18 5 -1 5 -2 4 hvcurveto
            -227 528 rlineto
            -52 hlineto
            -227 -528 rlineto
            -2 -4 -24 callsubr
            149 219 rmoveto
            106 250 108 -250 rlineto
            return
          </CharString>
          <CharString index="10">
            hlineto
            105 33 49 77 66 -26 70 -102 hvcurveto
            -227 hlineto
            -33 -26 26 52 51 24 18 35 hvcurveto
            246 hlineto
            40 15 -14 -48 -29 16 -4 10 21 5 17 18 53 -10 59 -90 hvcurveto
            -225 hlineto
            -108 -31 -47 -74 -72 32 -58 97 hvcurveto
            226 hlineto
            35 24 -34 -50 -43 -16 -31 -43 hvcurveto
            -248 92 callsubr
            44 22 -8 11 -18 -18 -8 -12 -24 -53 10 -58 90 hvcurveto
            return
          </CharString>
          <CharString index="11">
            321 52 rmoveto
            -105 callsubr
            -34 vlineto
            -20 6 -16 -37 callsubr
            292 vlineto
            68 5 56 23 66 vvcurveto
            28 -18 29 -26 22 vhcurveto
            -96 callgsubr
            -31 -21 -13 -49 -3 vhcurveto
            63 vlineto
            18 -5 16 -21 -19 -7 -12 -22 vhcurveto
            -204 vlineto
            -115 -57 -63 -114 vhcurveto
            return
          </CharString>
          <CharString index="12">
            rmoveto
            20 -33 5 -8 -10 -10 -6 -17 -5 vhcurveto
            -24 -87 rlineto
            -2 -8 -1 -5 -3 vvcurveto
            -20 12 -5 10 vhcurveto
            return
          </CharString>
          <CharString index="13">
            422 hlineto
            -222 164 rmoveto
            118 50 -11 -101 2 hvcurveto
            -370 hlineto
            101 2 50 11 119 hhcurveto
            return
          </CharString>
          <CharString index="14">
            rmoveto
            585 vlineto
            29 -87 callsubr
            16 16 vhcurveto
            return
          </CharString>
          <CharString index="15">
            64 callsubr
            34 vlineto
            20 -6 16 -22 -19 -5 -15 -20 vhcurveto
            -406 vlineto
            -18 -21 callgsubr
            19 7 12 22 vhcurveto
            204 vlineto
            115 57 63 return
          </CharString>
          <CharString index="16">
            -100 callgsubr
            107 vlineto
            -67 callsubr
            vhcurveto
            134 hlineto
            40 15 -14 -48 -29 16 -4 10 21 5 17 18 53 -10 59 -90 hvcurveto
            -25 callgsubr
            return
          </CharString>
          <CharString index="17">
            22 5 16 16 hvcurveto
            -69 callgsubr
            -420 vlineto
            -27 -29 callgsubr
            vhcurveto
            return
          </CharString>
          <CharString index="18">
            52 vstem
            436 hmoveto
            -72 callsubr
            276 vlineto
            117 50 11 115 vhcurveto
            140 hlineto
            40 15 -14 -48 -29 16 -4 10 21 5 17 18 54 93 callgsubr
            -147 hlineto
            -133 -84 -26 -154 hvcurveto
            -276 vlineto
            -154 84 -26 139 vhcurveto
            return
          </CharString>
          <CharString index="19">
            -91 callsubr
            -79 callsubr
            139 vhcurveto
            return
          </CharString>
          <CharString index="20">
            -16 4 -10 -42 callgsubr
            vhcurveto
            -585 vlineto
            -27 52 callsubr
            return
          </CharString>
          <CharString index="21">
            7 7 3 5 4 hvcurveto
            173 258 rlineto
            -517 vlineto
            -20 5 -15 20 19 8 12 22 90 callsubr
            -20 -12 -8 -6 -13 -9 vhcurveto
            -189 -278 -188 278 rlineto
            14 -9 -9 5 -12 hhcurveto
            -19 -5 -15 -20 hvcurveto
            -35 callsubr
            12 23 100 callsubr
            173 -258 rlineto
            -8 6 8 0 3 hhcurveto
            endchar
          </CharString>
          <CharString index="22">
            rmoveto
            -51 vlineto
            80 71 21 74 28 -18 29 -26 22 hvcurveto
            -67 callgsubr
            -29 -12 -68 vhcurveto
            endchar
          </CharString>
          <CharString index="23">
            27 rmoveto
            290 360 -290 vlineto
            -30 16 -4 11 94 callgsubr
            vhcurveto
            581 vlineto
            19 -5 16 -22 -20 -5 -17 -18 vhcurveto
            -239 -360 239 vlineto
            19 -6 16 -22 -19 -5 -15 -20 vhcurveto
            -35 callsubr
            12 22 vhcurveto
            return
          </CharString>
          <CharString index="24">
            hstem
            497 643 rmoveto
            -10 -8 -9 -9 -7 hvcurveto
            -193 -267 -192 267 rlineto
            10 -7 -8 8 -11 hhcurveto
            -5 -20 -5 -21 -3 0 -9 8 -9 hvcurveto
            203 -279 -203 -278 rlineto
            -6 -8 -2 -8 -6 vvcurveto
            -14 14 -10 11 10 9 7 9 7 vhcurveto
            192 268 193 -268 rlineto
            -9 7 8 -7 10 hhcurveto
            11 15 8 16 6 -2 8 -6 8 hvcurveto
            -203 278 203 279 rlineto
            8 9 0 9 3 vvcurveto
            21 -19 5 -7 vhcurveto
            endchar
          </CharString>
          <CharString index="25">
            -95 callsubr
            hintmask 10001000
            -86 callgsubr
            return
          </CharString>
          <CharString index="26">
            -29 -76 callgsubr
            return
          </CharString>
          <CharString index="27">
            rmoveto
            232 65 callgsubr
            104 hlineto
            -43 callgsubr
            -104 vlineto
            -20 -1 -11 -7 -16 vvcurveto
            -20 13 -6 18 -1 vhcurveto
            -234 vlineto
            -149 84 -27 129 -17 callsubr
            vhcurveto
            return
          </CharString>
          <CharString index="28">
            -150 84 -26 return
          </CharString>
          <CharString index="29">
            139 74 26 150 hvcurveto
            258 vlineto
            18 -5 16 -21 -21 -5 -16 -18 vhcurveto
            -257 vlineto
            -114 -40 -11 -121 vhcurveto
            -28 hlineto
            -121 -50 11 114 hvcurveto
            257 vlineto
            23 -8 11 -19 12 callgsubr
            139 vhcurveto
            endchar
          </CharString>
          <CharString index="30">
            -56 callgsubr
            109 vlineto
            return
          </CharString>
          <CharString index="31">
            -105 callgsubr
            -189 -179 rmoveto
            -3 -3 -3 -9 -6 vvcurveto
            -7 2 -16 21 14 10 11 9 9 vhcurveto
            85 81 86 -81 rlineto
            -10 10 9 -10 14 hhcurveto
            21 2 16 7 6 -3 9 -3 3 hvcurveto
            -107 117 101 callgsubr
          </CharString>
          <CharString index="32">
            vlineto
            -74 callgsubr
            return
          </CharString>
          <CharString index="33">
            46 hmoveto
            428 hlineto
            6 callsubr
            -364 hlineto
            399 541 rlineto
            53 -428 vlineto
            -24 -12 -8 -18 -21 14 -5 22 hvcurveto
            366 hlineto
            -401 -543 rlineto
            return
          </CharString>
          <CharString index="34">
            rmoveto
            27 -52 -43 vlineto
            -39 -8 -10 -38 vhcurveto
            -102 hlineto
            -38 -9 10 39 hvcurveto
            43 -52 -27 vlineto
            -82 18 -35 73 vhcurveto
            117 hlineto
            73 18 34 83 hvcurveto
            return
          </CharString>
          <CharString index="35">
            -102 callsubr
            11 117 hvcurveto
            return
          </CharString>
          <CharString index="36">
            vvcurveto
            -18 -10 -8 -32 vhcurveto
            -26 -25 18 -15 hhcurveto
            -8 -7 -7 -11 -40 57 -10 22 52 44 31 50 return
          </CharString>
          <CharString index="37">
            -84 -26 -150 hvcurveto
            return
          </CharString>
          <CharString index="38">
            -42 -11 -17 -10 callgsubr
            36 callsubr
            return
          </CharString>
          <CharString index="39">
            20 -5 52 88 52 56 52 119 52 hstem
            64 -38 callgsubr
            388 187 rmoveto
            -84 -77 -115 97 callgsubr
            79 vlineto
            42 11 16 44 vhcurveto
            347 94 hlineto
            -7 callsubr
            -70 -30 -31 -81 -26 10 -9 15 22 5 14 21 79 callsubr
            hvcurveto
            30 callgsubr
            -59 -302 vlineto
            -80 -20 -35 -92 hvcurveto
            -44 21 callsubr
            255 hlineto
            70 29 35 63 75 -54 19 -76 hvcurveto
            -111 -140 rmoveto
            41 33 43 47 35 hhcurveto
            58 20 -14 -26 -29 -10 -19 -45 hvcurveto
            endchar
          </CharString>
          <CharString index="40">
            -68 callgsubr
            121 return
          </CharString>
          <CharString index="41">
            -182 169 rlineto
            6 -6 -8 2 -9 hhcurveto
            -12 -8 -8 -12 -7 1 -11 13 -14 hvcurveto
            155 -150 -155 -151 rlineto
            -13 -14 -1 -12 -6 vvcurveto
            -12 8 -8 12 9 8 1 6 6 vhcurveto
            182 169 rlineto
            10 8 8 8 11 vvcurveto
            10 -9 7 -9 8 vhcurveto
            return
          </CharString>
          <CharString index="42">
            rmoveto
            -9 -8 -9 -7 -10 vvcurveto
            -11 8 -8 10 -8 vhcurveto
            182 -169 rlineto
            -6 6 8 -1 9 hhcurveto
            12 8 8 12 6 -1 12 -13 14 hvcurveto
            -155 151 155 150 rlineto
            13 14 1 11 7 vvcurveto
            12 -8 8 -12 -9 -8 -2 -6 -6 vhcurveto
            return
          </CharString>
          <CharString index="43">
            hlineto
            -29 -4 -16 -10 -10 4 -16 29 hvcurveto
            return
          </CharString>
          <CharString index="44">
            536 -87 5 callgsubr
            -23 vhcurveto
            -35 vlineto
            43 -40 -62 20 -69 hhcurveto
            -29 hlineto
            -138 16 callgsubr
            -79 callsubr
            138 vhcurveto
            200 -103 hlineto
            -39 -7 -11 -39 vhcurveto
            -269 hlineto
            -40 -15 14 48 22 -8 11 -18 -54 callsubr
            hvcurveto
            283 hlineto
            73 18 35 83 hvcurveto
            -52 139 rmoveto
            -200 hlineto
            -120 -88 callgsubr
            120 vhcurveto
            29 hlineto
            114 57 -62 -114 hvcurveto
            return
          </CharString>
          <CharString index="45">
            hstem
            472 12 rmoveto
            8 -4 7 -6 9 vhcurveto
            -171 194 171 195 rlineto
            9 11 1 7 5 vvcurveto
            14 -14 10 -11 -10 -7 -5 -7 -7 vhcurveto
            -166 -193 -167 193 rlineto
            7 -8 -8 5 -9 hhcurveto
            -11 -14 -10 -14 -5 1 -7 9 -11 hvcurveto
            171 -195 -171 -194 rlineto
            -1 -2 -9 -12 -10 vvcurveto
            -14 14 -9 11 9 8 5 7 8 vhcurveto
            167 193 166 -193 rlineto
            -7 7 8 -5 9 hhcurveto
            11 14 9 14 hvcurveto
            endchar
          </CharString>
          <CharString index="46">
            -7 -54 callgsubr
            return
          </CharString>
          <CharString index="47">
            59 0 52 246 53 233 52 hstem
            84 15 callgsubr
            496 180 rmoveto
            -117 40 callsubr
            -190 246 104 hlineto
            21 13 10 16 17 -12 10 -22 hvcurveto
            -104 233 196 36 callgsubr
            -117 hvcurveto
            52 hmoveto
            56 callsubr
            -249 vlineto
            -27 -5 -15 -10 -17 9 -11 23 hvcurveto
            -262 54 callgsubr
            endchar
          </CharString>
          <CharString index="48">
            251 44 rmoveto
            -118 14 callgsubr
            134 134 84 25 152 hvcurveto
            441 vlineto
            29 -16 4 -10 -10 -16 -4 -28 vhcurveto
            -441 -36 callsubr
            -11 -116 vhcurveto
            return
          </CharString>
          <CharString index="49">
            52 vstem
            317 212 rmoveto
            19 17 5 19 20 -13 8 -23 hvcurveto
            -86 hlineto
            -83 -36 17 66 41 39 21 84 hvcurveto
            123 hlineto
            25 100 -6 -71 -25 11 -10 16 10 15 5 30 97 -84 32 -86 hvcurveto
            -137 hlineto
            -86 -81 -32 -94 -62 29 -23 30 -13 hvcurveto
            -30 -19 -29 -30 -62 vvcurveto
            -94 81 -32 86 vhcurveto
            137 hlineto
            86 84 32 97 31 -15 4 -10 -16 -11 -10 -25 -71 -101 -6 -24 hvcurveto
            -123 hlineto
            -65 -57 12 50 71 43 27 75 hvcurveto
            return
          </CharString>
          <CharString index="50">
            46 callgsubr
            17 41 hvcurveto
            return
          </CharString>
          <CharString index="51">
            -84 26 -138 vhcurveto
            return
          </CharString>
          <CharString index="52">
            351 hlineto
            16 17 5 20 16 -9 11 -24 hvcurveto
            -323 559 26 callgsubr
            -576 62 callgsubr
            return
          </CharString>
          <CharString index="53">
            37 callgsubr
            -53 10 -59 90 return
          </CharString>
          <CharString index="54">
            26 9 -57 callsubr
            324 vlineto
            22 -7 12 -19 -21 -5 -16 -18 vhcurveto
            -308 vlineto
            -90 20 -36 80 vhcurveto
            return
          </CharString>
          <CharString index="55">
            52 vstem
            160 hmoveto
            -97 callgsubr
            return
          </CharString>
          <CharString index="56">
            132 -12 callgsubr
            return
          </CharString>
          <CharString index="57">
            vvcurveto
            -15 15 -10 10 return
          </CharString>
          <CharString index="58">
            rmoveto
            75 116 -44 -52 -100 47 -16 61 50 callsubr
            17 41 hvcurveto
            20 vlineto
            48 -69 43 -44 15 vhcurveto
            45 15 68 45 50 vvcurveto
            20 68 callgsubr
            -61 -47 -16 -100 -52 -115 -44 -76 vhcurveto
            -64 179 26 callgsubr
            -412 vlineto
            -26 15 -20 callgsubr
            181 vlineto
            endchar
          </CharString>
          <CharString index="59">
            52 hintmask 00000000
            return
          </CharString>
          <CharString index="60">
            rmoveto
            44 hlineto
            19 7 9 13 14 -9 7 -17 hvcurveto
            -44 172 -54 hlineto
            -122 -163 rlineto
            -52 132 -77 vlineto
            -22 13 -5 9 14 8 9 18 vhcurveto
            -44 120 rmoveto
            -88 hlineto
            88 118 rlineto
            return
          </CharString>
          <CharString index="61">
            52 357 52 return
          </CharString>
          <CharString index="62">
            622 rmoveto
            -14 5 -4 5 -5 vhcurveto
            243 -276 -243 -275 rlineto
            -9 -11 -1 -3 -9 vvcurveto
            -15 12 -10 13 vhcurveto
            446 -2 callsubr
            -389 hlineto
            224 249 rlineto
            6 7 4 6 9 vvcurveto
            9 -7 8 -4 5 vhcurveto
            -223 250 rlineto
            389 -2 callsubr
            -440 hlineto
            -26 -5 -15 -10 hvcurveto
            endchar
          </CharString>
          <CharString index="63">
            37 0 -34 callgsubr
            return
          </CharString>
          <CharString index="64">
            0 -36 callgsubr
            return
          </CharString>
          <CharString index="65">
            rmoveto
            -361 -64 callsubr
            154 return
          </CharString>
          <CharString index="66">
            rmoveto
            7 -4 9 -7 8 vhcurveto
            -239 222 166 152 rlineto
            5 5 7 9 9 vvcurveto
            16 -14 10 -11 -5 -8 -2 -10 -11 vhcurveto
            -194 -185 rlineto
            341 -75 callsubr
            -586 vlineto
            -26 52 callsubr
            17 15 vhcurveto
            181 vlineto
            29 29 237 -229 rlineto
            -5 6 9 -7 10 hhcurveto
            14 10 14 11 hvcurveto
            endchar
          </CharString>
          <CharString index="67">
            152 -30 callsubr
            return
          </CharString>
          <CharString index="68">
            rmoveto
            -53 hlineto
            -349 -398 rlineto
            369 vlineto
            20 -5 16 -22 -20 -5 -17 -18 vhcurveto
            -433 56 vlineto
            346 394 rlineto
            -365 vlineto
            -20 5 -16 22 20 5 17 18 vhcurveto
            return
          </CharString>
          <CharString index="69">
            rmoveto
            29 hlineto
            128 84 26 154 hvcurveto
            111 vlineto
            154 -84 26 -128 vhcurveto
            -29 hlineto
            -129 -84 -26 -154 hvcurveto
            -111 vlineto
            -154 84 -26 129 vhcurveto
            52 vmoveto
            -111 -50 11 117 hvcurveto
            111 vlineto
            117 50 11 111 vhcurveto
            29 hlineto
            110 50 -11 -117 hvcurveto
            -111 vlineto
            -117 -50 -11 -110 vhcurveto
            endchar
          </CharString>
          <CharString index="70">
            22 19 1 callsubr
            return
          </CharString>
          <CharString index="71">
            vlineto
            -115 -50 return
          </CharString>
          <CharString index="72">
            -581 vlineto
            -18 -21 callgsubr
            19 7 return
          </CharString>
          <CharString index="73">
            115 50 return
          </CharString>
          <CharString index="74">
            rmoveto
            19 17 5 19 20 -13 8 -23 -127 -84 -23 -152 -2 hvcurveto
            -20 -1 -11 -7 -16 vvcurveto
            -20 14 -6 17 -1 vhcurveto
            -382 14 callsubr
            22 6 15 20 vhcurveto
            381 65 callgsubr
            hlineto
            113 1 50 10 110 hhcurveto
            endchar
          </CharString>
          <CharString index="75">
            21 609 20 return
          </CharString>
          <CharString index="76">
            56 -16 56 hstemhm
            return
          </CharString>
          <CharString index="77">
            vlineto
            16 17 5 20 16 -9 11 -24 hvcurveto
            return
          </CharString>
          <CharString index="78">
            93 -72 45 -212 -13 vvcurveto
            -15 8 -17 17 16 11 13 19 13 -52 223 -73 71 vhcurveto
            return
          </CharString>
          <CharString index="79">
            92 -20 37 -80 vhcurveto
            return
          </CharString>
          <CharString index="80">
            58 -205 52 153 -15 callsubr
            return
          </CharString>
          <CharString index="81">
            -91 20 -38 9 callsubr
            38 91 hvcurveto
            return
          </CharString>
          <CharString index="82">
            hlineto
            -139 return
          </CharString>
          <CharString index="83">
            -1 -5 -5 vvcurveto
            return
          </CharString>
          <CharString index="84">
            -82 callgsubr
            hintmask 01001100
            -98 callgsubr
            hintmask 01010100
            -75 callgsubr
          </CharString>
          <CharString index="85">
            -9 52 550 52 return
          </CharString>
          <CharString index="86">
            25 callgsubr
            -123 hmoveto
            23 callsubr
          </CharString>
          <CharString index="87">
            20 14 10 15 return
          </CharString>
          <CharString index="88">
            rmoveto
            -208 160 208 hlineto
            109 5 -48 -32 -25 -4 -55 -110 hvcurveto
            -260 -52 rmoveto
            267 hlineto
            74 85 27 105 106 -86 26 -73 hvcurveto
            -215 169 hlineto
            20 -5 15 -22 -20 -5 -17 -18 vhcurveto
            endchar
          </CharString>
          <CharString index="89">
            -94 callsubr
            endchar
          </CharString>
          <CharString index="90">
            20 15 6 22 19 -15 5 -20 -111 -50 10 115 return
          </CharString>
          <CharString index="91">
            39 callgsubr
            180 vlineto
            return
          </CharString>
          <CharString index="92">
            52 396 20 return
          </CharString>
          <CharString index="93">
            -124 -10 callsubr
            return
          </CharString>
          <CharString index="94">
            52 hintmask 0000000000000000
            return
          </CharString>
          <CharString index="95">
            -20 -5 -15 return
          </CharString>
          <CharString index="96">
            vmoveto
            -16 callsubr
            return
          </CharString>
          <CharString index="97">
            145 -107 callgsubr
            return
          </CharString>
          <CharString index="98">
            -18 227 rmoveto
            -17 -7 -13 -12 -4 hvcurveto
            -44 -157 rlineto
            -1 -3 -1 -5 -4 vvcurveto
            -22 13 -14 15 12 9 14 21 4 vhcurveto
            45 157 rlineto
            1 4 0 5 2 vvcurveto
            22 -14 5 -11 vhcurveto
            return
          </CharString>
          <CharString index="99">
            -31 -14 -41 -38 hhcurveto
            hintmask 01000000
            -32 -80 40 -48 hhcurveto
            -34 -72 -46 -27 -17 20 -7 12 hvcurveto
            31 15 41 38 hhcurveto
            hintmask 10000000
            32 79 -40 48 hhcurveto
            35 73 47 27 16 -20 7 -14 hvcurveto
            endchar
          </CharString>
          <CharString index="100">
            -28 callsubr
            -254 hlineto
            return
          </CharString>
          <CharString index="101">
            vlineto
            10 callsubr
            return
          </CharString>
          <CharString index="102">
            0 -15 callsubr
            return
          </CharString>
          <CharString index="103">
            -16 4 -11 return
          </CharString>
          <CharString index="104">
            409 3 callgsubr
            return
          </CharString>
          <CharString index="105">
            hlineto
            28 6 14 10 11 -5 17 -29 hvcurveto
            return
          </CharString>
          <CharString index="106">
            33 -22 callsubr
            return
          </CharString>
          <CharString index="107">
            0 -46 callsubr
            hstem
            return
          </CharString>
          <CharString index="108">
            5 15 20 vhcurveto
            return
          </CharString>
          <CharString index="109">
            52 280 52 return
          </CharString>
          <CharString index="110">
            -357 -64 callsubr
            152 -557 hlineto
            -18 -21 callgsubr
            20 7 12 23 vhcurveto
            206 vlineto
            117 59 63 107 112 50 -11 return
          </CharString>
          <CharString index="111">
            -70 rmoveto
            -20 -31 -16 -25 -24 31 -17 -49 callgsubr
            17 24 25 -32 16 -19 hvcurveto
            return
          </CharString>
          <CharString index="112">
            -11 -17 -44 -31 -5 -15 -10 -20 13 -7 23 return
          </CharString>
          <CharString index="113">
            7 callsubr
            hvcurveto
            return
          </CharString>
          <CharString index="114">
            26 9 -39 callgsubr
            return
          </CharString>
          <CharString index="115">
            138 -77 callsubr
            150 -56 callsubr
            return
          </CharString>
          <CharString index="116">
            80 vhcurveto
            33 callgsubr
            return
          </CharString>
          <CharString index="117">
            -67 callsubr
            vhcurveto
            return
          </CharString>
          <CharString index="118">
            -11 59 50 callsubr
            return
          </CharString>
          <CharString index="119">
            173 -72 131 hstemhm
            return
          </CharString>
          <CharString index="120">
            59 -9 52 580 20 return
          </CharString>
          <CharString index="121">
            vlineto
            -20 5 -15 19 return
          </CharString>
          <CharString index="122">
            -94 callsubr
            hintmask 0001001000000000
            return
          </CharString>
          <CharString index="123">
            248 46 callsubr
            return
          </CharString>
          <CharString index="124">
            10 16 4 29 hvcurveto
            149 vlineto
            93 callsubr
            68 callsubr
            endchar
          </CharString>
          <CharString index="125">
            -133 vhcurveto
            -180 hlineto
            -19 -5 -16 -20 hvcurveto
            return
          </CharString>
          <CharString index="126">
            -9 29 callsubr
            return
          </CharString>
          <CharString index="127">
            hstem
            75 24 callgsubr
            return
          </CharString>
          <CharString index="128">
            vlineto
            22 callsubr
            return
          </CharString>
          <CharString index="129">
            -92 37 callsubr
            return
          </CharString>
          <CharString index="130">
            -61 callgsubr
            endchar
          </CharString>
          <CharString index="131">
            -7 21 395 52 return
          </CharString>
          <CharString index="132">
            rmoveto
            -90 -10 -58 -53 -24 8 -12 18 10 16 4 29 44 11 18 44 hvcurveto
            134 hlineto
            121 50 return
          </CharString>
          <CharString index="133">
            52 52 12 callsubr
            62 52 return
          </CharString>
          <CharString index="134">
            vlineto
            -27 16 -5 10 23 5 16 16 vhcurveto
            return
          </CharString>
          <CharString index="135">
            154 33 -82 callgsubr
            return
          </CharString>
          <CharString index="136">
            rmoveto
            39 callgsubr
            return
          </CharString>
          <CharString index="137">
            vlineto
            -151 99 -86 133 vhcurveto
            return
          </CharString>
          <CharString index="138">
            283 -60 -32 callgsubr
            return
          </CharString>
          <CharString index="139">
            52 vlineto
            41 -20 16 -31 vhcurveto
            return
          </CharString>
          <CharString index="140">
            -361 453 20 return
          </CharString>
          <CharString index="141">
            51 82 52 164 41 46 41 75 52 hstem
            79 52 71 41 130 41 67 52 vstem
            return
          </CharString>
          <CharString index="142">
            45 0 52 194 52 286 52 return
          </CharString>
          <CharString index="143">
            -44 -11 17 42 hvcurveto
            return
          </CharString>
          <CharString index="144">
            20 -37 80 vhcurveto
            return
          </CharString>
          <CharString index="145">
            117 5 -48 -32 -25 -4 -55 -118 hvcurveto
            return
          </CharString>
          <CharString index="146">
            hstem
            75 -38 callgsubr
            return
          </CharString>
          <CharString index="147">
            -50 -11 -120 vhcurveto
            return
          </CharString>
          <CharString index="148">
            -80 -20 -37 -92 return
          </CharString>
          <CharString index="149">
            -57 -26 callgsubr
            32 callsubr
            return
          </CharString>
          <CharString index="150">
            81 32 94 62 -29 30 -30 19 hvcurveto
            30 13 29 23 62 vvcurveto
            94 -81 32 return
          </CharString>
          <CharString index="151">
            342 hlineto
            -28 callsubr
            return
          </CharString>
          <CharString index="152">
            96 0 52 268 51 77 20 return
          </CharString>
          <CharString index="153">
            vlineto
            52 callgsubr
            return
          </CharString>
          <CharString index="154">
            38 -8 52 548 52 return
          </CharString>
          <CharString index="155">
            -143 82 61 -46 callsubr
            hstem
            62 52 135 102 133 52 return
          </CharString>
          <CharString index="156">
            -49 21 47 -29 48 hhcurveto
            29 5 17 11 15 -13 10 -21 -28 -32 22 return
          </CharString>
          <CharString index="157">
            -5 callgsubr
            -44 -11 return
          </CharString>
          <CharString index="158">
            hlineto
            21 13 10 15 11 -5 17 -29 hvcurveto
            return
          </CharString>
          <CharString index="159">
            -29 callgsubr
            22 5 return
          </CharString>
          <CharString index="160">
            rcurveline
            -20 -6 -27 -45 -38 hhcurveto
            -18 -18 -5 -21 -18 13 -8 23 58 return
          </CharString>
          <CharString index="161">
            -61 callsubr
            52 12 callsubr
            return
          </CharString>
          <CharString index="162">
            hlineto
            -27 callgsubr
            hvcurveto
            endchar
          </CharString>
          <CharString index="163">
            154 62 callsubr
            -224 hlineto
            -19 -5 -16 -20 hvcurveto
            return
          </CharString>
          <CharString index="164">
            26 -205 52 58 52 38 52 90 52 81 52 92 52 hstemhm
            return
          </CharString>
          <CharString index="165">
            vlineto
            152 -84 26 -130 -64 -61 -20 -43 -41 vhcurveto
            181 return
          </CharString>
          <CharString index="166">
            73 74 callgsubr
            return
          </CharString>
          <CharString index="167">
            231 0 21 432 20 return
          </CharString>
          <CharString index="168">
            rmoveto
            -14 8 -13 23 vhcurveto
            return
          </CharString>
          <CharString index="169">
            -84 26 -132 vhcurveto
            return
          </CharString>
          <CharString index="170">
            14 79 callgsubr
            return
          </CharString>
          <CharString index="171">
            -20 -43 -40 hvcurveto
            return
          </CharString>
          <CharString index="172">
            rmoveto
            -62 46 62 hlineto
            50 18 -3 -21 -19 -18 -3 -50 hvcurveto
            return
          </CharString>
          <CharString index="173">
            44 178 hstem
            return
          </CharString>
          <CharString index="174">
            9 199 52 return
          </CharString>
          <CharString index="175">
            -42 callgsubr
            vhcurveto
            -149 vlineto
            -16 5 -17 20 vhcurveto
            return
          </CharString>
          <CharString index="176">
            80 20 38 91 hvcurveto
            213 vlineto
            91 -20 38 -80 vhcurveto
            return
          </CharString>
          <CharString index="177">
            -7 21 308 52 205 57 return
          </CharString>
          <CharString index="178">
            0 52 218 52 178 52 return
          </CharString>
          <CharString index="179">
            104 -9 52 453 51 76 20 return
          </CharString>
          <CharString index="180">
            68 0 52 260 51 46 52 return
          </CharString>
          <CharString index="181">
            -20 20 callsubr
            return
          </CharString>
          <CharString index="182">
            -47 52 626 52 return
          </CharString>
          <CharString index="183">
            52 416 -20 hstem
            return
          </CharString>
          <CharString index="184">
            5 16 15 vhcurveto
            return
          </CharString>
          <CharString index="185">
            44 11 -18 -42 return
          </CharString>
          <CharString index="186">
            42 11 18 44 return
          </CharString>
          <CharString index="187">
            -148 hlineto
            -20 -16 -5 -19 -22 16 -6 20 hvcurveto
            return
          </CharString>
          <CharString index="188">
            524 vlineto
            31 -4 callsubr
            -21 -4 -15 -20 vhcurveto
            return
          </CharString>
          <CharString index="189">
            83 callgsubr
            -12 178 hstemhm
            84 52 return
          </CharString>
          <CharString index="190">
            -175 50 125 52 return
          </CharString>
          <CharString index="191">
            hstem
            84 52 vstem
            136 return
          </CharString>
          <CharString index="192">
            -349 505 178 hstem
            29 155 vstem
            return
          </CharString>
          <CharString index="193">
            52 182 74 callsubr
            return
          </CharString>
          <CharString index="194">
            13 16 16 14 -12 -18 -16 -13 -14 -17 -16 return
          </CharString>
          <CharString index="195">
            50 0 -46 callsubr
            51 return
          </CharString>
          <CharString index="196">
            52 238 164 -52 52 return
          </CharString>
          <CharString index="197">
            vhcurveto
            581 vlineto
            20 -5 15 return
          </CharString>
          <CharString index="198">
            -9 52 466 52 return
          </CharString>
          <CharString index="199">
            hlineto
            -44 -11 18 return
          </CharString>
          <CharString index="200">
            16 -5 17 -20 return
          </CharString>
          <CharString index="201">
            vlineto
            -27 callgsubr
            -14 8 -13 23 hvcurveto
            return
          </CharString>
          <CharString index="202">
            hlineto
            -22 -10 -11 -15 -14 10 -13 22 hvcurveto
            return
          </CharString>
          <CharString index="203">
            84 -26 139 vhcurveto
            -11 callgsubr
            90 10 return
          </CharString>
          <CharString index="204">
            29 0 52 255 52 225 52 hstem
            return
          </CharString>
          <CharString index="205">
            hintmask 00000000
            hintmask 10100000
            return
          </CharString>
          <CharString index="206">
            -15 -116 hvcurveto
            endchar
          </CharString>
          <CharString index="207">
            vhcurveto
            517 vlineto
            return
          </CharString>
        <CharString name=".notdef">
          -23 0 71 535 72 hstem
          85 71 226 71 vstem
          156 546 rmoveto
          42 12 18 42 vhcurveto
          118 hlineto
          42 12 -18 -42 hvcurveto
          -416 vlineto
          -42 -12 -17 -42 vhcurveto
          -118 hlineto
          -42 -12 17 42 hvcurveto
          -71 -130 rmoveto
          368 678 -368 hlineto
          endchar
        </CharString>
        <CharString name=".null">
          endchar
        </CharString>
        <CharString name="A">
          67 callsubr
          hstem
          24 53 416 53 vstem
          316 636 rmoveto
          -62 hlineto
          -227 -611 rlineto
          -2 -6 -24 callsubr
          -20 19 -5 7 12 10 11 12 5 vhcurveto
          71 192 rlineto
          274 hlineto
          71 -192 rlineto
          -14 6 9 -9 12 hhcurveto
          7 19 5 20 5 -1 5 -2 6 hvcurveto
          -259 535 rmoveto
          118 -309 rlineto
          -234 hlineto
          endchar
        </CharString>
        <CharString name="A.sc">
          1 177 52 hstem
          25 56 400 56 vstem
          25 -98 callsubr
          endchar
        </CharString>
        <CharString name="AE">
          306 0 52 147 52 81 52 205 52 hstem
          400 52 vstem
          452 332 rmoveto
          214 hlineto
          22 14 5 19 22 -16 6 -20 hvcurveto
          -214 205 333 hlineto
          22 12 5 19 19 -11 9 -23 hvcurveto
          -361 hlineto
          -9 -6 -4 -6 -4 hvcurveto
          -388 -606 rlineto
          -6 -10 -2 -8 -5 vvcurveto
          -14 14 -4 6 12 13 11 12 8 vhcurveto
          123 192 rlineto
          215 -163 hlineto
          -21 -4 callgsubr
          361 hlineto
          22 12 5 19 19 -11 9 -23 hvcurveto
          -333 hlineto
          -52 199 rmoveto
          -181 hlineto
          181 282 rlineto
          endchar
        </CharString>
        <CharString name="Aacute">
          67 callsubr
          437 131 hstem
          24 53 164 132 120 53 vstem
          316 636 rmoveto
          -62 hlineto
          -227 -611 rlineto
          -2 -6 -24 callsubr
          -20 19 -5 7 12 10 11 12 5 vhcurveto
          71 192 rlineto
          274 hlineto
          71 -192 rlineto
          -14 6 9 -9 12 hhcurveto
          7 19 5 20 5 -1 5 -2 6 hvcurveto
          -259 535 rmoveto
          118 -309 rlineto
          -234 hlineto
          193 519 -103 callgsubr
          endchar
        </CharString>
        <CharString name="Abreve">
          67 callsubr
          437 54 hstem
          24 53 87 67 callgsubr
          89 53 vstem
          316 636 rmoveto
          -62 hlineto
          -227 -611 rlineto
          -2 -6 -24 callsubr
          -20 19 -5 7 12 10 11 12 5 vhcurveto
          71 192 rlineto
          274 hlineto
          71 -192 rlineto
          -14 6 9 -9 12 hhcurveto
          7 19 5 20 5 -1 5 -2 6 hvcurveto
          -259 535 rmoveto
          118 -309 rlineto
          -234 hlineto
          116 437 -95 callgsubr
          endchar
        </CharString>
        <CharString name="Acircumflex">
          67 callsubr
          395 173 hstem
          24 53 67 283 66 53 vstem
          316 636 rmoveto
          -62 hlineto
          -227 -611 rlineto
          -2 -6 -24 callsubr
          -20 19 -5 7 12 10 11 12 5 vhcurveto
          71 192 rlineto
          274 hlineto
          71 -192 rlineto
          -14 6 9 -9 12 hhcurveto
          7 19 5 20 5 -1 5 -2 6 hvcurveto
          -259 535 rmoveto
          118 -309 rlineto
          -234 hlineto
          -18 436 -107 callgsubr
          endchar
        </CharString>
        <CharString name="Acyrillic">
          67 callsubr
          hstem
          24 53 416 53 vstem
          316 636 rmoveto
          -62 hlineto
          -227 -611 rlineto
          -2 -6 -24 callsubr
          -20 19 -5 7 12 10 11 12 5 vhcurveto
          71 192 rlineto
          274 hlineto
          71 -192 rlineto
          -14 6 9 -9 12 hhcurveto
          7 19 5 20 5 -1 5 -2 6 hvcurveto
          -259 535 rmoveto
          118 -309 rlineto
          -234 hlineto
          endchar
        </CharString>
        <CharString name="Adieresis">
          67 callsubr
          451 82 hstem
          24 53 84 102 44 102 84 53 vstem
          316 636 rmoveto
          -62 hlineto
          -227 -611 rlineto
          -2 -6 -24 callsubr
          -20 19 -5 7 12 10 11 12 5 vhcurveto
          71 192 rlineto
          274 hlineto
          71 -192 rlineto
          -14 6 9 -9 12 hhcurveto
          7 19 5 20 5 -1 5 -2 6 hvcurveto
          -259 535 rmoveto
          118 -309 rlineto
          -234 hlineto
          44 533 rmoveto
          -106 callsubr
          146 hmoveto
          6 callgsubr
        </CharString>
        <CharString name="Agrave">
          67 callsubr
          437 131 hstem
          24 53 100 132 184 53 vstem
          316 636 rmoveto
          -62 hlineto
          -227 -611 rlineto
          -2 -6 -24 callsubr
          -20 19 -5 7 12 10 11 12 5 vhcurveto
          71 192 rlineto
          274 hlineto
          71 -192 rlineto
          -14 6 9 -9 12 hhcurveto
          7 19 5 20 5 -1 5 -2 6 hvcurveto
          -259 535 rmoveto
          118 -309 rlineto
          -234 hlineto
          35 568 -101 callsubr
          endchar
        </CharString>
        <CharString name="Alpha">
          67 callsubr
          hstem
          24 53 416 53 vstem
          316 636 rmoveto
          -62 hlineto
          -227 -611 rlineto
          -2 -6 -24 callsubr
          -20 19 -5 7 12 10 11 12 5 vhcurveto
          71 192 rlineto
          274 hlineto
          71 -192 rlineto
          -14 6 9 -9 12 hhcurveto
          7 19 5 20 5 -1 5 -2 6 hvcurveto
          -259 535 rmoveto
          118 -309 rlineto
          -234 hlineto
          endchar
        </CharString>
        <CharString name="Alphatonos">
          15 199 52 269 230 hstem
          30 53 28 99 289 53 vstem
          322 636 rmoveto
          -62 hlineto
          -227 -611 rlineto
          -2 -6 -24 callsubr
          -20 19 -5 7 12 10 11 12 5 vhcurveto
          71 192 rlineto
          274 hlineto
          71 -192 rlineto
          -14 6 9 -9 12 hhcurveto
          7 19 5 20 5 -1 5 -2 6 hvcurveto
          -259 535 rmoveto
          118 -309 rlineto
          -234 hlineto
          11 499 rmoveto
          -17 -7 -13 -12 -4 hvcurveto
          -44 -157 rlineto
          -1 -3 -1 -5 -4 vvcurveto
          -22 13 -14 15 12 9 14 21 4 vhcurveto
          45 157 rlineto
          1 4 0 5 2 vvcurveto
          22 -14 5 -11 vhcurveto
          endchar
        </CharString>
        <CharString name="Amacron">
          67 callsubr
          456 53 hstem
          24 53 53 310 53 53 cntrmask 00111000
          130 734 rmoveto
          -93 callgsubr
          186 -98 rmoveto
          -62 hlineto
          -227 -611 rlineto
          -2 -6 -24 callsubr
          -20 19 -5 7 12 10 11 12 5 vhcurveto
          71 192 rlineto
          274 hlineto
          71 -192 rlineto
          -14 6 9 -9 12 hhcurveto
          7 19 5 20 5 -1 5 -2 6 hvcurveto
          -259 535 rmoveto
          118 -309 rlineto
          -234 hlineto
          endchar
        </CharString>
        <CharString name="Aogonek">
          8 -205 50 354 52 395 -20 hstem
          24 53 356 52 vstem
          284 560 rmoveto
          118 -309 rlineto
          -234 hlineto
          -118 -267 rmoveto
          12 10 11 12 5 hvcurveto
          71 192 rlineto
          274 hlineto
          69 -186 rlineto
          -27 -33 -31 -50 -31 -72 callgsubr
          -34 -8 27 27 14 21 48 29 27 hvcurveto
          5 5 6 6 10 vvcurveto
          5 -1 5 -2 6 vhcurveto
          -231 621 rlineto
          -54 hlineto
          -231 -621 rlineto
          -2 -6 -24 callsubr
          -20 19 -5 7 vhcurveto
          endchar
        </CharString>
        <CharString name="Aring">
          67 callsubr
          406 37 88 37 hstem
          24 53 127 37 88 37 127 53 vstem
          316 636 rmoveto
          -62 hlineto
          -227 -611 rlineto
          -2 -6 -24 callsubr
          -20 19 -5 7 12 10 11 12 5 vhcurveto
          71 192 rlineto
          274 hlineto
          71 -192 rlineto
          -14 6 9 -9 12 hhcurveto
          7 19 5 20 5 -1 5 -2 6 hvcurveto
          -259 535 rmoveto
          118 -309 rlineto
          -234 hlineto
          73 487 -79 callgsubr
        </CharString>
        <CharString name="Atilde">
          67 callsubr
          451 -31 callsubr
          24 53 67 282 67 53 hintmask 00000000
          hintmask 10010100
          316 636 rmoveto
          -62 hlineto
          -227 -611 rlineto
          -2 -6 -24 callsubr
          -20 19 -5 7 12 10 11 12 5 vhcurveto
          71 192 rlineto
          274 hlineto
          71 -192 rlineto
          -14 6 9 -9 12 hhcurveto
          7 19 5 20 5 -1 5 -2 6 hvcurveto
          -259 535 rmoveto
          118 -309 rlineto
          -234 hlineto
          hintmask 01001000
          171 507 -85 callgsubr
          hintmask 00101000
          -106 callgsubr
          hintmask 01001000
          -105 callgsubr
          endchar
        </CharString>
        <CharString name="B">
          44 0 2 callsubr
          195 57 hstemhm
          41 callgsubr
          -10 88 callgsubr
          136 332 rmoveto
          196 36 callgsubr
          -115 hvcurveto
          -28 vlineto
          -115 40 callsubr
          -190 hlineto
          -52 -16 rmoveto
          -60 callgsubr
          29 vlineto
          98 -33 45 -58 22 vhcurveto
          hintmask 11111000
          31 23 18 33 56 vvcurveto
          126 -85 24 18 callsubr
          204 -216 rmoveto
          -152 195 152 hlineto
          112 54 -8 -90 -82 -50 99 callsubr
        </CharString>
        <CharString name="Becyrillic">
          -6 -7 52 369 52 118 52 hstem
          85 78 callgsubr
          vstem
          439 636 rmoveto
          -354 -608 hlineto
          -20 -4 callgsubr
          181 hlineto
          132 85 112 125 123 -85 113 -132 hvcurveto
          -153 118 302 hlineto
          18 17 5 21 21 -17 5 -18 hvcurveto
          -149 -222 rmoveto
          112 53 -95 -89 -91 -52 -94 -113 hvcurveto
          -153 369 hlineto
          endchar
        </CharString>
        <CharString name="Beta">
          44 0 2 callsubr
          195 57 hstemhm
          41 callgsubr
          -10 88 callgsubr
          136 332 rmoveto
          196 36 callgsubr
          -115 hvcurveto
          -28 vlineto
          -115 40 callsubr
          -190 hlineto
          -52 -16 rmoveto
          -60 callgsubr
          29 vlineto
          98 -33 45 -58 22 vhcurveto
          hintmask 11111000
          31 23 18 33 56 vvcurveto
          126 -85 24 18 callsubr
          204 -216 rmoveto
          -152 195 152 hlineto
          112 54 -8 -90 -82 -50 99 callsubr
        </CharString>
        <CharString name="C">
          31 34 callgsubr
          hstem
          72 52 360 -89 callsubr
          endchar
        </CharString>
        <CharString name="Cacute">
          31 34 callgsubr
          53 131 hstem
          72 52 162 132 66 -89 callsubr
          111 771 -103 callgsubr
          endchar
        </CharString>
        <CharString name="Ccaron">
          31 34 callgsubr
          42 144 hstem
          72 52 34 278 48 -89 callsubr
          30 678 -101 callgsubr
          endchar
        </CharString>
        <CharString name="Ccedilla">
          29 83 callsubr
          542 52 hstem
          71 52 160 53 16 52 79 52 vstem
          283 hmoveto
          6 -61 63 -9 -29 -71 callsubr
          56 -59 -1 -9 39 hvcurveto
          99 hlineto
          -72 callsubr
          286 vlineto
          117 50 11 115 vhcurveto
          140 hlineto
          40 15 -14 -48 -29 16 -4 10 21 5 17 18 54 93 callgsubr
          -147 hlineto
          -133 -84 -26 -154 hvcurveto
          -286 vlineto
          -150 79 -29 133 -1 vhcurveto
          endchar
        </CharString>
        <CharString name="Ccircumflex">
          31 34 callgsubr
          10 173 hstem
          72 52 45 283 32 52 vstem
          175 687 -107 callgsubr
          156 -819 rmoveto
          -72 callsubr
          276 vlineto
          117 50 11 115 vhcurveto
          140 hlineto
          40 15 -14 -48 -29 16 -4 10 21 5 17 18 54 93 callgsubr
          -147 hlineto
          -133 -84 -26 -154 hvcurveto
          -276 vlineto
          -154 84 -26 139 vhcurveto
          endchar
        </CharString>
        <CharString name="Cdotaccent">
          31 34 callgsubr
          65 82 hstem
          72 52 116 102 142 -89 callsubr
          -4 783 rmoveto
          6 callgsubr
        </CharString>
        <CharString name="Checyrillic">
          44 14 -21 177 52 421 -20 hstem
          57 15 callgsubr
          304 222 rmoveto
          -31 hlineto
          -114 -50 11 115 hvcurveto
          260 vlineto
          31 13 callgsubr
          -20 vhcurveto
          -260 vlineto
          -152 69 callgsubr
          -205 vlineto
          -20 6 -15 -37 callsubr
          581 vlineto
          18 -5 16 -21 -19 -7 -12 -23 vhcurveto
          -206 vlineto
          -117 -57 -63 -108 vhcurveto
          endchar
        </CharString>
        <CharString name="Chi">
          -2 -52 callgsubr
          -83 callsubr
        </CharString>
        <CharString name="D">
          59 34 callgsubr
          hstem
          84 15 callgsubr
          548 456 -62 callgsubr
          endchar
        </CharString>
        <CharString name="Dcaron">
          59 34 callgsubr
          39 144 hstem
          84 52 15 278 67 52 vstem
          548 456 -62 callgsubr
          -178 219 -101 callgsubr
          endchar
        </CharString>
        <CharString name="Dcroat">
          -60 callsubr
        </CharString>
        <CharString name="Decyrillic">
          11 34 callgsubr
          hstem
          12 52 109 53 194 52 8 52 vstem
          64 28 callgsubr
          -9 584 -299 hlineto
          -215 -63 -303 -37 -66 vhcurveto
          -10 hlineto
          -31 -20 -16 -41 hvcurveto
          -52 -26 callgsubr
          356 109 rmoveto
          -290 hlineto
          38 76 57 285 1 171 rrcurveto
          194 hlineto
          endchar
        </CharString>
        <CharString name="Delta">
          -9 0 53 591 -20 hstem
          500 hmoveto
          16 11 10 15 4 -1 6 -2 5 hvcurveto
          -219 581 rlineto
          17 -6 -11 6 -12 hhcurveto
          -12 -11 -6 -17 -6 hvcurveto
          -219 -581 rlineto
          -2 -5 -1 -6 -4 vvcurveto
          -15 11 -10 16 vhcurveto
          36 53 rmoveto
          188 501 188 -501 rlineto
          endchar
        </CharString>
        <CharString name="Djecyrillic">
          142 -205 52 167 49 callgsubr
          636 rmoveto
          3 callsubr
          -116 vhcurveto
          -380 vlineto
          -42 -11 -18 -44 -26 -11 -10 -16 -21 17 -5 20 59 48 11 118 vhcurveto
          364 58 callsubr
          152 vlineto
          16 18 5 20 16 -9 11 -25 hvcurveto
          endchar
        </CharString>
        <CharString name="Dzecyrillic">
          47 callsubr
          hstem
          61 52 372 52 vstem
          113 481 -59 callgsubr
        </CharString>
        <CharString name="Dzhecyrillic">
          65 0 52 hstem
          86 52 148 54 148 52 cntrmask 01110000
          286 -57 rmoveto
          -18 5 -17 22 20 7 12 23 vhcurveto
          57 200 576 vlineto
          19 callgsubr
          -350 524 vlineto
          31 13 callgsubr
          -20 vhcurveto
          -576 200 vlineto
          endchar
        </CharString>
        <CharString name="E">
          -44 callsubr
          84 callsubr
          332 -31 callgsubr
          200 378 hlineto
          22 12 5 19 19 -11 9 -23 hvcurveto
          -406 59 callgsubr
          -21 -4 callgsubr
          406 hlineto
          22 12 5 19 19 -11 9 -23 hvcurveto
          -378 hlineto
          endchar
        </CharString>
        <CharString name="E.sc">
          52 71 callsubr
          hstem
          87 52 vstem
          139 270 -31 callgsubr
          178 378 hlineto
          22 12 5 19 19 -11 9 -23 hvcurveto
          -406 hlineto
          -19 -5 -16 -20 hvcurveto
          -480 vlineto
          -21 -4 callgsubr
          406 hlineto
          22 12 5 19 19 -11 9 -23 hvcurveto
          -378 hlineto
          endchar
        </CharString>
        <CharString name="Eacute">
          -44 callsubr
          52 131 hstem
          84 52 119 132 vstem
          136 332 -31 callgsubr
          200 378 hlineto
          22 12 5 19 19 -11 9 -23 hvcurveto
          -406 59 callgsubr
          -21 -4 callgsubr
          406 hlineto
          22 12 5 19 19 -11 9 -23 hvcurveto
          -378 hlineto
          239 718 -103 callgsubr
          endchar
        </CharString>
        <CharString name="Ecaron">
          -44 callsubr
          39 144 hstem
          84 52 23 278 vstem
          136 332 -31 callgsubr
          200 378 hlineto
          22 12 5 19 19 -11 9 -23 hvcurveto
          -406 59 callgsubr
          -21 -4 callgsubr
          406 hlineto
          22 12 5 19 19 -11 9 -23 hvcurveto
          -378 hlineto
          190 623 -101 callgsubr
          endchar
        </CharString>
        <CharString name="Ecircumflex">
          -44 callsubr
          10 173 hstem
          84 52 34 283 vstem
          136 332 -31 callgsubr
          200 378 hlineto
          22 12 5 19 19 -11 9 -23 hvcurveto
          -406 59 callgsubr
          -21 -4 callgsubr
          406 hlineto
          22 12 5 19 19 -11 9 -23 hvcurveto
          -378 hlineto
          40 635 -107 callgsubr
          endchar
        </CharString>
        <CharString name="Edieresis">
          -44 callsubr
          66 82 hstem
          84 52 52 102 44 102 vstem
          136 332 -31 callgsubr
          200 378 hlineto
          22 12 5 19 19 -11 9 -23 hvcurveto
          -406 59 callgsubr
          -21 -4 callgsubr
          406 hlineto
          22 12 5 19 19 -11 9 -23 hvcurveto
          -378 hlineto
          103 732 rmoveto
          -106 callsubr
          146 hmoveto
          6 callgsubr
        </CharString>
        <CharString name="Edotaccent">
          -44 callsubr
          70 82 hstem
          84 52 124 102 vstem
          311 788 rmoveto
          -106 callsubr
          -175 -456 -31 callgsubr
          200 378 hlineto
          22 12 5 19 19 -11 9 -23 hvcurveto
          -406 59 callgsubr
          -21 -4 callgsubr
          406 hlineto
          22 12 5 19 19 -11 9 -23 hvcurveto
          -378 hlineto
          endchar
        </CharString>
        <CharString name="Efcyrillic">
          -13 14 -21 83 48 388 48 83 -20 -65 callgsubr
        </CharString>
        <CharString name="Egrave">
          -44 callsubr
          52 131 hstem
          84 52 68 132 vstem
          136 332 -31 callgsubr
          200 378 hlineto
          22 12 5 19 19 -11 9 -23 hvcurveto
          -406 59 callgsubr
          -21 -4 callgsubr
          406 hlineto
          22 12 5 19 19 -11 9 -23 hvcurveto
          -378 hlineto
          94 767 -101 callsubr
          endchar
        </CharString>
        <CharString name="Elcyrillic">
          13 34 callgsubr
          hstem
          112 55 270 52 vstem
          489 28 rmoveto
          608 -267 vlineto
          -90 -20 -37 -90 hvcurveto
          -399 vlineto
          -41 5 callsubr
          60 50 12 115 vhcurveto
          398 vlineto
          41 13 18 49 vhcurveto
          208 -556 hlineto
          -30 -29 callgsubr
          20 7 13 22 vhcurveto
          endchar
        </CharString>
        <CharString name="Emacron">
          -44 callsubr
          70 53 hstem
          84 52 20 310 vstem
          156 733 rmoveto
          -93 callgsubr
          -20 -401 -31 callgsubr
          200 378 hlineto
          22 12 5 19 19 -11 9 -23 hvcurveto
          -406 59 callgsubr
          -21 -4 callgsubr
          406 hlineto
          22 12 5 19 19 -11 9 -23 hvcurveto
          -378 hlineto
          endchar
        </CharString>
        <CharString name="Emcyrillic">
          92 -52 callgsubr
          hstem
          84 52 381 52 vstem
          326 279 rmoveto
          -86 callsubr
        </CharString>
        <CharString name="Encyrillic">
          71 -7 21 303 52 254 20 hstem
          84 15 callgsubr
          136 -84 callsubr
          endchar
        </CharString>
        <CharString name="Eng">
          72 -175 52 137 -21 650 -20 hstem
          84 15 callgsubr
          496 96 rmoveto
          -358 528 rlineto
          14 -9 -9 5 -12 hhcurveto
          -19 -5 -15 -20 hvcurveto
          -35 callsubr
          11 22 100 callsubr
          360 -533 rlineto
          -10 vlineto
          -113 -50 -10 -111 -23 -13 -6 -19 -22 17 -5 19 128 85 22 153 vhcurveto
          608 vlineto
          19 -5 16 -22 -20 -5 -17 -19 vhcurveto
          endchar
        </CharString>
        <CharString name="Eogonek">
          36 -205 50 155 2 callsubr
          205 52 hstem
          84 52 95 52 vstem
          136 332 -31 callgsubr
          205 378 hlineto
          22 12 5 19 19 -11 9 -23 hvcurveto
          -406 hlineto
          -19 -5 -16 -20 hvcurveto
          -569 vlineto
          -21 -4 callgsubr
          171 hlineto
          -24 -32 -24 -42 -27 -72 callgsubr
          -34 -8 27 27 17 28 61 36 23 hvcurveto
          167 hlineto
          22 12 5 19 19 -11 9 -23 hvcurveto
          -378 hlineto
          endchar
        </CharString>
        <CharString name="Epsilon">
          -44 callsubr
          84 callsubr
          332 -31 callgsubr
          200 378 hlineto
          22 12 5 19 19 -11 9 -23 hvcurveto
          -406 59 callgsubr
          -21 -4 callgsubr
          406 hlineto
          22 12 5 19 19 -11 9 -23 hvcurveto
          -378 hlineto
          endchar
        </CharString>
        <CharString name="Epsilontonos">
          80 0 2 callsubr
          136 230 -166 52 hstemhm
          19 99 9 -48 callsubr
          hintmask 11010100
          179 332 -31 callgsubr
          200 378 hlineto
          22 12 5 19 19 -11 9 -23 hvcurveto
          -406 59 callgsubr
          -21 -4 callgsubr
          406 hlineto
          22 12 5 19 19 -11 9 -23 hvcurveto
          -378 hlineto
          hintmask 00101000
          -86 698 rmoveto
          -17 -7 -13 -12 -4 hvcurveto
          -44 -157 rlineto
          -1 -3 -1 -5 -4 vvcurveto
          -22 13 -14 15 12 9 14 21 4 vhcurveto
          45 157 rlineto
          1 4 0 5 2 vvcurveto
          22 -14 5 -11 vhcurveto
          endchar
        </CharString>
        <CharString name="Ercyrillic">
          -19 -7 21 313 52 205 52 hstem
          41 callgsubr
          vstem
          136 25 -78 callgsubr
        </CharString>
        <CharString name="Ereversedcyrillic">
          97 callsubr
          54 15 callgsubr
          154 636 25 callsubr
          -11 -114 hvcurveto
          -100 -259 vlineto
          -21 -14 -5 -19 -22 15 -6 20 hvcurveto
          259 -129 hlineto
          -115 -50 -11 43 callgsubr
          -54 10 -58 90 -19 callgsubr
          139 84 26 151 hvcurveto
          282 vlineto
          151 -84 26 -139 vhcurveto
          endchar
        </CharString>
        <CharString name="Escyrillic">
          31 34 callgsubr
          hstem
          72 52 360 -89 callsubr
          endchar
        </CharString>
        <CharString name="Eta">
          71 -7 21 303 52 254 20 hstem
          84 15 callgsubr
          136 -84 callsubr
          endchar
        </CharString>
        <CharString name="Etatonos">
          117 -7 21 303 52 147 230 -123 20 hstemhm
          18 99 13 52 360 -48 callsubr
          hintmask 11010110
          182 -84 callsubr
          hintmask 00101000
          -90 719 rmoveto
          -17 -7 -13 -12 -4 hvcurveto
          -44 -157 rlineto
          -1 -3 -1 -5 -4 vvcurveto
          -22 13 -14 15 12 9 14 21 4 vhcurveto
          45 157 rlineto
          1 4 0 5 2 vvcurveto
          22 -14 5 -11 vhcurveto
          endchar
        </CharString>
        <CharString name="Eth">
          -60 callsubr
        </CharString>
        <CharString name="Euro">
          0 -5 52 186 53 65 53 185 52 hstem
          107 52 287 52 vstem
          498 529 rmoveto
          54 -10 58 -90 vhcurveto
          -63 hlineto
          -129 -99 -79 -153 hvcurveto
          -5 -31 vlineto
          -27 -5 -15 -10 -14 8 -14 24 hvcurveto
          31 -65 -31 hlineto
          -22 -10 -11 -15 -22 16 -5 16 hvcurveto
          31 -6 hlineto
          -153 99 -79 129 vhcurveto
          63 hlineto
          90 10 58 53 24 -8 12 -18 -42 callgsubr
          -44 -11 -18 -44 hvcurveto
          -56 hlineto
          -111 -65 62 118 hvcurveto
          6 194 vlineto
          21 13 10 15 17 -12 11 -22 hvcurveto
          -194 65 194 hlineto
          22 12 11 15 17 -12 10 -22 hvcurveto
          -194 5 hlineto
          117 65 63 111 vhcurveto
          56 hlineto
          40 15 -14 -48 -29 16 -4 10 21 5 17 18 hvcurveto
          endchar
        </CharString>
        <CharString name="F">
          16 14 -21 339 52 200 52 84 callsubr
          27 -22 callgsubr
        </CharString>
        <CharString name="Fitacyrillic">
          33 -9 52 232 52 -12 52 226 52 hstemhm
          65 52 360 -48 callsubr
          hintmask 11011100
          399 327 rmoveto
          hintmask 10111100
          -40 -113 40 -66 hhcurveto
          -34 -29 -23 0 hvcurveto
          60 vlineto
          118 65 71 115 115 65 -71 -118 vhcurveto
          -43 vlineto
          0 -44 -34 -34 vhcurveto
          130 -99 rmoveto
          180 vlineto
          151 -100 86 -132 -133 -99 -86 -151 vhcurveto
          -180 vlineto
          -151 99 -86 133 -51 callsubr
          vhcurveto
          -52 4 rmoveto
          -119 -65 -70 -115 -115 -65 70 119 vhcurveto
          50 vlineto
          0 42 33 34 vhcurveto
          hintmask 11011100
          40 113 98 callgsubr
        </CharString>
        <CharString name="G">
          35 callsubr
          hstem
          72 15 callgsubr
          484 246 rmoveto
          -134 vlineto
          -43 -11 -17 -44 vhcurveto
          -140 hlineto
          -115 -50 11 115 hvcurveto
          280 vlineto
          -34 callsubr
          11 121 vhcurveto
          134 hlineto
          44 11 -18 -43 -25 10 -9 16 18 8 12 24 53 -10 58 31 callgsubr
          -25 -152 hvcurveto
          -282 vlineto
          -152 84 -25 133 vhcurveto
          147 hlineto
          90 10 57 52 hvcurveto
          189 -183 vlineto
          -22 -14 -5 -22 -15 10 -10 26 hvcurveto
          endchar
        </CharString>
        <CharString name="Gamma">
          -4 -7 21 570 52 hstem
          82 52 -47 callgsubr
          endchar
        </CharString>
        <CharString name="Gbreve">
          35 callsubr
          52 54 hstem
          72 52 61 67 callgsubr
          59 52 vstem
          484 246 rmoveto
          -134 vlineto
          -43 -11 -17 -44 vhcurveto
          -140 hlineto
          -115 -50 11 115 hvcurveto
          280 vlineto
          -34 callsubr
          11 121 vhcurveto
          134 hlineto
          44 11 -18 -43 -25 10 -9 16 18 8 12 24 53 -10 58 31 callgsubr
          -25 -152 hvcurveto
          -282 vlineto
          -152 84 -25 133 vhcurveto
          147 hlineto
          90 10 57 52 hvcurveto
          189 -183 vlineto
          -22 -14 -5 -22 -15 10 -10 26 hvcurveto
          -48 442 -95 callgsubr
          endchar
        </CharString>
        <CharString name="Gcircumflex">
          35 callsubr
          10 173 hstem
          72 52 38 283 39 52 vstem
          484 246 rmoveto
          -134 vlineto
          -43 -11 -17 -44 vhcurveto
          -140 hlineto
          -115 -50 11 115 hvcurveto
          280 vlineto
          -34 callsubr
          11 121 vhcurveto
          134 hlineto
          44 11 -18 -43 -25 10 -9 16 18 8 12 24 53 -10 58 31 callgsubr
          -25 -152 hvcurveto
          -282 vlineto
          -152 84 -25 133 vhcurveto
          147 hlineto
          90 10 57 52 hvcurveto
          189 -183 vlineto
          -22 -14 -5 -22 -15 10 -10 26 hvcurveto
          -185 441 -107 callgsubr
          endchar
        </CharString>
        <CharString name="Gcommaaccent">
          45 100 callgsubr
          54 52 194 52 286 52 hstemhm
          72 52 138 47 -47 93 129 -48 callsubr
          hintmask 10000010
          355 -9 callgsubr
          129 325 rmoveto
          -134 vlineto
          -43 -11 -17 -44 vhcurveto
          -140 hlineto
          -115 -50 11 115 hvcurveto
          280 vlineto
          -34 callsubr
          11 121 vhcurveto
          134 hlineto
          44 11 -18 -43 -25 10 -9 16 18 8 12 24 53 -10 58 31 callgsubr
          -25 -152 hvcurveto
          -282 vlineto
          -152 84 -25 133 vhcurveto
          147 hlineto
          90 10 57 52 hvcurveto
          189 -183 vlineto
          -22 -14 -5 -22 -15 10 -10 26 hvcurveto
          endchar
        </CharString>
        <CharString name="Gdotaccent">
          35 callsubr
          65 82 hstem
          72 52 114 102 144 52 vstem
          484 246 rmoveto
          -134 vlineto
          -43 -11 -17 -44 vhcurveto
          -140 hlineto
          -115 -50 11 115 hvcurveto
          280 vlineto
          -34 callsubr
          11 121 vhcurveto
          134 hlineto
          44 11 -18 -43 -25 10 -9 16 18 8 12 24 53 -10 58 31 callgsubr
          -25 -152 hvcurveto
          -282 vlineto
          -152 84 -25 133 vhcurveto
          147 hlineto
          90 10 57 52 hvcurveto
          189 -183 vlineto
          -22 -14 -5 -22 -15 10 -10 26 hvcurveto
          -64 537 rmoveto
          6 callgsubr
        </CharString>
        <CharString name="Gecyrillic">
          -4 14 -21 591 52 hstem
          82 52 -47 callgsubr
          endchar
        </CharString>
        <CharString name="Gheupturncyrillic">
          -1 14 -21 591 52 hstem
          82 52 346 52 vstem
          532 584 rmoveto
          129 vlineto
          31 -15 4 -10 -16 -11 -10 -25 vhcurveto
          -77 -298 vlineto
          -80 -20 -37 -90 hvcurveto
          -482 vlineto
          -25 10 -9 15 19 8 12 22 vhcurveto
          498 vlineto
          41 11 18 44 vhcurveto
          endchar
        </CharString>
        <CharString name="Gjecyrillic">
          -4 -7 21 570 52 52 131 hstem
          82 52 140 132 -47 callgsubr
          205 186 -103 callgsubr
          endchar
        </CharString>
        <CharString name="H">
          71 14 -21 324 52 274 -20 hstem
          84 15 callgsubr
          136 -84 callsubr
          endchar
        </CharString>
        <CharString name="Hardsigncyrillic">
          56 -7 52 369 52 118 52 hstem
          157 78 callgsubr
          vstem
          157 584 rmoveto
          -556 vlineto
          -20 5 -15 20 vhcurveto
          182 hlineto
          130 85 112 125 123 -85 113 -131 hvcurveto
          -154 170 80 callsubr
          302 -170 rmoveto
          111 53 -95 -89 -91 -52 -94 -111 hvcurveto
          -155 369 hlineto
          endchar
        </CharString>
        <CharString name="Hbar">
          75 14 -21 324 52 139 43 92 -20 hstem
          86 15 callgsubr
          54 508 rmoveto
          32 -481 hlineto
          -18 -21 callgsubr
          19 7 12 22 vhcurveto
          290 360 -290 vlineto
          -30 16 -4 11 94 callgsubr
          vhcurveto
          481 29 vlineto
          19 10 8 12 15 -10 8 -19 hvcurveto
          -29 57 hlineto
          19 -5 16 -22 -20 -5 -17 -18 vhcurveto
          -57 -360 57 vlineto
          19 -6 16 -22 -19 -5 -15 -20 vhcurveto
          -57 -32 vlineto
          -18 -8 -8 -13 -14 8 -8 18 hvcurveto
          444 hmoveto
          -139 -360 139 vlineto
          endchar
        </CharString>
        <CharString name="Hcircumflex">
          71 -7 21 303 52 254 20 3 173 hstem
          84 52 41 283 36 52 vstem
          136 -84 callsubr
          47 660 -107 callgsubr
          endchar
        </CharString>
        <CharString name="I">
          -341 14 -21 650 -20 84 callsubr
          25 -93 callsubr
          endchar
        </CharString>
        <CharString name="I.sc">
          -336 14 -21 hstem
          86 52 vstem
          138 25 rmoveto
          501 -75 callsubr
          -501 vlineto
          -27 52 callsubr
          16 16 vhcurveto
          endchar
        </CharString>
        <CharString name="IAcyrillic">
          24 -7 52 254 47 243 57 hstem
          86 52 311 52 vstem
          138 467 rmoveto
          88 50 34 115 vhcurveto
          146 -243 -146 hlineto
          -111 -54 31 90 hvcurveto
          64 -156 rmoveto
          -29 -22 -19 -31 -9 -34 -31 -114 53 callsubr
          49 49 72 19 hvcurveto
          28 104 rlineto
          51 14 30 30 73 hhcurveto
          135 -274 hlineto
          -17 7 -15 20 15 10 10 22 vhcurveto
          585 vlineto
          19 -4 17 -20 vhcurveto
          -174 hlineto
          -127 -90 -46 -128 -67 25 -67 91 -27 hvcurveto
          endchar
        </CharString>
        <CharString name="IUcyrillic">
          159 -9 52 254 52 244 52 hstem
          84 52 56 52 359 52 vstem
          425 593 rmoveto
          113 -40 callgsubr
          -178 vlineto
          -117 -65 -69 -113 -113 -68 69 117 vhcurveto
          178 vlineto
          116 68 70 113 vhcurveto
          -602 vmoveto
          130 -12 callgsubr
          hvcurveto
          180 vlineto
          151 -100 86 -130 -133 -100 -86 -151 vhcurveto
          -59 -56 262 vlineto
          28 -87 callsubr
          16 15 vhcurveto
          273 56 -69 vlineto
          -151 100 -86 133 vhcurveto
          endchar
        </CharString>
        <CharString name="Iacute">
          -341 -52 callgsubr
          45 131 hstemhm
          84 52 -51 132 hintmask 00000000
          hintmask 11010000
          136 25 -93 callsubr
          hintmask 00101000
          69 745 -103 callgsubr
          endchar
        </CharString>
        <CharString name="Icircumflex">
          -341 -52 callgsubr
          3 173 hstemhm
          -30 283 -169 52 99 callgsubr
          136 25 -93 callsubr
          hintmask 00110000
          -160 662 -107 callgsubr
          endchar
        </CharString>
        <CharString name="Icyrillic">
          -341 -52 callgsubr
          84 callsubr
          25 -93 callsubr
          endchar
        </CharString>
        <CharString name="Idieresis">
          -341 -52 callgsubr
          59 82 hstemhm
          -13 102 -5 52 -3 102 99 callgsubr
          136 25 -93 callsubr
          hintmask 00110100
          -98 759 rmoveto
          -106 callsubr
          146 hmoveto
          6 callgsubr
        </CharString>
        <CharString name="Idotaccent">
          -341 -52 callgsubr
          58 82 hstemhm
          54 102 -72 52 99 callgsubr
          136 25 -93 callsubr
          hintmask 00110000
          -31 758 rmoveto
          6 callgsubr
        </CharString>
        <CharString name="Ie.ukran">
          97 callsubr
          72 15 callgsubr
          436 636 rmoveto
          10 callgsubr
          -151 hvcurveto
          -282 vlineto
          -151 96 callsubr
          58 54 18 -5 17 -21 -42 callgsubr
          -48 -15 -14 -40 hvcurveto
          -134 hlineto
          -121 -50 11 115 hvcurveto
          129 259 vlineto
          20 15 6 22 19 -14 5 -21 hvcurveto
          -259 100 80 callgsubr
          11 121 vhcurveto
          134 hlineto
          44 11 -18 -44 -29 16 -4 10 18 8 12 24 53 93 callgsubr
          endchar
        </CharString>
        <CharString name="Iecyrillic">
          -44 callsubr
          84 callsubr
          332 -31 callgsubr
          200 378 hlineto
          22 12 5 19 19 -11 9 -23 hvcurveto
          -406 59 callgsubr
          -21 -4 callgsubr
          406 hlineto
          22 12 5 19 19 -11 9 -23 hvcurveto
          -378 hlineto
          endchar
        </CharString>
        <CharString name="Igrave">
          -341 -52 callgsubr
          45 131 hstemhm
          4 132 -52 52 99 callgsubr
          136 25 -93 callsubr
          hintmask 00110000
          -106 794 -101 callsubr
          endchar
        </CharString>
        <CharString name="Iicyrillic">
          71 14 -21 650 -20 hstem
          84 15 callgsubr
          109 -7 rmoveto
          8 8 2 5 4 hvcurveto
          367 543 rlineto
          -517 vlineto
          -22 7 -11 19 21 5 16 18 90 callsubr
          -19 -12 -9 -5 -14 -9 vhcurveto
          -358 -528 rlineto
          511 vlineto
          19 -5 17 -20 -22 -5 -16 -19 vhcurveto
          -581 vlineto
          -19 5 -15 20 vhcurveto
          endchar
        </CharString>
        <CharString name="Iicyrillic_grave">
          82 callsubr
          74 155 131 -48 callsubr
          hintmask 11010100
          109 -7 rmoveto
          8 8 2 5 4 hvcurveto
          367 543 rlineto
          -517 vlineto
          -22 7 -11 19 21 5 16 18 90 callsubr
          -19 -12 -9 -5 -14 -9 vhcurveto
          -358 -528 rlineto
          511 vlineto
          19 -5 17 -20 -22 -5 -16 -19 vhcurveto
          -581 vlineto
          -19 5 -15 20 vhcurveto
          hintmask 00101000
          126 816 -99 callsubr
          endchar
        </CharString>
        <CharString name="Iishortcyrillic">
          83 callgsubr
          -12 52 hstemhm
          84 52 29 52 195 52 32 -48 callsubr
          hintmask 00101100
          464 748 -73 callsubr
          hintmask 11010010
          -355 -755 rmoveto
          8 8 2 5 4 hvcurveto
          367 543 rlineto
          -517 vlineto
          -22 7 -11 19 21 5 16 18 90 callsubr
          -19 -12 -9 -5 -14 -9 vhcurveto
          -358 -528 rlineto
          511 vlineto
          19 -5 17 -20 -22 -5 -16 -19 vhcurveto
          -581 vlineto
          -19 5 -15 20 vhcurveto
          endchar
        </CharString>
        <CharString name="Imacron">
          -341 -52 callgsubr
          63 53 hstemhm
          -45 310 -181 -48 callsubr
          hintmask 00110000
          -45 733 rmoveto
          -93 callgsubr
          hintmask 11001000
          181 -708 -93 callsubr
          endchar
        </CharString>
        <CharString name="Iocyrillic">
          -44 callsubr
          66 82 hstem
          84 52 52 102 44 102 vstem
          136 332 -31 callgsubr
          200 378 hlineto
          22 12 5 19 19 -11 9 -23 hvcurveto
          -406 59 callgsubr
          -21 -4 callgsubr
          406 hlineto
          22 12 5 19 19 -11 9 -23 hvcurveto
          -378 hlineto
          103 732 rmoveto
          -106 callsubr
          146 hmoveto
          6 callgsubr
        </CharString>
        <CharString name="Iogonek">
          -340 -195 50 788 -20 hstem
          26 52 7 52 vstem
          78 -91 rmoveto
          14 19 49 29 25 vhcurveto
          9 8 2 9 11 vvcurveto
          585 -75 callsubr
          -585 vlineto
          -27 -33 -32 -52 -31 -72 callgsubr
          -34 -8 27 27 hvcurveto
          endchar
        </CharString>
        <CharString name="Iota">
          -341 -52 callgsubr
          84 callsubr
          25 -93 callsubr
          endchar
        </CharString>
        <CharString name="Iotadieresis">
          -341 -52 callgsubr
          59 82 hstemhm
          -13 102 -5 52 -3 102 99 callgsubr
          136 25 -93 callsubr
          hintmask 00110100
          -98 759 rmoveto
          -106 callsubr
          146 hmoveto
          6 callgsubr
        </CharString>
        <CharString name="Iotatonos">
          -292 -7 21 506 230 -127 20 hstemhm
          17 99 17 -48 callsubr
          hintmask 10101000
          185 25 -93 callsubr
          hintmask 01010000
          -94 725 rmoveto
          -17 -7 -13 -12 -4 hvcurveto
          -44 -157 rlineto
          -1 -3 -1 -5 -4 vvcurveto
          -22 13 -14 15 12 9 14 21 4 vhcurveto
          45 157 rlineto
          1 4 0 5 2 vvcurveto
          22 -14 5 -11 vhcurveto
          endchar
        </CharString>
        <CharString name="Itilde">
          -341 -52 callgsubr
          64 -31 callsubr
          -31 282 -167 -48 callsubr
          hintmask 00101000
          164 82 callgsubr
          hintmask 00011000
          -106 callgsubr
          hintmask 00101000
          -105 callgsubr
          hintmask 11000100
          -28 -738 -93 callsubr
          endchar
        </CharString>
        <CharString name="J">
          -11 -8 52 599 -20 hstem
          32 53 332 52 vstem
          -59 callsubr
          endchar
        </CharString>
        <CharString name="Jcircumflex">
          -11 -8 52 579 20 4 173 hstemhm
          32 53 202 283 -153 -48 callsubr
          hintmask 11010100
          -59 callsubr
          hintmask 00101000
          42 644 -107 callgsubr
          endchar
        </CharString>
        <CharString name="Jecyrillic">
          -11 -8 52 579 20 hstem
          32 53 332 52 vstem
          -59 callsubr
          endchar
        </CharString>
        <CharString name="K">
          -43 14 -21 650 -20 hstem
          84 52 vstem
          514 18 rmoveto
          8 -4 7 -7 8 vhcurveto
          -279 315 213 239 rlineto
          6 8 4 8 8 vvcurveto
          14 -15 10 -10 -10 -8 -5 -10 -7 vhcurveto
          -261 -298 rlineto
          280 vlineto
          29 -87 callsubr
          17 15 vhcurveto
          233 vlineto
          53 64 274 -314 rlineto
          -9 7 8 -6 10 hhcurveto
          10 16 10 15 hvcurveto
          endchar
        </CharString>
        <CharString name="Kacyrillic">
          13 -7 52 225 52 230 52 hstem
          84 52 255 52 vstem
          -55 callgsubr
          endchar
        </CharString>
        <CharString name="Kappa">
          -43 -52 callgsubr
          hstem
          84 52 vstem
          514 18 rmoveto
          8 -4 7 -7 8 vhcurveto
          -279 315 213 239 rlineto
          6 8 4 8 8 vvcurveto
          14 -15 10 -10 -10 -8 -5 -10 -7 vhcurveto
          -261 -298 rlineto
          280 vlineto
          29 -87 callsubr
          17 15 vhcurveto
          233 vlineto
          53 64 274 -314 rlineto
          -9 7 8 -6 10 hhcurveto
          10 16 10 15 hvcurveto
          endchar
        </CharString>
        <CharString name="Kcommaaccent">
          -43 -151 151 -52 callgsubr
          hstemhm
          84 52 116 21 callgsubr
          hintmask 10000100
          345 -25 -82 callsubr
          hintmask 01110000
          169 43 rmoveto
          8 -4 7 -7 8 vhcurveto
          -279 315 213 239 rlineto
          6 8 4 8 8 vvcurveto
          14 -15 10 -10 -10 -8 -5 -10 -7 vhcurveto
          -261 -298 rlineto
          280 vlineto
          29 -87 callsubr
          17 15 vhcurveto
          233 vlineto
          53 64 274 -314 rlineto
          -9 7 8 -6 10 hhcurveto
          10 16 10 15 hvcurveto
          endchar
        </CharString>
        <CharString name="Khacyrillic">
          -2 -52 callgsubr
          -83 callsubr
        </CharString>
        <CharString name="Kjecyrillic">
          13 -7 52 225 52 230 52 -15 178 hstemhm
          84 52 97 155 3 -48 callsubr
          hintmask 11101010
          -55 callgsubr
          hintmask 00010100
          243 695 -104 callgsubr
          endchar
        </CharString>
        <CharString name="L">
          -45 0 52 591 -20 hstem
          84 52 vstem
          108 hmoveto
          -55 callsubr
          endchar
        </CharString>
        <CharString name="Lacute">
          -45 0 52 571 20 45 131 hstemhm
          79 132 -127 52 99 callgsubr
          108 hmoveto
          -55 callsubr
          hintmask 00110000
          91 770 -103 callgsubr
          endchar
        </CharString>
        <CharString name="Lambda">
          9 24 53 416 53 vstem
          50 -16 rmoveto
          12 10 8 12 5 hvcurveto
          207 555 209 -555 rlineto
          -12 6 9 -8 12 hhcurveto
          7 19 4 16 5 -1 6 -2 7 hvcurveto
          -231 614 rlineto
          -54 hlineto
          -231 -614 rlineto
          -2 -7 -1 -6 -5 vvcurveto
          -16 19 -4 7 vhcurveto
          endchar
        </CharString>
        <CharString name="Lcaron">
          -45 0 52 447 151 -27 20 hstemhm
          84 52 48 21 callgsubr
          hintmask 10110000
          108 hmoveto
          -55 callsubr
          hintmask 01000100
          169 625 -95 callsubr
          hintmask 01001000
          -86 callgsubr
          endchar
        </CharString>
        <CharString name="Lcommaaccent">
          -45 96 callgsubr
          84 52 101 21 callgsubr
          hintmask 10000100
          330 -79 -82 callsubr
          hintmask 01110000
          -222 79 rmoveto
          -55 callsubr
          endchar
        </CharString>
        <CharString name="Ljecyrillic">
          322 -7 52 309 52 178 52 hstem
          112 52 273 52 306 52 vstem
          489 354 rmoveto
          142 hlineto
          113 51 -66 -88 -90 -51 -65 -112 hvcurveto
          -143 hlineto
          361 vmoveto
          230 -267 vlineto
          -90 -20 -37 -90 hvcurveto
          -400 vlineto
          -41 -11 -17 -44 -31 -5 -15 -9 -20 13 -7 23 60 47 12 115 vhcurveto
          398 vlineto
          41 16 18 49 vhcurveto
          208 -556 hlineto
          -21 9 -14 18 vhcurveto
          168 hlineto
          131 72 callgsubr
          -131 hvcurveto
          endchar
        </CharString>
        <CharString name="Lslash">
          -36 85 callgsubr
          93 52 vstem
          117 hmoveto
          351 hlineto
          16 17 5 20 16 -9 11 -24 hvcurveto
          -323 281 hlineto
          65 32 rlineto
          6 3 19 8 16 vvcurveto
          51 callgsubr
          -46 -23 rlineto
          219 vlineto
          28 -16 4 -10 -10 -16 -4 -28 vhcurveto
          -245 vlineto
          -72 -36 9 callgsubr
          53 26 rlineto
          -272 62 callgsubr
          endchar
        </CharString>
        <CharString name="M">
          92 14 -21 650 -20 hstem
          84 52 381 52 vstem
          326 279 rmoveto
          -86 callsubr
        </CharString>
        <CharString name="Mu">
          92 -52 callgsubr
          hstem
          84 52 381 52 vstem
          326 279 rmoveto
          -86 callsubr
        </CharString>
        <CharString name="N">
          71 14 -21 650 -20 hstem
          84 15 callgsubr
          523 -7 -92 callgsubr
          endchar
        </CharString>
        <CharString name="Nacute">
          82 callsubr
          115 155 90 -48 callsubr
          hintmask 11010100
          523 -7 -92 callgsubr
          hintmask 00101000
          -126 768 -104 callgsubr
          endchar
        </CharString>
        <CharString name="Ncaron">
          83 callgsubr
          5 144 hstem
          84 52 34 278 48 52 vstem
          523 -7 -92 callgsubr
          -186 655 -101 callgsubr
          endchar
        </CharString>
        <CharString name="Ncommaaccent">
          71 -151 151 -52 callgsubr
          hstemhm
          84 52 134 47 -47 93 133 -48 callsubr
          hintmask 10000100
          363 -25 -82 callsubr
          hintmask 01110010
          160 18 -92 callgsubr
          endchar
        </CharString>
        <CharString name="Njecyrillic">
          371 -7 52 309 52 237 -20 hstem
          84 52 355 52 301 52 vstem
          543 354 rmoveto
          139 hlineto
          111 51 -66 -88 -90 -51 -65 -111 hvcurveto
          -139 hlineto
          361 vmoveto
          202 vlineto
          20 -5 15 -22 -20 -5 -17 -18 vhcurveto
          -202 -355 202 vlineto
          20 -6 15 -22 -19 -5 -15 -20 vhcurveto
          -35 callsubr
          12 23 vhcurveto
          326 355 -325 vlineto
          -22 9 -14 17 vhcurveto
          165 hlineto
          130 72 callgsubr
          -129 hvcurveto
          endchar
        </CharString>
        <CharString name="Ntilde">
          83 callgsubr
          59 -31 callsubr
          84 52 38 282 40 -48 callsubr
          hintmask 11001010
          523 -7 -92 callgsubr
          hintmask 00100100
          -154 765 -85 callgsubr
          hintmask 00010100
          -106 callgsubr
          hintmask 00100100
          -105 callgsubr
          endchar
        </CharString>
        <CharString name="Nu">
          83 callgsubr
          hstem
          84 15 callgsubr
          523 -7 -92 callgsubr
          endchar
        </CharString>
        <CharString name="O">
          57 callgsubr
          -9 rmoveto
          -104 callsubr
          endchar
        </CharString>
        <CharString name="O.sc">
          29 91 callsubr
          hstem
          63 15 callgsubr
          295 19 callsubr
          96 vlineto
          151 -100 86 -132 -133 -99 -86 -151 vhcurveto
          -96 30 callsubr
          518 vmoveto
          115 -40 callgsubr
          -94 vlineto
          -117 -65 -69 -115 -115 -65 69 117 vhcurveto
          94 vlineto
          116 65 70 115 vhcurveto
          endchar
        </CharString>
        <CharString name="OE">
          165 -9 52 -43 2 callsubr
          201 51 -43 52 hstemhm
          64 51 266 -48 callsubr
          hintmask 10101110
          382 620 rmoveto
          17 -31 -36 8 -41 hhcurveto
          -91 -119 -86 -151 hvcurveto
          -180 vlineto
          -151 119 -86 93 42 35 8 16 31 vhcurveto
          hintmask 01110110
          -7 2 8 -8 14 hhcurveto
          239 hlineto
          21 14 5 19 22 -15 6 -20 hvcurveto
          -214 280 95 hlineto
          23 13 5 19 19 -11 9 -25 hvcurveto
          -95 201 214 hlineto
          23 12 8 19 19 -14 5 -21 hvcurveto
          -243 hlineto
          -12 -7 -5 -11 -3 hvcurveto
          hintmask 10101110
          -106 -577 rmoveto
          -75 -86 68 118 hvcurveto
          178 vlineto
          117 86 69 73 47 36 -11 -22 24 vhcurveto
          -484 vlineto
          -22 -25 -33 -11 -47 hhcurveto
          endchar
        </CharString>
        <CharString name="Oacute">
          33 18 callgsubr
          154 132 74 52 vstem
          297 -9 rmoveto
          -104 callsubr
          94 177 -103 callgsubr
          endchar
        </CharString>
        <CharString name="Ocircumflex">
          -1 callsubr
          1 173 hstem
          65 52 39 283 38 52 vstem
          297 -9 rmoveto
          -104 callsubr
          -135 94 -107 callgsubr
          endchar
        </CharString>
        <CharString name="Ocyrillic">
          57 callgsubr
          -9 rmoveto
          -104 callsubr
          endchar
        </CharString>
        <CharString name="Odieresis">
          -1 callsubr
          57 82 hstem
          65 52 57 102 44 102 55 52 vstem
          297 -9 rmoveto
          -104 callsubr
          -72 191 rmoveto
          -106 callsubr
          146 hmoveto
          6 callgsubr
        </CharString>
        <CharString name="Ograve">
          33 18 callgsubr
          73 132 155 52 vstem
          297 -9 rmoveto
          -104 callsubr
          -81 226 -101 callsubr
          endchar
        </CharString>
        <CharString name="Ohorn">
          69 -22 callsubr
          hstem
          65 52 360 52 55 54 vstem
          297 593 rmoveto
          115 -40 callgsubr
          -178 vlineto
          -117 -65 -69 -115 -115 -65 69 117 vhcurveto
          178 vlineto
          116 65 70 115 vhcurveto
          -602 -11 callsubr
          35 -5 31 -10 28 vhcurveto
          68 5 56 23 66 vvcurveto
          28 -18 29 -26 22 vhcurveto
          -67 callgsubr
          -28 -12 -67 vhcurveto
          60 -41 -70 33 -81 hhcurveto
          -133 -99 -86 -151 hvcurveto
          -1 callgsubr
          endchar
        </CharString>
        <CharString name="Ohungarumlaut">
          -1 callsubr
          43 131 hstemhm
          65 52 101 132 -32 132 27 -48 callsubr
          hintmask 11010010
          297 -9 rmoveto
          -104 callsubr
          hintmask 00101000
          41 177 -103 callgsubr
          hintmask 00100100
          170 69 -103 callgsubr
          endchar
        </CharString>
        <CharString name="Omacron">
          -1 callsubr
          61 53 hstem
          65 52 25 310 25 52 cntrmask 00011100
          142 733 rmoveto
          -93 callgsubr
          155 -742 rmoveto
          -104 callsubr
          endchar
        </CharString>
        <CharString name="Omega">
          31 0 52 541 52 hstem
          64 52 79 54 94 54 79 52 vstem
          116 -84 callgsubr
          endchar
        </CharString>
        <CharString name="Omegatonos">
          61 0 52 468 230 -157 52 hstemhm
          38 99 -43 52 79 54 94 54 79 -48 callsubr
          hintmask 10101111
          146 -84 callgsubr
          hintmask 01010000
          -34 424 rmoveto
          -17 -7 -13 -12 -4 hvcurveto
          -44 -157 rlineto
          -1 -3 -1 -5 -4 vvcurveto
          -22 13 -14 15 12 9 14 21 4 vhcurveto
          45 157 rlineto
          1 4 0 5 2 vvcurveto
          22 -14 5 -11 vhcurveto
          endchar
        </CharString>
        <CharString name="Omicron">
          57 callgsubr
          -9 rmoveto
          -104 callsubr
          endchar
        </CharString>
        <CharString name="Omicrontonos">
          63 -9 52 477 230 -157 52 hstemhm
          31 99 -35 52 360 -48 callsubr
          hintmask 10101100
          327 -9 rmoveto
          -104 callsubr
          hintmask 01010000
          -222 157 rmoveto
          -17 -7 -13 -12 -4 hvcurveto
          -44 -157 rlineto
          -1 -3 -1 -5 -4 vvcurveto
          -22 13 -14 15 12 9 14 21 4 vhcurveto
          45 157 rlineto
          1 4 0 5 2 vvcurveto
          22 -14 5 -11 vhcurveto
          endchar
        </CharString>
        <CharString name="Oslash">
          42 callgsubr
          48 39 -12 -23 31 hvcurveto
          -270 -450 rlineto
          -19 30 -9 38 46 vvcurveto
          182 vlineto
          118 65 71 115 vhcurveto
          178 45 rmoveto
          -10 -9 -6 -13 -6 hvcurveto
          -10 -17 rlineto
          29 -38 -51 14 -54 hhcurveto
          -133 -99 -86 -151 hvcurveto
          -180 vlineto
          -66 18 -54 33 -40 vhcurveto
          -15 -25 rlineto
          -1 -2 -5 -11 -8 vvcurveto
          -19 20 -5 5 10 10 7 12 6 vhcurveto
          10 16 rlineto
          -28 37 50 -14 54 hhcurveto
          -16 callsubr
          65 -18 53 -33 40 vhcurveto
          17 27 rlineto
          1 2 5 10 8 vvcurveto
          20 -21 5 -5 vhcurveto
          2 -224 rmoveto
          -182 vlineto
          -119 -65 -70 -115 -48 -39 12 22 -30 vhcurveto
          270 449 rlineto
          18 -29 9 -38 -45 vvcurveto
          endchar
        </CharString>
        <CharString name="Otilde">
          -1 callsubr
          57 -31 callsubr
          65 52 39 282 39 -48 callsubr
          hintmask 11001010
          297 -9 rmoveto
          -104 callsubr
          hintmask 00100100
          54 165 -85 callgsubr
          hintmask 00010100
          -106 callgsubr
          hintmask 00100100
          -105 callgsubr
          endchar
        </CharString>
        <CharString name="P">
          -21 14 -21 334 52 205 52 hstem
          41 callgsubr
          vstem
          136 25 -78 callgsubr
        </CharString>
        <CharString name="Pecyrillic">
          63 14 -21 591 -8 callgsubr
        </CharString>
        <CharString name="Phi">
          -13 -7 21 62 48 388 48 63 20 -65 callgsubr
        </CharString>
        <CharString name="Pi">
          63 -7 21 570 -8 callgsubr
        </CharString>
        <CharString name="Psi">
          -1 14 -21 228 45 377 -20 hstem
          48 52 154 54 152 52 vstem
          460 610 rmoveto
          -156 vlineto
          -109 -55 -68 -97 -10 vhcurveto
          343 vlineto
          29 -4 callsubr
          -11 -16 -4 -29 vhcurveto
          -344 vlineto
          -98 10 -56 68 110 vvcurveto
          156 -75 callsubr
          -153 vlineto
          -142 86 -84 120 -10 vhcurveto
          -196 27 callsubr
          196 vlineto
          118 11 86 84 141 vvcurveto
          153 vlineto
          93 callsubr
          -11 -16 -5 -28 vhcurveto
          endchar
        </CharString>
        <CharString name="Q">
          42 callgsubr
          115 -40 callgsubr
          -178 vlineto
          -50 -12 -42 -22 -30 vhcurveto
          -54 53 rlineto
          11 -12 -9 2 -5 hhcurveto
          -16 -10 -14 -12 -9 7 -9 6 -5 hvcurveto
          56 -52 rlineto
          -20 -28 -37 -9 -44 hhcurveto
          -115 -65 69 117 hvcurveto
          178 vlineto
          116 65 70 115 vhcurveto
          -602 vmoveto
          56 51 15 28 39 hvcurveto
          35 -35 rlineto
          -9 9 10 -2 5 hhcurveto
          14 10 14 11 7 -4 9 -7 8 hvcurveto
          -35 34 rlineto
          31 38 18 54 65 vvcurveto
          180 vlineto
          151 -100 86 -132 -133 -99 -86 -151 vhcurveto
          -1 callgsubr
          endchar
        </CharString>
        <CharString name="R">
          8 14 -21 329 52 205 57 hstemhm
          41 callgsubr
          -44 -48 callsubr
          hintmask 11111000
          288 374 -77 callgsubr
          hintmask 11110100
          -29 callsubr
          endchar
        </CharString>
        <CharString name="Racute">
          8 70 callsubr
          52 131 hstemhm
          84 52 67 132 119 52 -44 -48 callsubr
          hintmask 11101010
          288 374 -77 callgsubr
          hintmask 11101001
          -29 callsubr
          hintmask 00010100
          -66 438 -103 callgsubr
          endchar
        </CharString>
        <CharString name="Rcaron">
          8 70 callsubr
          39 144 hstemhm
          84 52 -5 278 45 52 -44 -48 callsubr
          hintmask 11101010
          288 374 -77 callgsubr
          hintmask 11101001
          -29 callsubr
          hintmask 00010100
          -91 343 -101 callgsubr
          endchar
        </CharString>
        <CharString name="Rcommaaccent">
          8 -151 151 70 callsubr
          hstemhm
          84 52 116 47 -47 93 109 52 -44 -13 callsubr
          hintmask 1000001000000000
          345 -25 -95 callsubr
          hintmask 1000010000000000
          -86 callgsubr
          hintmask 0111100100000000
          -57 399 -77 callgsubr
          hintmask 0111100010000000
          -29 callsubr
          endchar
        </CharString>
        <CharString name="Rho">
          -19 -7 21 313 52 205 52 hstem
          41 callgsubr
          vstem
          136 25 -78 callgsubr
        </CharString>
        <CharString name="S">
          47 callsubr
          hstem
          61 52 372 52 vstem
          113 481 -59 callgsubr
        </CharString>
        <CharString name="Sacute">
          47 callsubr
          44 131 hstem
          61 52 122 132 118 52 vstem
          113 481 -100 callsubr
          242 289 -103 callgsubr
          endchar
        </CharString>
        <CharString name="Scaron">
          47 callsubr
          31 144 hstem
          61 52 44 278 50 52 vstem
          113 481 -100 callsubr
          211 194 -101 callgsubr
          endchar
        </CharString>
        <CharString name="Scedilla">
          38 -175 50 117 52 548 52 hstem
          61 52 205 52 115 52 vstem
          113 481 rmoveto
          43 23 68 80 vhcurveto
          98 hlineto
          122 48 -9 -117 -20 10 -13 16 17 10 12 21 155 -86 23 -137 hvcurveto
          -76 -25 callsubr
          -38 -87 -75 -89 34 -48 95 -21 hvcurveto
          235 -52 rlineto
          23 -5 37 -38 -72 vvcurveto
          -40 -19 -73 -80 vhcurveto
          -102 hlineto
          -122 -48 11 117 20 -10 13 -15 -18 -10 -12 -21 -142 72 -33 118 -4 hvcurveto
          10 -54 57 -10 -28 -71 callsubr
          51 -51 4 -14 31 hvcurveto
          62 hlineto
          133 37 89 75 74 -30 77 -97 21 hvcurveto
          -237 51 rlineto
          -32 7 -28 40 55 vvcurveto
          endchar
        </CharString>
        <CharString name="Scircumflex">
          47 callsubr
          2 173 hstem
          61 52 43 283 46 52 vstem
          113 481 -100 callsubr
          49 206 -107 callgsubr
          endchar
        </CharString>
        <CharString name="Scommaaccent">
          39 100 callgsubr
          46 52 548 52 hstemhm
          62 52 126 47 -47 93 153 -48 callsubr
          hintmask 10000100
          333 -79 -82 callsubr
          hintmask 01110010
          -219 560 -59 callgsubr
        </CharString>
        <CharString name="Shacyrillic">
          137 0 52 hstem
          86 52 185 52 185 52 cntrmask 01110000
          86 hmoveto
          526 576 hlineto
          19 callgsubr
          -185 81 callsubr
          -524 -185 524 vlineto
          31 13 callgsubr
          -20 vhcurveto
          endchar
        </CharString>
        <CharString name="Shchacyrillic">
          151 0 52 hstem
          86 52 184 52 186 52 6 52 vstem
          322 576 rmoveto
          -524 -184 524 vlineto
          31 13 callgsubr
          -20 vhcurveto
          -576 532 42 callsubr
          -7 524 hlineto
          19 callgsubr
          -186 81 callsubr
          endchar
        </CharString>
        <CharString name="Sigma">
          16 0 52 543 52 hstem
          30 -45 callsubr
        </CharString>
        <CharString name="Softsigncyrillic">
          -17 -7 52 369 52 hstem
          41 callgsubr
          vstem
          289 466 rmoveto
          -153 139 hlineto
          15 -5 16 -22 -10 -15 -5 -27 vhcurveto
          -576 62 callgsubr
          181 hlineto
          132 85 112 125 123 -85 113 -132 hvcurveto
          -52 vmoveto
          112 53 -95 -89 -91 -52 -94 -113 hvcurveto
          -153 369 hlineto
          endchar
        </CharString>
        <CharString name="T">
          -80 14 -21 591 52 hstem
          214 55 vstem
          421 636 -80 callgsubr
          endchar
        </CharString>
        <CharString name="Tau">
          -80 -7 21 570 52 hstem
          214 55 vstem
          421 636 -80 callgsubr
          endchar
        </CharString>
        <CharString name="Tbar">
          -80 14 -21 320 53 218 52 hstem
          214 55 vstem
          421 636 -42 callsubr
          -218 -98 hlineto
          -27 callgsubr
          -14 8 -13 23 hvcurveto
          98 -288 hlineto
          -27 15 -5 11 11 18 5 27 vhcurveto
          288 92 vlineto
          -20 callsubr
          18 -13 10 -21 hvcurveto
          -92 218 152 hlineto
          16 17 5 20 16 -9 11 -24 hvcurveto
          endchar
        </CharString>
        <CharString name="Tcaron">
          -80 -7 21 570 52 42 144 hstemhm
          102 278 -166 55 99 callgsubr
          421 636 -80 callgsubr
          hintmask 00110000
          -152 42 -101 callgsubr
          endchar
        </CharString>
        <CharString name="Tcommaaccent">
          -80 -175 50 709 52 hstem
          214 55 14 52 vstem
          269 10 rmoveto
          574 -40 callsubr
          -361 -64 callsubr
          154 -574 hlineto
          -70 69 -8 -31 -71 callsubr
          hvcurveto
          60 -66 -5 49 vvcurveto
          endchar
        </CharString>
        <CharString name="Tecyrillic">
          -80 -7 21 570 52 hstem
          214 55 vstem
          421 636 -80 callgsubr
          endchar
        </CharString>
        <CharString name="Theta">
          33 87 callgsubr
          360 52 vstem
          209 291 rmoveto
          173 95 callgsubr
          -173 95 callsubr
          88 -300 rmoveto
          -104 callsubr
          endchar
        </CharString>
        <CharString name="Thorn">
          -41 14 -21 166 49 206 52 hstem
          84 52 296 53 vstem
          136 466 rmoveto
          107 -75 callsubr
          -548 vlineto
          -27 52 callsubr
          16 16 vhcurveto
          134 174 vlineto
          108 67 52 102 101 -66 52 -108 hvcurveto
          -45 -52 rmoveto
          117 49 -16 -87 -89 -49 -14 -118 hvcurveto
          -129 206 hlineto
          endchar
        </CharString>
        <CharString name="Tsecyrillic">
          21 0 52 hstem
          86 52 292 52 6 52 vstem
          540 -57 rmoveto
          32 callsubr
          -7 524 hlineto
          19 callgsubr
          -292 524 vlineto
          31 13 callgsubr
          -20 vhcurveto
          -576 402 -57 -26 callgsubr
          endchar
        </CharString>
        <CharString name="Tshecyrillic">
          142 14 49 callgsubr
          584 rmoveto
          16 18 5 20 16 -9 11 -25 hvcurveto
          3 callsubr
          -115 vhcurveto
          -260 vlineto
          -31 16 -4 11 20 1 callsubr
          260 58 callsubr
          vlineto
          endchar
        </CharString>
        <CharString name="U">
          59 -9 52 600 -20 hstem
          78 15 callgsubr
          490 611 rmoveto
          -382 vlineto
          -117 -65 -69 -115 -115 -65 69 117 vhcurveto
          382 vlineto
          28 -16 4 -10 -42 callgsubr
          vhcurveto
          -382 vlineto
          -151 99 -86 133 -51 callsubr
          vhcurveto
          382 vlineto
          93 callsubr
          -11 -16 -5 -27 vhcurveto
          endchar
        </CharString>
        <CharString name="Uacute">
          13 callsubr
          -12 178 hstemhm
          78 52 155 155 50 -48 callsubr
          hintmask 11010100
          490 611 rmoveto
          -382 vlineto
          -117 -65 -69 -115 -115 -65 69 117 vhcurveto
          382 vlineto
          28 -16 4 -10 -42 callgsubr
          vhcurveto
          -382 vlineto
          -151 99 -86 133 -51 callsubr
          vhcurveto
          382 vlineto
          93 callsubr
          -11 -16 -5 -27 vhcurveto
          hintmask 00101000
          -59 150 -104 callgsubr
          endchar
        </CharString>
        <CharString name="Ubreve">
          13 callsubr
          -7 54 hstemhm
          78 52 63 67 callgsubr
          57 -48 callsubr
          hintmask 11010010
          490 611 rmoveto
          -382 vlineto
          -117 -65 -69 -115 -115 -65 69 117 vhcurveto
          382 vlineto
          28 -16 4 -10 -42 callgsubr
          vhcurveto
          -382 vlineto
          -151 99 -86 133 -51 callsubr
          vhcurveto
          382 vlineto
          93 callsubr
          -11 -16 -5 -27 vhcurveto
          hintmask 00101100
          -177 25 -95 callgsubr
          endchar
        </CharString>
        <CharString name="Ucircumflex">
          13 callsubr
          3 173 hstem
          78 52 39 283 38 52 vstem
          490 611 rmoveto
          -382 vlineto
          -117 -65 -69 -115 -115 -65 69 117 vhcurveto
          382 vlineto
          28 -16 4 -10 -42 callgsubr
          vhcurveto
          -382 vlineto
          -151 99 -86 133 -51 callsubr
          vhcurveto
          382 vlineto
          93 callsubr
          -11 -16 -5 -27 vhcurveto
          -315 76 -107 callgsubr
          endchar
        </CharString>
        <CharString name="Ucyrillic">
          -34 -6 52 hstem
          62 52 340 -41 callgsubr
          endchar
        </CharString>
        <CharString name="Udieresis">
          13 callsubr
          59 82 hstem
          78 52 57 102 44 102 55 52 vstem
          490 611 rmoveto
          -382 vlineto
          -117 -65 -69 -115 -115 -65 69 117 vhcurveto
          382 vlineto
          28 -16 4 -10 -42 callgsubr
          vhcurveto
          -382 vlineto
          -151 99 -86 133 -51 callsubr
          vhcurveto
          382 vlineto
          93 callsubr
          -11 -16 -5 -27 vhcurveto
          -252 173 rmoveto
          -106 callsubr
          146 hmoveto
          6 callgsubr
        </CharString>
        <CharString name="Ugrave">
          13 callsubr
          -12 178 hstemhm
          78 52 74 155 131 -48 callsubr
          hintmask 11010100
          490 611 rmoveto
          -382 vlineto
          -117 -65 -69 -115 -115 -65 69 117 vhcurveto
          382 vlineto
          28 -16 4 -10 -42 callgsubr
          vhcurveto
          -382 vlineto
          -151 99 -86 133 -51 callsubr
          vhcurveto
          382 vlineto
          93 callsubr
          -11 -16 -5 -27 vhcurveto
          hintmask 00101000
          -261 198 -99 callsubr
          endchar
        </CharString>
        <CharString name="Uhorn">
          90 -9 52 454 51 95 -20 hstem
          78 52 360 52 67 54 vstem
          490 611 rmoveto
          -382 vlineto
          -117 -65 -69 -115 -115 -65 69 117 vhcurveto
          382 vlineto
          28 -16 4 -10 -42 callgsubr
          vhcurveto
          -382 vlineto
          -151 99 -86 133 -51 callsubr
          vhcurveto
          269 vlineto
          67 5 54 24 65 vvcurveto
          28 -18 29 -26 22 vhcurveto
          -96 callgsubr
          -30 -20 -13 -47 -4 vhcurveto
          62 vlineto
          93 callsubr
          -11 -16 -5 -27 vhcurveto
          endchar
        </CharString>
        <CharString name="Uhungarumlaut">
          13 callsubr
          -12 178 hstemhm
          78 52 78 155 -35 155 7 -48 callsubr
          hintmask 11010010
          490 611 rmoveto
          -382 vlineto
          -117 -65 -69 -115 -115 -65 69 117 vhcurveto
          382 vlineto
          28 -16 4 -10 -42 callgsubr
          vhcurveto
          -382 vlineto
          -151 99 -86 133 -51 callsubr
          vhcurveto
          382 vlineto
          93 callsubr
          -11 -16 -5 -27 vhcurveto
          hintmask 00101000
          -136 150 -104 callgsubr
          hintmask 00100100
          216 115 -104 callgsubr
          endchar
        </CharString>
        <CharString name="Umacron">
          13 callsubr
          63 53 hstem
          78 52 26 310 24 52 vstem
          156 733 rmoveto
          -93 callgsubr
          334 -122 rmoveto
          -382 vlineto
          -117 -65 -69 -115 -115 -65 69 117 vhcurveto
          382 vlineto
          28 -16 4 -10 -42 callgsubr
          vhcurveto
          -382 vlineto
          -151 99 -86 133 -51 callsubr
          vhcurveto
          382 vlineto
          93 callsubr
          -11 -16 -5 -27 vhcurveto
          endchar
        </CharString>
        <CharString name="Uogonek">
          61 -205 50 798 -20 hstem
          79 52 100 52 208 52 vstem
          325 -155 rmoveto
          -34 -8 27 27 15 23 51 31 27 hvcurveto
          119 11 87 84 141 vvcurveto
          382 vlineto
          93 callsubr
          -11 -16 -5 -27 vhcurveto
          -382 vlineto
          -117 -65 -69 -115 -115 -65 69 117 vhcurveto
          382 vlineto
          28 -16 4 -10 -42 callgsubr
          vhcurveto
          -382 vlineto
          -137 81 -83 114 -15 vhcurveto
          -22 -31 -21 -38 -25 -72 callgsubr
          endchar
        </CharString>
        <CharString name="Upsilon">
          -40 -52 callgsubr
          hstem
          234 53 vstem
          234 308 -99 callgsubr
          endchar
        </CharString>
        <CharString name="Upsilondieresis">
          -40 -52 callgsubr
          59 82 hstemhm
          137 102 -5 53 -4 102 99 callgsubr
          234 308 -99 callgsubr
          hintmask 00110100
          163 187 rmoveto
          -106 callsubr
          146 hmoveto
          6 callgsubr
        </CharString>
        <CharString name="Upsilontonos">
          72 -7 21 502 230 -123 20 hstemhm
          25 99 222 53 hintmask 00000000
          hintmask 10101000
          346 308 -99 callgsubr
          hintmask 01010000
          -38 149 rmoveto
          -17 -7 -13 -12 -4 hvcurveto
          -44 -157 rlineto
          -1 -3 -1 -5 -4 vvcurveto
          -22 13 -14 15 12 9 14 21 4 vhcurveto
          45 157 rlineto
          1 4 0 5 2 vvcurveto
          22 -14 5 -11 vhcurveto
          endchar
        </CharString>
        <CharString name="Uring">
          13 callsubr
          -8 37 88 37 hstemhm
          78 52 105 37 88 37 93 -48 callsubr
          hintmask 11001001
          490 611 rmoveto
          -382 vlineto
          -117 -65 -69 -115 -115 -65 69 117 vhcurveto
          382 vlineto
          28 -16 4 -10 -42 callgsubr
          vhcurveto
          -382 vlineto
          -151 99 -86 133 -51 callsubr
          vhcurveto
          382 vlineto
          93 callsubr
          -11 -16 -5 -27 vhcurveto
          hintmask 00110110
          -218 105 -79 callgsubr
        </CharString>
        <CharString name="Ushortcyrillic">
          -34 -6 52 585 52 hstem
          62 52 10 52 195 52 31 -41 callgsubr
          -31 133 -73 callsubr
          endchar
        </CharString>
        <CharString name="Utilde">
          13 callsubr
          64 -31 callsubr
          78 52 40 282 38 -48 callsubr
          hintmask 00100100
          365 82 callgsubr
          hintmask 00010100
          -106 callgsubr
          hintmask 00100100
          -105 callgsubr
          hintmask 11001010
          125 -152 rmoveto
          -382 vlineto
          -117 -65 -69 -115 -115 -65 69 117 vhcurveto
          382 vlineto
          28 -16 4 -10 -42 callgsubr
          vhcurveto
          -382 vlineto
          -151 99 -86 133 -51 callsubr
          vhcurveto
          382 vlineto
          93 callsubr
          -11 -16 -5 -27 vhcurveto
          endchar
        </CharString>
        <CharString name="V">
          9 21 -21 hstem
          24 53 416 53 vstem
          286 76 rmoveto
          -209 553 rlineto
          14 -6 -9 9 -12 hhcurveto
          -7 -19 -5 -20 -5 1 -5 2 -6 hvcurveto
          227 -611 rlineto
          62 hlineto
          227 611 rlineto
          2 6 1 5 5 vvcurveto
          20 -19 5 -7 -12 -10 -11 -12 -5 vhcurveto
          endchar
        </CharString>
        <CharString name="Vecyrillic">
          44 0 2 callsubr
          195 57 hstemhm
          41 callgsubr
          -10 88 callgsubr
          136 332 rmoveto
          196 36 callgsubr
          -115 hvcurveto
          -28 vlineto
          -115 40 callsubr
          -190 hlineto
          -52 -16 rmoveto
          -60 callgsubr
          29 vlineto
          98 -33 45 -58 22 vhcurveto
          hintmask 11111000
          31 23 18 33 56 vvcurveto
          126 -85 24 18 callsubr
          204 -216 rmoveto
          -152 195 152 hlineto
          112 54 -8 -90 -82 -50 99 callsubr
        </CharString>
        <CharString name="W">
          354 21 -21 hstem
          664 72 -90 callgsubr
        </CharString>
        <CharString name="Wacute">
          354 0 21 667 131 hstem
          437 132 vstem
          557 770 -103 callgsubr
          177 -629 -90 callgsubr
        </CharString>
        <CharString name="Wcircumflex">
          354 0 21 625 173 hstem
          316 283 vstem
          322 687 -107 callgsubr
          237 -747 -90 callgsubr
        </CharString>
        <CharString name="Wdieresis">
          354 0 21 693 82 hstem
          332 102 44 102 vstem
          383 796 rmoveto
          -106 callsubr
          146 -94 callgsubr
          135 -724 -90 callgsubr
        </CharString>
        <CharString name="Wgrave">
          354 0 21 667 131 hstem
          342 132 vstem
          368 819 -101 callsubr
          296 -747 -90 callgsubr
        </CharString>
        <CharString name="X">
          -2 14 -21 650 -20 -83 callsubr
        </CharString>
        <CharString name="Xi">
          48 0 52 239 53 251 52 hstem
          202 291 rmoveto
          203 95 callgsubr
          -203 95 callsubr
          -118 304 rmoveto
          440 -2 callsubr
          -440 hlineto
          -27 callgsubr
          -16 9 -10 22 hvcurveto
          -595 vmoveto
          440 -2 callsubr
          -440 hlineto
          -27 callgsubr
          -16 9 -10 22 hvcurveto
          endchar
        </CharString>
        <CharString name="Y">
          -40 14 -21 650 -20 hstem
          234 53 vstem
          234 308 -99 callgsubr
          endchar
        </CharString>
        <CharString name="Yacute">
          -40 -52 callgsubr
          -12 178 hstemhm
          234 53 -52 155 hintmask 00000000
          hintmask 11010000
          234 308 -99 callgsubr
          hintmask 00101000
          356 164 -104 callgsubr
          endchar
        </CharString>
        <CharString name="Yatcyrillic">
          89 -7 52 309 52 49 51 137 -20 hstem
          206 53 303 52 vstem
          206 608 rmoveto
          -103 -144 vlineto
          -29 -4 -15 -10 -11 4 -15 29 hvcurveto
          144 -426 hlineto
          -21 8 -14 18 vhcurveto
          167 hlineto
          131 72 callgsubr
          -130 hvcurveto
          -140 49 150 hlineto
          16 18 5 19 16 -10 11 -24 hvcurveto
          -150 102 hlineto
          20 -5 15 -23 -20 -5 -17 -18 vhcurveto
          53 -254 rmoveto
          140 hlineto
          112 51 -66 -88 -90 -51 -65 -112 hvcurveto
          -140 hlineto
          endchar
        </CharString>
        <CharString name="Ycircumflex">
          -40 -52 callgsubr
          3 173 hstemhm
          118 283 -167 53 hintmask 00000000
          hintmask 00110000
          124 687 -107 callgsubr
          hintmask 11001000
          5 -511 -99 callgsubr
          endchar
        </CharString>
        <CharString name="Ydieresis">
          -40 -52 callgsubr
          59 82 hstemhm
          137 102 -5 53 -4 102 99 callgsubr
          234 308 -99 callgsubr
          hintmask 00110100
          163 187 rmoveto
          -106 callsubr
          146 hmoveto
          6 callgsubr
        </CharString>
        <CharString name="Yericyrillic">
          112 -7 21 -21 52 369 52 157 20 hstemhm
          41 callgsubr
          31 -48 callsubr
          hintmask 10010010
          589 25 -93 callsubr
          hintmask 01101100
          -300 441 rmoveto
          -153 139 hlineto
          15 -5 16 -22 -10 -15 -5 -27 vhcurveto
          -576 62 callgsubr
          181 hlineto
          132 85 112 125 123 -85 113 -132 hvcurveto
          -52 vmoveto
          112 53 -95 -89 -91 -52 -94 -113 hvcurveto
          -153 369 hlineto
          endchar
        </CharString>
        <CharString name="Ygrave">
          -40 -52 callgsubr
          -7 178 hstemhm
          130 155 -51 53 hintmask 00000000
          hintmask 00110000
          155 814 -99 callsubr
          hintmask 11001000
          79 -506 -99 callgsubr
          endchar
        </CharString>
        <CharString name="Yicyrillic">
          -341 -52 callgsubr
          59 82 hstemhm
          -13 102 -5 52 -3 102 99 callgsubr
          136 25 -93 callsubr
          hintmask 00110100
          -98 759 rmoveto
          -106 callsubr
          146 hmoveto
          6 callgsubr
        </CharString>
        <CharString name="Z">
          61 callgsubr
          hstem
          -74 callsubr
          endchar
        </CharString>
        <CharString name="Zacute">
          61 callgsubr
          42 131 hstem
          237 132 vstem
          -74 callsubr
          311 719 -103 callgsubr
          endchar
        </CharString>
        <CharString name="Zcaron">
          61 callgsubr
          29 144 hstem
          142 278 vstem
          -74 callsubr
          263 624 -101 callgsubr
          endchar
        </CharString>
        <CharString name="Zdotaccent">
          61 callgsubr
          55 82 hstem
          216 102 vstem
          -74 callsubr
          221 732 rmoveto
          6 callgsubr
        </CharString>
        <CharString name="Zecyrillic">
          23 0 52 250 52 139 -21 112 52 hstem
          56 15 callgsubr
          264 354 rmoveto
          -22 -14 -5 -21 -21 14 -5 22 hvcurveto
          86 hlineto
          69 49 -56 -69 -44 -41 -81 -81 17 callgsubr
          98 69 82 94 64 -30 55 -45 32 hvcurveto
          45 28 30 51 64 vvcurveto
          94 -69 72 -98 vhcurveto
          -197 hlineto
          41 callsubr
          -31 15 -4 10 16 11 10 25 hvcurveto
          18 vlineto
          42 11 17 44 vhcurveto
          183 hlineto
          81 41 -71 -44 -69 -49 -46 -69 hvcurveto
          endchar
        </CharString>
        <CharString name="Zeta">
          61 callgsubr
          hstem
          -74 callsubr
          endchar
        </CharString>
        <CharString name="Zhecyrillic">
          107 -7 52 230 52 230 52 hstem
          130 52 127 52 125 52 cntrmask 11100000
          309 327 rmoveto
          -76 1 -51 28 41 vvcurveto
          83 vlineto
          118 -48 11 -59 -20 -16 -5 -21 -16 10 -10 26 78 callsubr
          vhcurveto
          -93 vlineto
          -52 25 -32 33 -19 vhcurveto
          -33 -19 -25 -32 -52 vvcurveto
          -93 vlineto
          -42 -11 -18 -44 -26 -10 -10 -16 -21 16 -5 20 59 48 11 118 vhcurveto
          83 vlineto
          41 51 28 76 1 vhcurveto
          -250 vlineto
          -27 52 callsubr
          17 15 vhcurveto
          250 vlineto
          49 -3 76 -29 -38 vvcurveto
          -83 vlineto
          -118 48 11 callsubr
          18 42 vhcurveto
          93 vlineto
          26 -5 45 -48 30 vhcurveto
          31 18 22 32 55 vvcurveto
          93 vlineto
          79 callsubr
          -6 callgsubr
          -59 -48 -11 -118 vhcurveto
          -83 vlineto
          -41 -48 -28 -77 -1 vhcurveto
          248 vlineto
          29 -15 4 -11 -11 -15 -4 -29 vhcurveto
          endchar
        </CharString>
        <CharString name="a">
          -61 callsubr
          hstem
          60 78 callgsubr
          vstem
          283 243 rmoveto
          147 -15 hlineto
          -113 -57 -63 -113 vhcurveto
          -93 hlineto
          -27 -28 31 35 -67 callsubr
          hvcurveto
          52 vmoveto
          -138 -85 -28 -144 -76 46 -47 61 hvcurveto
          93 hlineto
          68 63 20 43 39 hvcurveto
          -35 vlineto
          -18 5 -17 21 -33 callgsubr
          308 vlineto
          90 -20 36 -80 vhcurveto
          -155 hlineto
          -93 -74 -31 -81 -25 10 -10 15 22 5 14 21 45 49 15 73 -19 callgsubr
          44 11 -17 -40 hvcurveto
          -57 vlineto
          endchar
        </CharString>
        <CharString name="aacute">
          -61 callsubr
          66 callsubr
          60 52 134 155 29 52 vstem
          283 243 rmoveto
          147 -15 hlineto
          -113 -57 -63 -113 vhcurveto
          -93 hlineto
          -27 -28 31 35 -67 callsubr
          hvcurveto
          52 vmoveto
          -138 -85 -28 -144 -76 46 -47 61 hvcurveto
          93 hlineto
          68 63 20 43 39 hvcurveto
          -35 vlineto
          -18 5 -17 21 -33 callgsubr
          308 vlineto
          90 -20 36 -80 vhcurveto
          -155 hlineto
          -93 -74 -31 -81 -25 10 -10 15 22 5 14 21 45 49 15 73 -19 callgsubr
          44 11 -17 -40 hvcurveto
          -57 vlineto
          -38 340 -104 callgsubr
          endchar
        </CharString>
        <CharString name="abreve">
          -61 callsubr
          61 54 hstem
          60 52 40 67 callgsubr
          38 52 vstem
          272 522 -95 callgsubr
          11 -279 rmoveto
          147 -15 hlineto
          -113 -57 -63 -113 vhcurveto
          -93 hlineto
          -27 -28 31 35 -67 callsubr
          hvcurveto
          52 vmoveto
          -138 -85 -28 -144 -76 46 -47 61 hvcurveto
          93 hlineto
          68 63 20 43 39 hvcurveto
          -35 vlineto
          -18 5 -17 21 -33 callgsubr
          308 vlineto
          90 -20 36 -80 vhcurveto
          -155 hlineto
          -93 -74 -31 -81 -25 10 -10 15 22 5 14 21 45 49 15 73 -19 callgsubr
          44 11 -17 -40 hvcurveto
          -57 vlineto
          endchar
        </CharString>
        <CharString name="acircumflex">
          -61 callsubr
          56 173 hstem
          60 52 18 283 17 52 vstem
          283 243 rmoveto
          147 -15 hlineto
          -113 -57 -63 -113 vhcurveto
          -93 hlineto
          -27 -28 31 35 -67 callsubr
          hvcurveto
          52 vmoveto
          -138 -85 -28 -144 -76 46 -47 61 hvcurveto
          93 hlineto
          68 63 20 43 39 hvcurveto
          -35 vlineto
          -18 5 -17 21 -33 callgsubr
          308 vlineto
          90 -20 36 -80 vhcurveto
          -155 hlineto
          -93 -74 -31 -81 -25 10 -10 15 22 5 14 21 45 49 15 73 -19 callgsubr
          44 11 -17 -40 hvcurveto
          -57 vlineto
          -294 263 -107 callgsubr
          endchar
        </CharString>
        <CharString name="acute">
          85 callsubr
          175 -63 callgsubr
          endchar
        </CharString>
        <CharString name="acutecomb">
          505 131 hstem
          -375 132 vstem
          -255 587 -103 callgsubr
          endchar
        </CharString>
        <CharString name="acyrillic">
          -61 callsubr
          hstem
          60 78 callgsubr
          vstem
          283 243 rmoveto
          147 -15 hlineto
          -113 -57 -63 -113 vhcurveto
          -93 hlineto
          -27 -28 31 35 -67 callsubr
          hvcurveto
          52 vmoveto
          -138 -85 -28 -144 -76 46 -47 61 hvcurveto
          93 hlineto
          68 63 20 43 39 hvcurveto
          -35 vlineto
          -18 5 -17 21 -33 callgsubr
          308 vlineto
          90 -20 36 -80 vhcurveto
          -155 hlineto
          -93 -74 -31 -81 -25 10 -10 15 22 5 14 21 45 49 15 73 -19 callgsubr
          44 11 -17 -40 hvcurveto
          -57 vlineto
          endchar
        </CharString>
        <CharString name="adieresis">
          -61 callsubr
          56 82 hstem
          60 52 35 102 44 102 35 52 vstem
          283 243 rmoveto
          147 -15 hlineto
          -113 -57 -63 -113 vhcurveto
          -93 hlineto
          -27 -28 31 35 -67 callsubr
          hvcurveto
          52 vmoveto
          -138 -85 -28 -144 -76 46 -47 61 hvcurveto
          93 hlineto
          68 63 20 43 39 hvcurveto
          -35 vlineto
          -18 5 -17 21 -33 callgsubr
          308 vlineto
          90 -20 36 -80 vhcurveto
          -155 hlineto
          -93 -74 -31 -81 -25 10 -10 15 22 5 14 21 45 49 15 73 -19 callgsubr
          44 11 -17 -40 hvcurveto
          -57 vlineto
          -232 304 rmoveto
          -106 callsubr
          146 hmoveto
          6 callgsubr
        </CharString>
        <CharString name="ae">
          383 -54 callgsubr
          hstem
          60 52 318 53 349 52 vstem
          283 243 rmoveto
          147 -15 hlineto
          -113 -57 -63 -113 vhcurveto
          -93 hlineto
          -27 -28 31 35 -67 callsubr
          hvcurveto
          379 166 rmoveto
          118 50 -13 -101 2 hvcurveto
          -349 hlineto
          101 2 50 13 119 hhcurveto
          230 -124 rmoveto
          150 -56 callsubr
          -8 hlineto
          -82 -63 -9 -38 -37 hvcurveto
          33 -13 -27 14 -50 hhcurveto
          -155 hlineto
          -93 -74 -31 -81 -25 10 -10 15 22 5 14 21 45 49 15 73 -19 callgsubr
          44 11 -17 -40 hvcurveto
          -57 -147 vlineto
          -138 -85 -28 -144 -76 46 -47 61 hvcurveto
          93 hlineto
          59 91 26 52 39 hvcurveto
          -64 32 72 -14 101 hhcurveto
          130 hlineto
          90 10 58 53 24 -8 12 -18 -42 callgsubr
          -44 -11 -18 -44 hvcurveto
          -123 hlineto
          -121 -50 10 115 hvcurveto
          66 401 vlineto
          endchar
        </CharString>
        <CharString name="afii00208">
          98 29 callgsubr
          448 hlineto
          -20 callsubr
          18 -13 10 -21 hvcurveto
          -448 55 callsubr
        </CharString>
        <CharString name="agrave">
          -61 callsubr
          41 178 hstem
          60 52 53 155 110 52 vstem
          283 243 rmoveto
          147 -15 hlineto
          -113 -57 -63 -113 vhcurveto
          -93 hlineto
          -27 -28 31 35 -67 callsubr
          hvcurveto
          52 vmoveto
          -138 -85 -28 -144 -76 46 -47 61 hvcurveto
          93 hlineto
          68 63 20 43 39 hvcurveto
          -35 vlineto
          -18 5 -17 21 -33 callgsubr
          308 vlineto
          90 -20 36 -80 vhcurveto
          -155 hlineto
          -93 -74 -31 -81 -25 10 -10 15 22 5 14 21 45 49 15 73 -19 callgsubr
          44 11 -17 -40 hvcurveto
          -57 vlineto
          -240 385 -99 callsubr
          endchar
        </CharString>
        <CharString name="akayahli">
          21 -5 52 96 52 17 52 1 52 97 52 hstemhm
          64 89 callsubr
          hintmask 00000000
          hintmask 11111101
          116 111 rmoveto
          74 43 27 65 -5 callgsubr
          -73 -36 17 69 42 12 22 44 vhcurveto
          30 callgsubr
          -37 -76 vlineto
          hintmask 11111110
          -19 -17 -5 -20 -22 14 -5 22 hvcurveto
          hintmask 11111101
          128 72 hlineto
          -35 callgsubr
          -63 29 -24 30 -13 hvcurveto
          -30 -19 -29 -31 -63 vvcurveto
          -92 20 -37 80 vhcurveto
          70 callgsubr
          71 -128 vlineto
          hintmask 11111110
          45 callgsubr
          hvcurveto
          hintmask 11111101
          76 -37 hlineto
          -42 -11 -17 -10 callgsubr
          -44 -11 22 42 hvcurveto
          endchar
        </CharString>
        <CharString name="alpha">
          24 0 callsubr
          60 52 300 53 vstem
          520 hmoveto
          25 10 -57 callsubr
          324 vlineto
          22 -7 12 -19 -21 -6 -17 -18 vhcurveto
          -25 vlineto
          38 -40 -57 15 -55 hhcurveto
          -131 -69 -46 -150 hvcurveto
          -69 vlineto
          -150 69 -46 131 56 62 15 45 41 vhcurveto
          -43 12 28 -17 54 hhcurveto
          -253 409 rmoveto
          80 72 -28 -116 hvcurveto
          -69 vlineto
          -116 -72 -28 -80 -111 -37 28 116 vhcurveto
          69 vlineto
          116 37 28 111 vhcurveto
          endchar
        </CharString>
        <CharString name="alphatonos">
          24 0 -46 callsubr
          58 230 hstem
          60 52 122 99 79 53 vstem
          520 hmoveto
          25 10 -57 callsubr
          324 vlineto
          22 -7 12 -19 -21 -6 -17 -18 vhcurveto
          -25 vlineto
          38 -40 -57 15 -55 hhcurveto
          -131 -69 -46 -150 hvcurveto
          -69 vlineto
          -150 69 -46 131 56 62 15 45 41 vhcurveto
          -43 12 28 -17 54 hhcurveto
          -253 409 rmoveto
          80 72 -28 -116 hvcurveto
          -69 vlineto
          -116 -72 -28 -80 -111 -37 28 116 vhcurveto
          69 vlineto
          116 37 28 111 vhcurveto
          48 340 rmoveto
          -17 -7 -13 -12 -4 hvcurveto
          -44 -157 rlineto
          -1 -3 -1 -5 -4 vvcurveto
          -22 13 -14 15 12 9 14 21 4 vhcurveto
          45 157 rlineto
          1 4 0 5 2 vvcurveto
          22 -14 5 -11 vhcurveto
          endchar
        </CharString>
        <CharString name="amacron">
          -61 callsubr
          61 53 hstem
          60 52 4 310 4 52 cntrmask 00001110
          116 549 rmoveto
          -93 callgsubr
          167 -306 rmoveto
          147 -15 hlineto
          -113 -57 -63 -113 vhcurveto
          -93 hlineto
          -27 -28 31 35 -67 callsubr
          hvcurveto
          52 vmoveto
          -138 -85 -28 -144 -76 46 -47 61 hvcurveto
          93 hlineto
          68 63 20 43 39 hvcurveto
          -35 vlineto
          -18 5 -17 21 -33 callgsubr
          308 vlineto
          90 -20 36 -80 vhcurveto
          -155 hlineto
          -93 -74 -31 -81 -25 10 -10 15 22 5 14 21 45 49 15 73 -19 callgsubr
          44 11 -17 -40 hvcurveto
          -57 vlineto
          endchar
        </CharString>
        <CharString name="ampersand">
          -53 -14 52 562 52 hstemhm
          39 52 -27 54 303 51 hintmask 00000000
          hintmask 11011000
          386 528 rmoveto
          15 -52 109 -91 -81 -98 -68 -108 -32 15 -34 33 -40 vhcurveto
          11 -13 rlineto
          hintmask 11101000
          -61 -43 -23 -74 -58 vvcurveto
          -146 125 -50 84 48 53 20 39 44 vhcurveto
          35 -41 rlineto
          -11 10 11 -5 9 hhcurveto
          8 14 5 18 6 -1 8 -6 7 hvcurveto
          -46 52 rlineto
          27 38 18 48 57 vvcurveto
          23 -6 13 -18 -22 -5 -16 -20 -40 -11 -35 -18 -27 vhcurveto
          -236 272 rlineto
          hintmask 11011000
          -28 32 -10 27 20 vvcurveto
          80 67 44 57 vhcurveto
          75 7 -97 36 hhcurveto
          15 11 12 13 hvcurveto
          -27 -444 rmoveto
          -30 -34 -42 -16 -35 hhcurveto
          hintmask 11101000
          -66 -91 33 111 47 17 59 49 31 hvcurveto
          endchar
        </CharString>
        <CharString name="anoteleia">
          -319 346 82 hstem
          70 102 vstem
          121 428 rmoveto
          6 callgsubr
        </CharString>
        <CharString name="aogonek">
          -7 -204 50 154 -44 callgsubr
          hstem
          60 52 248 52 18 52 vstem
          283 295 rmoveto
          -138 -85 -28 -144 -76 46 -47 61 hvcurveto
          93 hlineto
          68 63 20 43 39 hvcurveto
          -34 vlineto
          -28 -32 -42 -62 -35 -72 callgsubr
          -34 -8 27 27 16 22 59 35 21 hvcurveto
          11 7 2 11 13 vvcurveto
          308 vlineto
          90 -20 36 -80 vhcurveto
          -155 hlineto
          -93 -74 -31 -81 -25 10 -10 15 22 5 14 21 45 49 15 73 -19 callgsubr
          44 11 -17 -40 hvcurveto
          -57 vlineto
          -147 -52 rmoveto
          147 -15 hlineto
          -113 -57 -63 -113 vhcurveto
          -93 hlineto
          -27 -28 31 35 -67 callsubr
          hvcurveto
          endchar
        </CharString>
        <CharString name="approxequal">
          -24 254 56 -16 56 24 -31 callsubr
          hintmask 00000000
          hintmask 00100000
          430 471 rmoveto
          -31 -14 -41 -38 hhcurveto
          hintmask 00010000
          -32 -80 40 -48 hhcurveto
          -34 -72 -46 -27 -17 20 -7 12 hvcurveto
          31 15 41 38 hhcurveto
          hintmask 00100000
          32 79 -40 48 hhcurveto
          35 73 47 27 16 -20 7 -14 hvcurveto
          hintmask 10000000
          -120 vmoveto
          -8 callsubr
        </CharString>
        <CharString name="aring">
          -61 callsubr
          56 37 88 37 hstem
          60 52 79 37 88 37 77 52 vstem
          283 243 rmoveto
          147 -15 hlineto
          -113 -57 -63 -113 vhcurveto
          -93 hlineto
          -27 -28 31 35 -67 callsubr
          hvcurveto
          52 vmoveto
          -138 -85 -28 -144 -76 46 -47 61 hvcurveto
          93 hlineto
          68 63 20 43 39 hvcurveto
          -35 vlineto
          -18 5 -17 21 -33 callgsubr
          308 vlineto
          90 -20 36 -80 vhcurveto
          -155 hlineto
          -93 -74 -31 -81 -25 10 -10 15 22 5 14 21 45 49 15 73 -19 callgsubr
          44 11 -17 -40 hvcurveto
          -57 vlineto
          -202 303 -79 callgsubr
        </CharString>
        <CharString name="asciicircum">
          -118 360 281 hstem
          80 52 179 52 vstem
          222 581 rmoveto
          89 -200 rlineto
          -16 8 9 -5 12 hhcurveto
          13 10 8 15 5 0 3 -2 4 hvcurveto
          -109 246 rlineto
          -60 hlineto
          -110 -246 rlineto
          -1 -4 -1 -3 -5 vvcurveto
          -14 10 -9 13 11 9 4 17 9 vhcurveto
          endchar
        </CharString>
        <CharString name="asciitilde">
          -136 178 -31 callsubr
          71 282 98 callsubr
          266 234 -85 callgsubr
          hintmask 01100000
          -106 callgsubr
          hintmask 10100000
          -105 callgsubr
          endchar
        </CharString>
        <CharString name="asterisk">
          -164 341 300 hstem
          172 52 vstem
          307 404 rmoveto
          19 6 20 5 11 -8 8 -11 7 hvcurveto
          -62 37 62 35 rlineto
          11 7 8 8 11 vvcurveto
          10 -9 15 -16 -8 -10 -5 -1 -2 vhcurveto
          -63 -36 rlineto
          72 vlineto
          60 callgsubr
          -72 vlineto
          -63 36 rlineto
          1 -2 -10 5 -8 hhcurveto
          -19 -5 -20 -5 -10 7 -9 11 -7 hvcurveto
          63 -35 -63 -37 rlineto
          -11 -7 -7 -9 -10 vvcurveto
          -11 10 -14 14 8 10 5 1 2 vhcurveto
          63 36 rlineto
          -72 vlineto
          -29 16 -4 10 10 16 4 29 vhcurveto
          72 vlineto
          63 -36 rlineto
          -1 2 10 -5 8 hhcurveto
          endchar
        </CharString>
        <CharString name="at">
          32 -5 52 138 52 189 52 111 52 hstem
          70 52 53 52 149 52 45 52 vstem
          283 -5 rmoveto
          -11 callgsubr
          90 11 58 53 26 -11 10 -16 -20 -5 -16 -17 -48 -15 -14 -41 hvcurveto
          -134 hlineto
          -109 -52 74 120 hvcurveto
          154 vlineto
          120 52 74 109 vhcurveto
          29 hlineto
          108 53 -74 -120 -111 -14 -23 -41 -11 hvcurveto
          7 22 3 27 33 vvcurveto
          99 -25 47 -102 -101 -25 -47 -99 -100 25 -47 101 213 11 84 126 155 -85 91 -128 vhcurveto
          -29 hlineto
          -128 -85 -91 -155 hvcurveto
          -154 vlineto
          -155 85 -91 128 vhcurveto
          18 242 rmoveto
          -67 -7 22 73 72 7 22 67 68 7 -23 -71 -72 -7 -23 -68 hvcurveto
          endchar
        </CharString>
        <CharString name="atilde">
          -61 callsubr
          57 -31 callsubr
          60 52 19 282 17 -48 callsubr
          hintmask 11100101
          283 243 rmoveto
          147 -15 hlineto
          -113 -57 -63 -113 vhcurveto
          -93 hlineto
          -27 -28 31 35 -67 callsubr
          hvcurveto
          52 vmoveto
          -138 -85 -28 -144 -76 46 -47 61 hvcurveto
          93 hlineto
          68 63 20 43 39 hvcurveto
          -35 vlineto
          -18 5 -17 21 -33 callgsubr
          308 vlineto
          90 -20 36 -80 vhcurveto
          -155 hlineto
          -93 -74 -31 -81 -25 10 -10 15 22 5 14 21 45 49 15 73 -19 callgsubr
          44 11 -17 -40 hvcurveto
          -57 vlineto
          hintmask 00010010
          -104 279 -81 callgsubr
          endchar
        </CharString>
        <CharString name="b">
          55 callgsubr
          127 398 rmoveto
          209 vlineto
          -43 callgsubr
          -580 vlineto
          -18 -21 callgsubr
          19 7 12 23 vhcurveto
          35 vlineto
          -43 40 62 -20 69 hhcurveto
          29 hlineto
          8 callsubr
          -29 hlineto
          -69 -62 64 callsubr
          171 11 rmoveto
          29 hlineto
          120 -64 callgsubr
          47 callgsubr
          -120 vhcurveto
          -29 hlineto
          -114 -57 62 114 hvcurveto
          4 vlineto
          115 57 62 114 vhcurveto
          endchar
        </CharString>
        <CharString name="backslash">
          -202 43 52 169 52 vstem
          95 627 rmoveto
          17 -6 -10 6 -10 hhcurveto
          -8 -18 -5 -19 -5 1 -6 2 -7 hvcurveto
          218 -598 rlineto
          -17 6 9 -6 10 hhcurveto
          9 18 5 19 5 -1 5 -2 8 hvcurveto
          endchar
        </CharString>
        <CharString name="bakayahli">
          34 -17 52 92 52 235 52 hstem
          74 52 207 52 91 52 vstem
          99 -12 rmoveto
          22 5 14 21 hvcurveto
          107 vlineto
          212 284 rlineto
          83 hlineto
          40 callgsubr
          -175 -48 vlineto
          -54 -41 -43 -48 -62 34 -43 61 80 20 36 93 hvcurveto
          225 vlineto
          -28 callsubr
          -110 hlineto
          -192 -255 rlineto
          227 -46 callgsubr
          -415 vlineto
          -25 10 -10 15 vhcurveto
          377 139 rmoveto
          -33 vlineto
          -42 -15 -17 -33 -24 -19 19 34 17 19 22 24 vhcurveto
          endchar
        </CharString>
        <CharString name="bar">
          -347 -52 callgsubr
          hstem
          81 52 vstem
          133 25 -93 callsubr
          endchar
        </CharString>
        <CharString name="becyrillic">
          46 0 -46 callsubr
          123 52 hstem
          71 24 callgsubr
          329 409 rmoveto
          114 -64 callgsubr
          47 callgsubr
          -120 vhcurveto
          -30 -76 callgsubr
          232 vlineto
          1 52 rmoveto
          120 2 89 3 242 hhcurveto
          20 16 5 19 22 -16 6 -20 -259 -127 -13 -168 hvcurveto
          -278 vlineto
          -151 84 -26 138 vhcurveto
          30 hlineto
          138 -77 callsubr
          150 62 callsubr
          endchar
        </CharString>
        <CharString name="beta">
          -75 -7 50 283 51 207 52 hstemhm
          75 52 214 52 -7 88 callgsubr
          127 47 rmoveto
          -25 26 43 -29 71 hhcurveto
          71 100 22 164 50 -16 95 -102 31 hvcurveto
          hintmask 11111000
          44 29 29 47 61 vvcurveto
          86 -65 58 -93 -76 -83 -24 -151 -1 vhcurveto
          -572 27 callgsubr
          572 vmoveto
          113 43 10 65 54 52 -31 -59 -47 -18 -70 -126 vhcurveto
          -51 vlineto
          hintmask 11110100
          149 40 -72 -74 -137 -84 0 -37 -61 -49 47 34 -28 hvcurveto
          endchar
        </CharString>
        <CharString name="braceleft">
          -299 75 callsubr
          hstemhm
          83 52 -24 -48 callsubr
          hintmask 11010000
          163 236 rmoveto
          37 -51 33 -20 11 vhcurveto
          20 12 51 34 37 vvcurveto
          hintmask 11100000
          46 -28 57 25 vvcurveto
          92 8 11 70 vhcurveto
          52 vlineto
          -84 -46 -19 -136 hvcurveto
          hintmask 11010000
          -37 28 -56 -35 vvcurveto
          -34 -58 -37 -15 -8 vhcurveto
          -8 vlineto
          14 -7 59 -36 -34 vvcurveto
          hintmask 11100000
          -35 -28 -56 -37 vvcurveto
          -136 46 -19 84 vhcurveto
          52 vlineto
          -70 -8 10 93 hvcurveto
          26 28 56 46 vvcurveto
          endchar
        </CharString>
        <CharString name="braceright">
          -299 75 callsubr
          hstemhm
          99 52 -24 -48 callsubr
          hintmask 11100000
          99 236 rmoveto
          hintmask 11010000
          -46 28 -56 -26 vvcurveto
          -93 -8 -10 -70 vhcurveto
          -52 vlineto
          84 46 19 136 hvcurveto
          hintmask 11100000
          37 -28 56 35 vvcurveto
          34 59 36 14 7 vhcurveto
          8 vlineto
          -15 8 -58 37 34 vvcurveto
          hintmask 11010000
          35 28 56 37 vvcurveto
          136 -46 19 -84 vhcurveto
          -52 vlineto
          70 8 -11 -92 hvcurveto
          hintmask 11100000
          -25 -28 -57 -46 vvcurveto
          -37 51 -34 20 -12 vhcurveto
          -20 -11 -51 -33 -37 vvcurveto
          endchar
        </CharString>
        <CharString name="bracketleft">
          -306 75 callsubr
          hstemhm
          80 52 -52 130 hintmask 00000000
          hintmask 11100000
          132 631 rmoveto
          hintmask 11010000
          78 52 -130 -730 130 52 hlineto
          hintmask 11100000
          -78 hlineto
          endchar
        </CharString>
        <CharString name="bracketright">
          -306 75 callsubr
          hstemhm
          45 130 -52 -48 callsubr
          hintmask 11010000
          123 5 rmoveto
          hintmask 11100000
          -78 -52 130 730 -130 -52 hlineto
          hintmask 11010000
          78 hlineto
          endchar
        </CharString>
        <CharString name="breve">
          -135 601 54 hstem
          93 67 callgsubr
          vstem
          213 601 -95 callgsubr
          endchar
        </CharString>
        <CharString name="breve.acute">
          86 callgsubr
          44 132 -42 53 hintmask 00000000
          hintmask 01010000
          261 756 -103 callgsubr
          hintmask 10101000
          -27 -115 -95 callgsubr
          endchar
        </CharString>
        <CharString name="breve.grave">
          86 callgsubr
          -41 132 43 53 hintmask 00000000
          hintmask 01010000
          82 805 -101 callsubr
          hintmask 10101000
          82 -233 -95 callgsubr
          endchar
        </CharString>
        <CharString name="breve.hook">
          -241 572 54 160 42 hstemhm
          44 53 10 -32 callgsubr
          -8 53 hintmask 00000000
          hintmask 01010100
          149 770 -82 callgsubr
          hintmask 01001100
          -98 callgsubr
          hintmask 01010100
          -87 callgsubr
          hintmask 10100010
          15 -198 -95 callgsubr
          endchar
        </CharString>
        <CharString name="breve.tilde">
          -199 572 54 101 -31 callsubr
          45 282 -264 67 callgsubr
          hintmask 00000000
          hintmask 01010000
          240 783 -85 callgsubr
          hintmask 00110000
          -106 callgsubr
          hintmask 01010000
          -105 callgsubr
          hintmask 10001100
          -57 -211 -95 callgsubr
          endchar
        </CharString>
        <CharString name="brokenbar">
          -348 81 51 vstem
          107 648 rmoveto
          -21 -5 -15 -17 hvcurveto
          -215 vlineto
          -20 8 -13 16 17 10 12 21 vhcurveto
          215 vlineto
          27 -15 5 -10 vhcurveto
          -380 vmoveto
          -16 -10 -9 -22 hvcurveto
          -215 vlineto
          -28 14 -6 10 17 10 12 22 vhcurveto
          215 vlineto
          26 -15 5 -10 vhcurveto
          endchar
        </CharString>
        <CharString name="bullet">
          -169 118 280 hstem
          56 280 vstem
          196 398 rmoveto
          -78 -62 -62 -78 -78 62 -62 78 78 62 62 78 78 -62 62 -78 hvcurveto
          endchar
        </CharString>
        <CharString name="c">
          23 0 callsubr
          62 15 callgsubr
          426 hmoveto
          -88 callsubr
          endchar
        </CharString>
        <CharString name="cacute">
          23 0 -46 callsubr
          66 callsubr
          62 52 144 155 61 52 vstem
          426 hmoveto
          -88 callsubr
          119 -63 callgsubr
          endchar
        </CharString>
        <CharString name="cakayahli">
          43 -5 52 419 -20 60 52 73 32 callgsubr
          182 47 rmoveto
          -55 339 hlineto
          346 -391 rlineto
          56 559 hlineto
          91 -20 38 -80 vhcurveto
          -254 hlineto
          -80 -20 -38 -91 hvcurveto
          -48 129 vlineto
          23 13 10 19 19 -14 4 -22 hvcurveto
          -77 13 hlineto
          42 -16 callgsubr
          -42 hvcurveto
          -500 vlineto
          -349 395 rlineto
          -53 -471 107 hlineto
          19 17 5 20 22 -16 5 -20 hvcurveto
          endchar
        </CharString>
        <CharString name="calyakayahli">
          -205 52 148 52 hstem
          -534 -38 callgsubr
          -3 callgsubr
          endchar
        </CharString>
        <CharString name="calyaplophukayahli">
          -205 52 34 82 32 52 hstem
          -534 52 124 102 124 52 cntrmask 00011100
          -3 callgsubr
          68 -32 rmoveto
          -20 -31 -16 -25 -24 31 -17 -49 callgsubr
          17 24 25 -32 16 -19 hvcurveto
          endchar
        </CharString>
        <CharString name="caron">
          -188 522 144 hstem
          50 278 vstem
          217 -70 callgsubr
          endchar
        </CharString>
        <CharString name="ccaron">
          23 0 -46 callsubr
          61 144 hstem
          62 52 43 278 39 52 vstem
          324 -70 callgsubr
          158 -522 rmoveto
          -88 callsubr
          endchar
        </CharString>
        <CharString name="ccedilla">
          23 83 callsubr
          357 52 hstem
          62 52 154 53 16 52 85 52 vstem
          268 hmoveto
          6 -61 63 -9 -29 -71 callsubr
          56 -59 -1 -9 39 hvcurveto
          105 hlineto
          -91 callsubr
          -144 77 -30 129 -2 vhcurveto
          endchar
        </CharString>
        <CharString name="ccircumflex">
          23 0 -46 callsubr
          56 173 hstem
          62 52 33 283 44 52 vstem
          426 hmoveto
          -88 callsubr
          -132 558 -107 callgsubr
          endchar
        </CharString>
        <CharString name="cdotaccent">
          23 0 -46 callsubr
          56 82 hstem
          62 52 120 102 138 52 vstem
          426 hmoveto
          -88 callsubr
          599 4 callgsubr
        </CharString>
        <CharString name="cedilla">
          -319 -175 50 hstem
          91 52 17 52 vstem
          143 10 rmoveto
          -52 hlineto
          -70 69 -8 -31 -71 callsubr
          hvcurveto
          60 -69 -5 49 vvcurveto
          endchar
        </CharString>
        <CharString name="cent">
          -83 118 52 298 52 hstem
          49 52 117 52 99 52 vstem
          243 -12 rmoveto
          22 5 16 16 hvcurveto
          98 50 vlineto
          90 11 58 53 26 -11 10 -16 -17 -8 -11 -23 -47 -15 -14 -41 hvcurveto
          -43 298 45 hlineto
          41 13 -14 -47 -23 10 -11 17 16 9 10 26 53 -9 58 -90 hvcurveto
          -52 95 hlineto
          60 callgsubr
          -96 vlineto
          -102 -6 -67 -38 -135 vvcurveto
          -42 vlineto
          -136 64 -38 105 -6 vhcurveto
          -98 vlineto
          -27 -29 callgsubr
          vhcurveto
          -25 183 rmoveto
          -82 4 -35 22 101 vvcurveto
          42 vlineto
          99 37 24 80 4 vhcurveto
          endchar
        </CharString>
        <CharString name="checyrillic">
          28 14 -21 135 52 288 -20 hstem
          50 89 callgsubr
          180 rmoveto
          -31 hlineto
          -114 -50 11 115 hvcurveto
          128 vlineto
          30 13 callgsubr
          -19 vhcurveto
          -129 vlineto
          -151 69 callgsubr
          -163 vlineto
          -20 6 -15 -37 callsubr
          406 vlineto
          18 -5 16 -21 -19 -7 -12 -22 vhcurveto
          -75 vlineto
          -116 -57 -63 -108 vhcurveto
          endchar
        </CharString>
        <CharString name="chi">
          -44 -175 53 537 53 hstem
          430 468 rmoveto
          -11 -8 -8 -11 -7 hvcurveto
          -141 -237 -79 178 rlineto
          49 -21 -47 29 -48 hhcurveto
          75 callgsubr
          28 32 -22 -36 15 hvcurveto
          87 -193 -177 -297 rlineto
          -7 -10 0 -8 -2 vvcurveto
          -20 20 -5 7 10 9 6 13 6 vhcurveto
          159 267 91 -205 rlineto
          49 callsubr
          37 -15 hvcurveto
          -99 221 159 265 rlineto
          5 8 2 6 6 vvcurveto
          15 -16 10 -10 vhcurveto
          endchar
        </CharString>
        <CharString name="circumflex">
          -159 505 173 hstem
          60 283 vstem
          66 546 -107 callgsubr
          endchar
        </CharString>
        <CharString name="circumflex.acute">
          -129 558 12 callsubr
          45 64 callgsubr
          98 callsubr
          51 599 -107 callgsubr
          hintmask 01010000
          234 10 -103 callgsubr
          endchar
        </CharString>
        <CharString name="circumflex.grave">
          -128 558 12 callsubr
          40 76 callgsubr
          hintmask 00000000
          hintmask 10010000
          121 599 -107 callgsubr
          hintmask 01100000
          -160 59 -101 callsubr
          endchar
        </CharString>
        <CharString name="circumflex.hook">
          -133 558 63 callgsubr
          45 31 callsubr
          98 callsubr
          51 599 -107 callgsubr
          hintmask 01010100
          154 33 -23 callsubr
        </CharString>
        <CharString name="circumflex.tilde">
          -198 722 -31 callsubr
          45 283 98 callsubr
          240 778 -85 callgsubr
          hintmask 01100000
          -106 callgsubr
          hintmask 10100000
          -76 callsubr
        </CharString>
        <CharString name="colon">
          -313 39 82 271 82 hstem
          73 102 vstem
          124 121 rmoveto
          -106 callsubr
          353 4 callgsubr
        </CharString>
        <CharString name="comma">
          -351 -85 151 hstemhm
          49 47 -47 93 98 callsubr
          142 41 -95 callsubr
          hintmask 11000000
          -86 callgsubr
          endchar
        </CharString>
        <CharString name="commaturnedabovecmb">
          521 151 hstemhm
          -267 93 -47 47 hintmask 00000000
          hintmask 11000000
          -267 546 23 callgsubr
          hintmask 10100000
          56 callgsubr
          endchar
        </CharString>
        <CharString name="copyright">
          51 82 52 80 41 125 41 80 52 hstem
          79 52 75 40 126 34 75 52 vstem
          406 363 rmoveto
          23 -11 35 -44 vhcurveto
          -50 hlineto
          -48 -47 -26 -58 hvcurveto
          -39 vlineto
          -58 47 -26 48 vhcurveto
          50 hlineto
          47 8 39 19 10 -10 7 -11 -4 -5 -1 -3 -4 hvcurveto
          -11 -12 16 -19 -27 hhcurveto
          -48 hlineto
          -30 -25 15 28 hvcurveto
          39 vlineto
          28 25 15 30 vhcurveto
          48 hlineto
          14 4 -4 -15 -10 9 -5 9 10 11 6 11 hvcurveto
          -114 -281 -38 callsubr
        </CharString>
        <CharString name="currency">
          -66 82 44 209 44 hstem
          99 44 209 44 vstem
          143 230 rmoveto
          58 47 47 58 57 47 -47 -58 -57 -47 -47 -57 -58 -47 47 57 vhcurveto
          -44 hmoveto
          -31 9 -29 17 -24 vhcurveto
          -45 -45 rlineto
          -11 -12 -1 -8 -5 vvcurveto
          -16 14 -9 10 9 8 5 9 8 vhcurveto
          45 44 rlineto
          -18 25 29 -9 32 hhcurveto
          31 29 9 18 25 hvcurveto
          44 -44 rlineto
          -12 11 8 -2 5 hhcurveto
          13 13 16 10 5 -3 8 -11 11 hvcurveto
          -44 44 rlineto
          18 25 9 29 31 vvcurveto
          31 -9 30 -18 24 vhcurveto
          44 45 rlineto
          9 8 5 8 9 vvcurveto
          16 -17 8 -8 -5 -8 -1 -11 -12 vhcurveto
          -44 -45 rlineto
          18 -25 -29 9 -31 hhcurveto
          -32 -29 -9 -18 -25 hvcurveto
          -45 45 rlineto
          5 -6 -9 7 -9 hhcurveto
          -11 -14 -13 -12 -9 7 -9 5 -6 hvcurveto
          45 -45 rlineto
          -17 -24 -9 -30 -31 vvcurveto
          endchar
        </CharString>
        <CharString name="cwikayahli">
          53 -5 52 hstem
          80 121 rmoveto
          -34 108 -92 117 117 112 92 34 17 -11 8 -8 vhcurveto
          -33 -40 -99 -137 -136 -38 99 -32 hhcurveto
          -9 -10 -10 -15 hvcurveto
          endchar
        </CharString>
        <CharString name="d">
          50 0 -46 callsubr
          182 -20 hstem
          62 24 callgsubr
          484 461 -73 callgsubr
          endchar
        </CharString>
        <CharString name="dagger">
          -236 480 52 hstem
          137 51 vstem
          52 507 rmoveto
          -11 5 -16 27 vhcurveto
          53 -283 hlineto
          -16 5 -17 20 10 16 4 29 vhcurveto
          283 53 vlineto
          21 11 10 16 21 -17 5 -15 hvcurveto
          -53 84 hlineto
          93 callsubr
          -42 callgsubr
          vhcurveto
          -84 -53 vlineto
          -27 -5 -15 -10 hvcurveto
          endchar
        </CharString>
        <CharString name="daggerdbl">
          -220 279 52 149 52 hstem
          145 51 vstem
          249 331 rmoveto
          -53 149 53 hlineto
          21 11 10 16 21 -17 5 -15 hvcurveto
          -53 84 hlineto
          93 callsubr
          -42 callgsubr
          vhcurveto
          -84 -53 vlineto
          -27 -5 -15 -10 -11 5 -16 27 hvcurveto
          53 -149 -53 hlineto
          -21 -11 -10 -16 -21 17 -5 15 hvcurveto
          53 -84 hlineto
          -16 5 -17 20 10 16 4 29 vhcurveto
          84 53 vlineto
          27 5 15 10 11 -5 16 -27 hvcurveto
          endchar
        </CharString>
        <CharString name="dakayahli">
          -68 callsubr
        </CharString>
        <CharString name="dcaron">
          50 0 -46 callsubr
          36 151 -25 20 hstemhm
          62 52 370 52 27 21 callgsubr
          hintmask 11011100
          484 461 -73 callgsubr
          hintmask 00100001
          372 214 -95 callsubr
          hintmask 00100010
          -86 callgsubr
          endchar
        </CharString>
        <CharString name="dcroat">
          88 callsubr
          53 78 -20 hstem
          62 24 callgsubr
          484 409 rmoveto
          -181 vlineto
          -114 -57 -62 -114 vhcurveto
          -29 hlineto
          -120 -88 callgsubr
          120 vhcurveto
          -23 130 61 callsubr
          192 -51 -200 hlineto
          -138 16 callgsubr
          -79 callsubr
          138 vhcurveto
          29 hlineto
          69 62 20 43 40 hvcurveto
          -35 vlineto
          -23 7 -12 19 -33 callgsubr
          485 1 vlineto
          -20 callsubr
          18 -13 10 -21 hvcurveto
          -1 42 hlineto
          20 -5 16 -19 -22 -6 -16 -20 vhcurveto
          -42 -192 vlineto
          -27 callgsubr
          hvcurveto
          endchar
        </CharString>
        <CharString name="decyrillic">
          -2 0 callsubr
          13 52 109 53 159 53 42 52 vstem
          65 28 callgsubr
          -43 409 -265 hlineto
          -211 -62 -134 -38 -64 vhcurveto
          -10 hlineto
          -31 -20 -16 -41 hvcurveto
          -52 -26 callgsubr
          321 109 rmoveto
          -254 hlineto
          37 64 57 124 1 169 rrcurveto
          159 hlineto
          endchar
        </CharString>
        <CharString name="degree">
          -158 386 51 195 51 hstem
          53 51 195 51 vstem
          104 535 rmoveto
          53 44 44 53 54 44 -44 -53 -54 -44 -44 -54 -53 -44 44 54 vhcurveto
          97 148 rmoveto
          -81 -67 -67 -81 -82 67 -67 81 82 67 67 82 81 -67 67 -82 hvcurveto
          endchar
        </CharString>
        <CharString name="delta">
          4 -7 53 363 52 123 53 hstem
          45 53 363 53 vstem
          111 586 rmoveto
          89 -34 50 -19 70 -31 50 -56 rlinecurve
          10 -24 -30 5 -28 hhcurveto
          -96 -147 -69 -154 -112 72 -133 165 140 92 80 132 169 -76 138 -192 72 hvcurveto
          203 51 callsubr
          -323 hlineto
          -27 callgsubr
          -17 9 -5 7 -3 hvcurveto
          175 -540 rmoveto
          -121 -67 90 96 125 118 52 74 109 62 -84 -117 -98 -59 -64 -116 hvcurveto
          endchar
        </CharString>
        <CharString name="dieresis">
          -194 589 82 hstem
          60 102 44 102 vstem
          111 671 rmoveto
          -106 callsubr
          146 hmoveto
          6 callgsubr
        </CharString>
        <CharString name="dieresistonos">
          -178 505 82 -3 230 hstemhm
          48 102 3 99 -58 102 hintmask 00000000
          hintmask 10101000
          99 587 rmoveto
          -106 callsubr
          146 -94 callgsubr
          hintmask 01010000
          -9 callsubr
          endchar
        </CharString>
        <CharString name="divide">
          -122 87 82 35 53 35 82 hstemhm
          64 310 -210 102 hintmask 00000000
          hintmask 01010000
          64 231 rmoveto
          -93 callgsubr
          hintmask 10001000
          151 -62 rmoveto
          -106 callsubr
          hintmask 00101000
          205 4 callgsubr
        </CharString>
        <CharString name="djecyrillic">
          59 -205 52 167 79 callgsubr
          39 53 90 74 callsubr
          75 553 rmoveto
          -23 -15 -10 -15 -18 15 -10 23 hvcurveto
          -473 vlineto
          -18 -21 callgsubr
          19 7 12 22 vhcurveto
          204 vlineto
          115 58 63 113 vhcurveto
          29 hlineto
          120 50 -11 -114 hvcurveto
          -377 vlineto
          -42 -11 -18 -44 -27 -11 -10 -16 -21 17 -5 21 59 48 11 118 vhcurveto
          360 vlineto
          151 -56 callsubr
          -29 hlineto
          -68 -63 64 callsubr
          102 210 vlineto
          23 15 10 15 18 -15 10 -23 hvcurveto
          -210 54 hlineto
          -43 callgsubr
          endchar
        </CharString>
        <CharString name="dollar">
          26 14 -21 96 53 callgsubr
          148 52 90 -20 hstem
          61 52 159 52 151 52 vstem
          161 89 rmoveto
          111 -65 hlineto
          -26 -29 callgsubr
          23 4 16 16 vhcurveto
          65 75 vlineto
          95 33 49 77 67 -26 70 -102 hvcurveto
          -75 148 94 hlineto
          40 15 -12 -48 -28 16 -4 10 -23 callgsubr
          54 -10 57 -90 hvcurveto
          -101 57 hlineto
          28 -15 4 -11 -11 -15 -4 -29 vhcurveto
          -57 -82 vlineto
          -98 -31 -47 -74 -72 31 -59 98 hvcurveto
          82 -160 -104 hlineto
          -40 -15 13 48 22 -8 10 -18 -21 -5 -16 -18 -54 10 -57 90 hvcurveto
          255 212 rmoveto
          35 24 -36 -51 -44 -16 -29 -43 hvcurveto
          -92 160 hlineto
          -152 52 rmoveto
          -33 -26 27 54 52 24 15 35 hvcurveto
          100 -148 hlineto
          endchar
        </CharString>
        <CharString name="dotaccent">
          -340 589 82 hstem
          60 102 vstem
          111 671 rmoveto
          6 callgsubr
        </CharString>
        <CharString name="dotbelowcomb">
          -139 44 callgsubr
          -57 rmoveto
          -20 -31 -16 -25 -24 31 -17 -49 callgsubr
          17 24 25 -32 16 -19 hvcurveto
          endchar
        </CharString>
        <CharString name="dotlessi">
          33 callsubr
          hstem
          74 52 vstem
          99 -12 rmoveto
          -90 callsubr
          endchar
        </CharString>
        <CharString name="dzecyrillic">
          7 callgsubr
          hstem
          60 52 362 -52 callsubr
          endchar
        </CharString>
        <CharString name="dzhecyrillic">
          43 48 callgsubr
          75 52 149 52 149 52 cntrmask 00111000
          276 -57 rmoveto
          -18 4 -17 22 20 6 12 23 vhcurveto
          57 201 434 vlineto
          38 callgsubr
          -350 382 vlineto
          30 13 callgsubr
          -19 vhcurveto
          -434 201 vlineto
          endchar
        </CharString>
        <CharString name="e">
          -50 callgsubr
          hstemhm
          62 52 360 52 -42 88 callgsubr
          536 285 rmoveto
          150 -56 callsubr
          -29 -102 callgsubr
          -11 callgsubr
          hintmask 11111000
          -100 callgsubr
          68 vlineto
          hintmask 11110100
          -18 callsubr
        </CharString>
        <CharString name="eacute">
          -50 callgsubr
          44 178 hstemhm
          62 52 161 155 44 52 -42 -48 callsubr
          hintmask 11101001
          536 285 rmoveto
          150 -56 callsubr
          -29 -102 callgsubr
          -11 callgsubr
          hintmask 11101010
          -100 callgsubr
          68 vlineto
          hintmask 11101001
          -94 callsubr
          hintmask 00010100
          136 226 -104 callgsubr
          endchar
        </CharString>
        <CharString name="ecaron">
          -50 callgsubr
          61 144 hstemhm
          62 52 47 278 35 52 -42 -48 callsubr
          hintmask 00010100
          328 -70 callgsubr
          hintmask 11101001
          264 -237 rmoveto
          150 -56 callsubr
          -29 -102 callgsubr
          -11 callgsubr
          hintmask 11101010
          -100 callgsubr
          68 vlineto
          hintmask 11101001
          -18 callsubr
        </CharString>
        <CharString name="ecircumflex">
          -50 callgsubr
          56 173 hstemhm
          62 52 44 283 33 52 -42 -48 callsubr
          hintmask 11101001
          536 285 rmoveto
          150 -56 callsubr
          -29 -102 callgsubr
          -11 callgsubr
          hintmask 11101010
          -100 callgsubr
          68 vlineto
          hintmask 11101001
          -94 callsubr
          hintmask 00010100
          -121 149 -107 callgsubr
          endchar
        </CharString>
        <CharString name="ecyrillic">
          22 -17 callgsubr
          62 15 callgsubr
          426 461 rmoveto
          -141 -102 callgsubr
          -11 callgsubr
          90 10 59 53 18 -5 17 -21 -42 callgsubr
          -48 -15 -14 -40 hvcurveto
          -134 hlineto
          -121 -50 10 114 hvcurveto
          36 204 vlineto
          19 17 5 19 20 -13 8 -23 hvcurveto
          -204 21 80 callgsubr
          10 121 vhcurveto
          134 hlineto
          44 11 -18 -44 -29 16 -4 10 18 8 12 24 53 93 callgsubr
          endchar
        </CharString>
        <CharString name="edieresis">
          -50 callgsubr
          56 82 hstemhm
          62 52 62 102 44 102 50 52 -42 -13 callsubr
          hintmask 1110100010000000
          536 285 rmoveto
          150 -56 callsubr
          -29 -102 callgsubr
          -11 callgsubr
          hintmask 1110100100000000
          -100 callgsubr
          68 vlineto
          hintmask 1110100010000000
          -94 callsubr
          hintmask 0001011000000000
          -58 190 rmoveto
          -106 callsubr
          146 hmoveto
          6 callgsubr
        </CharString>
        <CharString name="edotaccent">
          -50 callgsubr
          61 82 hstemhm
          62 52 135 102 123 52 -42 -48 callsubr
          hintmask 00010100
          300 604 rmoveto
          -106 callsubr
          hintmask 11101001
          236 -319 rmoveto
          150 -56 callsubr
          -29 -102 callgsubr
          -11 callgsubr
          hintmask 11101010
          -100 callgsubr
          68 vlineto
          hintmask 11101001
          -18 callsubr
        </CharString>
        <CharString name="eekayahli">
          497 52 hstem
          -457 52 195 52 vstem
          -158 614 -73 callsubr
          endchar
        </CharString>
        <CharString name="efcyrillic">
          207 0 -46 callsubr
          182 -20 hstem
          60 52 245 54 245 52 cntrmask 00011100
          656 196 rmoveto
          -64 -6 -80 -109 -104 -26 99 80 80 26 98 104 109 6 -80 -64 vhcurveto
          -544 -69 rmoveto
          69 vlineto
          64 6 80 109 104 26 -98 -80 -80 -26 -99 -104 -109 -6 80 64 vhcurveto
          299 -343 rmoveto
          209 vlineto
          -42 35 32 -20 63 hhcurveto
          101 66 54 142 hvcurveto
          69 vlineto
          142 -66 54 -101 -63 -32 -20 -42 -35 vhcurveto
          209 vlineto
          18 -6 17 -21 -21 -6 -17 -18 vhcurveto
          -209 vlineto
          42 -35 -32 20 -63 hhcurveto
          -101 -66 -54 -142 hvcurveto
          -69 vlineto
          -142 66 -54 101 63 32 20 42 35 vhcurveto
          -209 vlineto
          -18 6 -17 21 21 6 17 18 vhcurveto
          endchar
        </CharString>
        <CharString name="egrave">
          -50 callgsubr
          44 178 hstemhm
          62 52 77 155 128 52 -42 -48 callsubr
          hintmask 11101001
          536 285 rmoveto
          150 -56 callsubr
          -29 -102 callgsubr
          -11 callgsubr
          hintmask 11101010
          -100 callgsubr
          68 vlineto
          hintmask 11101001
          -94 callsubr
          hintmask 00010100
          -69 274 -99 callsubr
          endchar
        </CharString>
        <CharString name="eight">
          49 -5 52 255 52 235 52 hstem
          73 15 callgsubr
          125 174 rmoveto
          117 50 11 115 vhcurveto
          31 36 callgsubr
          -117 -117 -49 -10 -115 hvcurveto
          -31 hlineto
          -116 -49 10 117 hvcurveto
          412 hmoveto
          77 -21 48 -42 27 vhcurveto
          40 22 23 44 80 vvcurveto
          157 -88 12 -128 vhcurveto
          -31 hlineto
          -129 -88 -12 -157 -80 24 -44 40 -22 hvcurveto
          -40 -25 -24 -47 -80 vvcurveto
          -155 86 -24 131 vhcurveto
          31 hlineto
          132 84 25 154 hvcurveto
          -52 298 rmoveto
          -117 -48 -1 -116 vhcurveto
          -31 hlineto
          -117 -48 2 116 117 49 0 116 hvcurveto
          31 hlineto
          118 46 -1 -116 hvcurveto
          endchar
        </CharString>
        <CharString name="eightkayahli">
          -2 -5 52 426 -20 hstem
          72 -38 callgsubr
          426 -5 rmoveto
          80 20 37 92 30 -15 5 -10 -16 -11 -10 -25 hvcurveto
          -18 vlineto
          -69 callsubr
          332 -46 callgsubr
          -314 21 callsubr
          endchar
        </CharString>
        <CharString name="ekayahli">
          488 52 hstem
          -146 488 rmoveto
          19 5 18 8 15 -14 8 -8 3 hvcurveto
          -309 98 rlineto
          2 -6 -5 1 -5 hhcurveto
          -19 -5 -19 -8 -11 8 -10 15 -5 hvcurveto
          307 -97 rlineto
          -2 6 5 -1 6 hhcurveto
          endchar
        </CharString>
        <CharString name="elcyrillic">
          8 0 callsubr
          117 53 272 52 vstem
          494 29 rmoveto
          432 -274 vlineto
          -83 -20 -36 -90 hvcurveto
          -225 vlineto
          -41 5 callsubr
          60 48 12 114 vhcurveto
          224 vlineto
          42 11 17 47 vhcurveto
          214 -381 hlineto
          -30 -29 callgsubr
          20 7 13 23 vhcurveto
          endchar
        </CharString>
        <CharString name="ellipsis">
          -43 -12 82 hstem
          65 102 41 102 41 102 cntrmask 01110000
          402 70 rmoveto
          -106 callsubr
          -143 -94 callgsubr
          -143 hmoveto
          6 callgsubr
        </CharString>
        <CharString name="emacron">
          -50 callgsubr
          61 53 hstemhm
          62 52 31 310 19 52 -42 -48 callsubr
          hintmask 00010100
          145 549 rmoveto
          -93 callgsubr
          hintmask 11101001
          391 -264 rmoveto
          150 -56 callsubr
          -29 -102 callgsubr
          -11 callgsubr
          hintmask 11101010
          -100 callgsubr
          68 vlineto
          hintmask 11101001
          -18 callsubr
        </CharString>
        <CharString name="emcyrillic">
          72 14 -21 475 -20 hstem
          74 52 381 52 vstem
          316 104 rmoveto
          7 7 2 6 4 hvcurveto
          173 258 rlineto
          -342 vlineto
          -20 5 -15 20 19 8 11 23 vhcurveto
          406 vlineto
          20 -5 15 -20 -12 -8 -6 -13 -9 vhcurveto
          -189 -278 -188 278 rlineto
          14 -9 -9 5 -12 hhcurveto
          -19 -5 -15 -20 hvcurveto
          -406 vlineto
          -18 -21 callgsubr
          19 7 12 23 vhcurveto
          342 vlineto
          173 -258 rlineto
          -8 6 8 0 3 hhcurveto
          endchar
        </CharString>
        <CharString name="emdash">
          80 29 callgsubr
          430 51 callsubr
          -430 55 callsubr
        </CharString>
        <CharString name="encyrillic">
          42 14 -21 225 52 198 -20 hstem
          74 -38 callgsubr
          126 27 rmoveto
          191 350 -191 vlineto
          -30 16 -4 11 94 callgsubr
          vhcurveto
          406 vlineto
          20 -5 15 -22 -20 -5 -16 -19 vhcurveto
          -163 -350 163 vlineto
          20 -6 15 -22 -19 -5 -15 -20 vhcurveto
          -406 vlineto
          -18 -21 callgsubr
          19 7 12 22 vhcurveto
          endchar
        </CharString>
        <CharString name="endash">
          -37 29 callgsubr
          313 51 callsubr
          -313 55 callsubr
        </CharString>
        <CharString name="eng">
          58 -175 52 137 79 callgsubr
          hstem
          74 24 callgsubr
          297 409 rmoveto
          29 hlineto
          120 -64 callgsubr
          -284 vlineto
          -113 -50 -10 -111 -23 -13 -6 -19 -22 17 -5 19 128 85 22 153 vhcurveto
          285 vlineto
          150 -56 callsubr
          -29 hlineto
          -69 -62 -92 callsubr
          114 vhcurveto
          endchar
        </CharString>
        <CharString name="eogonek">
          31 -205 50 155 -36 callgsubr
          hstemhm
          62 52 147 52 161 52 -42 -48 callsubr
          hintmask 11111101
          314 409 rmoveto
          118 50 -11 -101 2 hvcurveto
          -370 hlineto
          101 2 50 11 119 hhcurveto
          251 -124 rmoveto
          150 -56 callsubr
          -29 -102 callgsubr
          24 hlineto
          -24 -32 -24 -42 -27 -72 callgsubr
          -34 -8 27 27 17 28 61 36 23 hvcurveto
          49 hlineto
          hintmask 11111110
          -100 callgsubr
          68 vlineto
          hintmask 11111101
          422 hlineto
          endchar
        </CharString>
        <CharString name="epsilon">
          32 -17 callgsubr
          61 52 370 -58 callsubr
          endchar
        </CharString>
        <CharString name="epsilontonos">
          32 0 53 callgsubr
          145 52 51 230 hstem
          61 52 139 99 132 -58 callsubr
          95 530 rmoveto
          -17 -7 -13 -12 -4 hvcurveto
          -44 -157 rlineto
          -1 -3 -1 -5 -4 vvcurveto
          -22 13 -14 15 12 9 14 21 4 vhcurveto
          45 157 rlineto
          1 4 0 5 2 vvcurveto
          22 -14 5 -11 vhcurveto
          endchar
        </CharString>
        <CharString name="equal">
          -93 254 53 50 53 hstem
          79 310 vstem
          79 384 rmoveto
          -93 callgsubr
          -103 vmoveto
          -93 callgsubr
          endchar
        </CharString>
        <CharString name="ercyrillic">
          50 0 52 357 52 20 callsubr
          497 284 rmoveto
          47 callgsubr
          -119 vhcurveto
          -201 180 hlineto
          115 57 62 114 vhcurveto
          29 hlineto
          120 -64 callgsubr
          52 -108 rmoveto
          109 vlineto
          150 -56 callsubr
          -29 hlineto
          -69 -62 64 callsubr
          35 90 callgsubr
          -16 -18 vhcurveto
          -581 14 callsubr
          22 6 15 20 vhcurveto
          147 201 vlineto
          137 -56 callgsubr
          endchar
        </CharString>
        <CharString name="ereversedcyrillic">
          22 -17 callgsubr
          57 15 callgsubr
          157 461 25 callsubr
          -10 -114 hvcurveto
          -21 -204 vlineto
          -23 -13 -8 -20 -19 17 -5 19 hvcurveto
          204 -36 hlineto
          -114 -50 -10 43 callgsubr
          -53 10 -59 90 -19 callgsubr
          139 -77 callsubr
          150 -84 26 -139 vhcurveto
          endchar
        </CharString>
        <CharString name="escyrillic">
          23 0 callsubr
          62 15 callgsubr
          426 hmoveto
          -88 callsubr
          endchar
        </CharString>
        <CharString name="eta">
          58 84 callgsubr
          74 24 callgsubr
          297 409 rmoveto
          29 hlineto
          120 50 -11 -115 hvcurveto
          -453 vlineto
          -31 16 -4 11 20 1 callsubr
          454 vlineto
          151 -56 callsubr
          -29 hlineto
          -69 -62 -92 callsubr
          114 vhcurveto
          endchar
        </CharString>
        <CharString name="etatonos">
          58 24 callsubr
          58 230 hstem
          74 52 166 99 105 52 vstem
          297 409 rmoveto
          29 hlineto
          120 50 -11 -115 hvcurveto
          -453 vlineto
          -31 16 -4 11 20 1 callsubr
          454 vlineto
          151 -56 callsubr
          -29 hlineto
          -69 -62 -92 callsubr
          114 vhcurveto
          69 340 rmoveto
          -17 -7 -13 -12 -4 hvcurveto
          -44 -157 rlineto
          -1 -3 -1 -5 -4 vvcurveto
          -22 13 -14 15 12 9 14 21 4 vhcurveto
          45 157 rlineto
          1 4 0 5 2 vvcurveto
          22 -14 5 -11 vhcurveto
          endchar
        </CharString>
        <CharString name="eth">
          5 -16 52 368 52 127 53 hstem
          47 15 callgsubr
          153 583 rmoveto
          24 33 -3 -12 35 hvcurveto
          -34 -32 rlineto
          -6 -6 -8 -9 -9 vvcurveto
          -15 17 -10 11 9 10 7 5 5 vhcurveto
          50 47 46 -24 46 -41 30 -64 rlinecurve
          24 -31 -42 15 -53 hhcurveto
          -143 -105 -85 -151 -150 105 -86 143 140 76 115 123 187 -73 115 -99 61 hvcurveto
          21 20 rlineto
          9 9 4 7 9 vvcurveto
          14 -15 10 -11 -10 -10 -7 -5 -6 vhcurveto
          -33 -32 rlineto
          18 -44 -46 8 -45 hhcurveto
          -15 -16 -6 -22 -10 5 -15 26 hvcurveto
          306 -362 rmoveto
          -78 -47 -107 -117 -122 -74 78 106 107 75 77 121 118 46 -92 -91 vhcurveto
          endchar
        </CharString>
        <CharString name="exclam">
          -317 -12 82 hstemhm
          71 103 -78 -48 callsubr
          hintmask 11000000
          122 -12 rmoveto
          21 31 16 25 24 -32 17 -20 -19 -32 -17 -24 -25 32 -16 19 hvcurveto
          661 vmoveto
          hintmask 10100000
          -42 callgsubr
          hvcurveto
          -419 vlineto
          -16 5 -17 20 16 11 9 24 vhcurveto
          419 vlineto
          29 -16 4 -10 vhcurveto
          endchar
        </CharString>
        <CharString name="exclamdown">
          -331 409 82 hstemhm
          63 103 -77 52 98 callsubr
          114 -170 rmoveto
          -90 callsubr
          661 vmoveto
          hintmask 11000000
          -19 -32 -16 -25 -24 32 -17 19 20 32 17 24 25 -31 16 -21 hvcurveto
          endchar
        </CharString>
        <CharString name="f">
          -238 63 callsubr
          123 52 hstem
          80 52 vstem
          293 584 -33 callsubr
        </CharString>
        <CharString name="fitacyrillic">
          25 0 52 133 52 -12 52 132 52 hstemhm
          62 52 358 -48 callsubr
          hintmask 10011100
          302 hmoveto
          8 callsubr
          -17 -102 callgsubr
          -171 254 rmoveto
          30 -6 callsubr
          17 hlineto
          120 -64 callgsubr
          -13 vlineto
          hintmask 11011100
          0 -44 -34 -34 vhcurveto
          hintmask 10111100
          -40 -111 40 -66 hhcurveto
          -34 -29 -23 0 hvcurveto
          358 -46 rmoveto
          -31 -36 callsubr
          -10 -120 vhcurveto
          -17 hlineto
          -121 -50 10 115 hvcurveto
          15 vlineto
          0 42 33 34 vhcurveto
          hintmask 11011100
          40 111 98 callgsubr
        </CharString>
        <CharString name="five">
          8 -9 52 344 52 150 52 hstem
          466 52 vstem
          88 121 rmoveto
          -9 -15 -11 -15 -48 143 -56 79 133 99 86 152 135 -111 75 -104 hvcurveto
          -176 hlineto
          6 90 rlineto
          47 4 18 13 32 hhcurveto
          257 hlineto
          27 5 15 10 22 -17 5 -15 hvcurveto
          -251 hlineto
          -76 -31 -33 -96 -7 hvcurveto
          -9 -125 rlineto
          242 hlineto
          57 97 -37 -121 -117 -64 -69 -116 hvcurveto
          -109 -71 78 -18 hhcurveto
          endchar
        </CharString>
        <CharString name="fivekayahli">
          -5 -5 77 callgsubr
          67 -38 callgsubr
          167 -5 rmoveto
          70 hlineto
          23 13 6 19 22 -17 5 -19 hvcurveto
          -63 hlineto
          36 callsubr
          16 callsubr
          295 -60 hlineto
          -18 5 -17 21 21 5 17 18 vhcurveto
          112 -354 92 callgsubr
          hvcurveto
          -213 21 callsubr
          endchar
        </CharString>
        <CharString name="florin">
          -228 -105 52 462 52 123 52 hstem
          80 56 vstem
          136 46 rmoveto
          363 144 vlineto
          20 16 5 19 22 -16 6 -20 hvcurveto
          -144 hlineto
          113 2 53 10 112 hhcurveto
          19 17 5 19 20 -13 8 -23 -130 -91 -23 -152 -2 hvcurveto
          -20 -1 -11 -7 -17 vvcurveto
          -19 14 -6 17 -1 vhcurveto
          -337 vlineto
          -118 -6 -8 -87 45 callgsubr
          100 49 20 131 vhcurveto
          endchar
        </CharString>
        <CharString name="four">
          -26 14 -21 177 52 hstem
          360 53 vstem
          469 170 rmoveto
          15 17 5 21 21 -17 5 -15 hvcurveto
          -56 419 -66 hlineto
          -314 -408 rlineto
          -63 327 -146 vlineto
          -20 11 -11 16 21 77 callsubr
          146 vlineto
          -328 52 rmoveto
          275 357 rlineto
          -357 vlineto
          endchar
        </CharString>
        <CharString name="fourkayahli">
          41 -205 52 148 52 367 32 callgsubr
          477 354 rmoveto
          -447 vlineto
          -42 -11 -18 -44 -26 -10 -10 -16 -21 16 -5 20 59 48 11 118 vhcurveto
          413 vlineto
          -28 callsubr
          -141 hlineto
          -62 -59 64 callsubr
          35 -46 callgsubr
          -443 107 vlineto
          24 12 7 18 22 -16 5 -20 hvcurveto
          -55 185 hlineto
          118 57 64 104 vhcurveto
          134 hlineto
          40 callgsubr
          endchar
        </CharString>
        <CharString name="foursuperior">
          -262 557 43 hstem
          160 44 vstem
          204 557 -47 callsubr
          endchar
        </CharString>
        <CharString name="fraction">
          -335 345 519 -66 callgsubr
          endchar
        </CharString>
        <CharString name="g">
          50 -205 52 153 -46 callsubr
          hstem
          62 24 callgsubr
          -63 callsubr
          endchar
        </CharString>
        <CharString name="gakayahli">
          41 -5 52 117 52 198 32 callgsubr
          182 47 rmoveto
          -55 117 350 -117 -55 hlineto
          -19 -17 -5 -22 -18 13 -7 23 hvcurveto
          107 44 callsubr
          -118 hlineto
          -184 -223 rlineto
          195 -46 callgsubr
          -443 107 vlineto
          24 12 7 18 22 -16 5 -20 hvcurveto
          -13 169 rmoveto
          162 198 rlineto
          91 hlineto
          40 callgsubr
          -138 vlineto
          endchar
        </CharString>
        <CharString name="gamma">
          -36 409 52 hstem
          231 54 161 52 vstem
          56 409 rmoveto
          40 34 -102 -334 101 hvcurveto
          -120 vlineto
          -20 5 -15 20 23 6 15 20 vhcurveto
          121 vlineto
          210 459 rlineto
          2 5 1 2 5 vvcurveto
          14 -12 9 -12 -11 -9 -5 -16 -8 vhcurveto
          -183 -401 rlineto
          360 -110 -6 55 -91 hhcurveto
          -29 -4 -16 -10 -10 4 -16 29 hvcurveto
          endchar
        </CharString>
        <CharString name="gbreve">
          50 -205 52 153 -46 callsubr
          68 54 hstem
          62 52 49 67 callgsubr
          81 52 vstem
          283 529 -95 callgsubr
          253 -616 5 callgsubr
          -23 vhcurveto
          -35 vlineto
          43 -40 -62 20 -69 hhcurveto
          -29 hlineto
          -138 16 callgsubr
          -79 callsubr
          138 vhcurveto
          200 -103 hlineto
          -39 -7 -11 -39 vhcurveto
          -269 hlineto
          -40 -15 14 48 22 -8 11 -18 -54 callsubr
          hvcurveto
          283 hlineto
          73 18 35 83 hvcurveto
          -52 139 rmoveto
          -200 hlineto
          -120 -88 callgsubr
          120 vhcurveto
          29 hlineto
          114 57 -62 -114 hvcurveto
          endchar
        </CharString>
        <CharString name="gcircumflex">
          50 -205 52 153 -46 callsubr
          63 173 hstem
          62 52 44 283 43 52 vstem
          -63 callsubr
          -320 332 -107 callgsubr
          endchar
        </CharString>
        <CharString name="gcommaaccent">
          50 -205 52 153 -46 callsubr
          68 151 hstemhm
          62 52 158 93 -47 47 119 -48 callsubr
          hintmask 00010100
          272 554 23 callgsubr
          hintmask 00010010
          56 callgsubr
          hintmask 11101001
          264 -641 5 callgsubr
          -23 vhcurveto
          -35 vlineto
          43 -40 -62 20 -69 hhcurveto
          -29 hlineto
          -138 16 callgsubr
          -79 callsubr
          138 vhcurveto
          200 -103 hlineto
          -39 -7 -11 -39 vhcurveto
          -269 hlineto
          -40 -15 14 48 22 -8 11 -18 -54 callsubr
          hvcurveto
          283 hlineto
          73 18 35 83 hvcurveto
          -52 139 rmoveto
          -200 hlineto
          -120 -88 callgsubr
          120 vhcurveto
          29 hlineto
          114 57 -62 -114 hvcurveto
          endchar
        </CharString>
        <CharString name="gdotaccent">
          50 -205 52 153 -46 callsubr
          63 82 hstem
          62 52 134 102 134 52 cntrmask 00001110
          -63 callsubr
          -185 373 rmoveto
          6 callgsubr
        </CharString>
        <CharString name="gecyrillic">
          -82 84 callgsubr
          73 52 vstem
          180 409 rmoveto
          247 hlineto
          18 17 5 21 21 -17 5 -18 hvcurveto
          -254 hlineto
          -18 callgsubr
        </CharString>
        <CharString name="germandbls">
          -97 -20 52 -18 -21 360 51 180 52 hstemhm
          32 83 -52 52 37 56 98 52 16 -13 callsubr
          hintmask 1011011110000000
          163 353 rmoveto
          174 37 -94 -62 -140 -53 -25 -37 -32 -44 12 49 23 -9 11 -19 -17 -11 -10 -26 -77 73 -34 50 69 82 44 172 84 -39 73 -103 30 hvcurveto
          45 29 29 47 61 vvcurveto
          56 -41 60 -92 -77 -82 -24 -151 -3 vhcurveto
          hintmask 0111101110000000
          -20 -1 -11 -7 -16 vvcurveto
          hintmask 0111011110000000
          -20 13 -6 18 -1 vhcurveto
          -381 27 callgsubr
          432 vlineto
          113 43 10 67 52 29 -25 -37 -47 -19 -71 -124 vhcurveto
          endchar
        </CharString>
        <CharString name="gheupturncyrillic">
          -79 84 callgsubr
          73 52 285 52 vstem
          180 409 rmoveto
          282 129 hlineto
          30 -15 5 -10 -16 -11 -10 -25 vhcurveto
          -77 -237 vlineto
          -18 callgsubr
        </CharString>
        <CharString name="gjecyrillic">
          -82 24 callsubr
          66 callsubr
          73 52 111 155 vstem
          382 -63 callgsubr
          -106 -111 rmoveto
          247 hlineto
          18 17 5 21 21 -17 5 -18 hvcurveto
          -254 hlineto
          -18 callgsubr
        </CharString>
        <CharString name="grave">
          85 callsubr
          54 683 -99 callsubr
          endchar
        </CharString>
        <CharString name="gravecomb">
          505 131 hstem
          -375 132 vstem
          -349 636 -101 callsubr
          endchar
        </CharString>
        <CharString name="greater">
          -31 94 89 rmoveto
          6 7 2 5 8 hvcurveto
          364 210 rlineto
          15 9 3 13 5 vvcurveto
          10 -6 8 -12 7 vhcurveto
          -364 210 rlineto
          5 -7 -7 1 -6 hhcurveto
          -14 -11 -9 -14 -11 11 -13 8 -4 hvcurveto
          331 -190 -330 -192 rlineto
          -12 -6 -8 -8 -11 vvcurveto
          -5 5 -22 19 vhcurveto
          endchar
        </CharString>
        <CharString name="greaterequal">
          1 0 53 34 53 212 54 hstem
          101 140 rmoveto
          -14 -5 -10 -10 -13 vvcurveto
          -11 6 -14 20 3 6 1 2 8 vhcurveto
          355 129 rlineto
          4 2 17 8 17 vvcurveto
          11 -7 11 -14 6 vhcurveto
          -355 129 rlineto
          2 -6 -5 1 -6 hhcurveto
          -16 -11 -13 -13 -11 9 -11 16 -6 hvcurveto
          292 -106 rlineto
          72 -193 rmoveto
          -355 hlineto
          -21 -13 -10 -18 -15 14 -10 20 hvcurveto
          355 hlineto
          15 16 6 22 10 -5 15 -26 hvcurveto
          endchar
        </CharString>
        <CharString name="guillemotleft">
          -58 36 243 -89 243 hintmask 00000000
          hintmask 01000000
          208 358 -65 callsubr
          hintmask 10000000
          -336 -169 -65 callsubr
          endchar
        </CharString>
        <CharString name="guillemotright">
          -58 70 243 -89 243 hintmask 00000000
          hintmask 01000000
          449 358 rmoveto
          -66 callsubr
          hintmask 10000000
          -154 hmoveto
          -66 callsubr
          endchar
        </CharString>
        <CharString name="guilsinglleft">
          -212 36 243 vstem
          54 358 -65 callsubr
          endchar
        </CharString>
        <CharString name="guilsinglright">
          -212 70 243 vstem
          295 358 rmoveto
          -66 callsubr
          endchar
        </CharString>
        <CharString name="h">
          58 14 -21 416 86 callsubr
          298 -3 callsubr
          209 vlineto
          -43 callgsubr
          -580 vlineto
          -18 -21 callgsubr
          19 7 12 22 vhcurveto
          204 vlineto
          115 57 63 114 vhcurveto
          endchar
        </CharString>
        <CharString name="hakayahli">
          41 -205 52 148 77 callgsubr
          73 52 89 52 209 52 vstem
          125 106 rmoveto
          52 vlineto
          59 38 82 69 71 vvcurveto
          130 -193 -342 21 callsubr
          111 hlineto
          191 253 rlineto
          -341 vlineto
          -42 -11 -18 -44 -31 -5 -15 -10 -20 13 -7 23 64 43 13 116 vhcurveto
          512 vlineto
          32 -15 5 -10 -16 -11 -10 -27 vhcurveto
          -105 vlineto
          -213 -284 rlineto
          -82 71 callgsubr
          vmoveto
          89 -78 hlineto
          -35 -50 -60 -39 -22 vhcurveto
          endchar
        </CharString>
        <CharString name="hardsigncyrillic">
          28 -17 callgsubr
          159 52 291 52 vstem
          380 52 rmoveto
          -169 160 169 hlineto
          38 callsubr
          -221 -52 rmoveto
          228 hlineto
          82 85 27 105 105 -96 27 -73 hvcurveto
          -174 197 80 callsubr
          96 hlineto
          endchar
        </CharString>
        <CharString name="hbar">
          58 24 callsubr
          39 53 70 20 20 callsubr
          75 553 rmoveto
          -23 -15 -10 -15 -18 15 -10 23 hvcurveto
          -473 vlineto
          -18 -21 callgsubr
          19 7 12 22 vhcurveto
          204 vlineto
          115 58 63 113 vhcurveto
          -53 callgsubr
          -68 -63 64 callsubr
          102 210 vlineto
          23 15 10 15 18 -15 10 -23 hvcurveto
          -210 54 hlineto
          -43 callgsubr
          endchar
        </CharString>
        <CharString name="hcircumflex">
          58 24 callsubr
          162 20 3 173 hstem
          75 52 44 283 43 52 vstem
          298 -3 callsubr
          209 vlineto
          -43 callgsubr
          -580 vlineto
          -18 -21 callgsubr
          19 7 12 22 vhcurveto
          204 vlineto
          115 57 63 114 vhcurveto
          -121 278 -107 callgsubr
          endchar
        </CharString>
        <CharString name="hookabovecomb">
          608 42 hstemhm
          -350 -32 callgsubr
          hintmask 00000000
          hintmask 11010000
          -308 592 -82 callgsubr
          hintmask 10110000
          -98 callgsubr
          hintmask 11010000
          -75 callgsubr
        </CharString>
        <CharString name="htakayahli">
          33 -5 77 callgsubr
          67 -38 callgsubr
          469 466 rmoveto
          -40 hlineto
          -23 -11 -9 -19 -19 12 -5 22 hvcurveto
          40 -308 hlineto
          -69 callsubr
          16 callsubr
          88 hlineto
          20 16 5 19 22 -16 6 -20 hvcurveto
          -95 hlineto
          -80 -20 -37 -91 hvcurveto
          -214 vlineto
          -26 callsubr
          538 vlineto
          22 -19 6 -8 -10 -8 -5 -8 -9 vhcurveto
          -63 -63 rlineto
          -8 -9 -4 -9 -8 vvcurveto
          -13 9 -10 14 8 11 4 10 11 vhcurveto
          24 25 rlineto
          endchar
        </CharString>
        <CharString name="hungarumlaut">
          -228 505 178 hstemhm
          29 155 -35 155 hintmask 00000000
          hintmask 11000000
          175 -63 callgsubr
          hintmask 10100000
          216 115 -104 callgsubr
          endchar
        </CharString>
        <CharString name="hyphen">
          -105 204 53 hstem
          73 310 vstem
          73 231 rmoveto
          -93 callgsubr
          endchar
        </CharString>
        <CharString name="i">
          33 callsubr
          87 82 hstemhm
          49 102 -77 -48 callsubr
          hintmask 10010000
          99 -12 rmoveto
          -90 callsubr
          hintmask 01100000
          1 654 rmoveto
          -20 -31 -16 -25 -24 31 -17 -49 callgsubr
          17 24 25 -32 16 -19 hvcurveto
          endchar
        </CharString>
        <CharString name="iacute">
          33 callsubr
          32 178 hstemhm
          74 52 -52 155 98 callsubr
          99 -12 rmoveto
          -90 callsubr
          hintmask 01010000
          121 647 -104 callgsubr
          endchar
        </CharString>
        <CharString name="iacyrillic">
          -9 -8 52 154 51 165 47 hstem
          82 52 291 52 vstem
          134 331 rmoveto
          79 37 4 96 vhcurveto
          158 -165 -158 hlineto
          -92 -41 2 80 hvcurveto
          48 -126 rmoveto
          -23 -21 -16 -27 -8 -30 -5 -18 53 callsubr
          48 50 71 20 hvcurveto
          56 15 27 29 77 hhcurveto
          121 -174 hlineto
          -17 7 -14 20 15 10 10 21 vhcurveto
          402 vlineto
          18 -4 17 -20 vhcurveto
          -154 hlineto
          -129 -88 -7 -128 -76 29 -32 71 -13 hvcurveto
          endchar
        </CharString>
        <CharString name="icircumflex">
          33 callsubr
          51 173 hstemhm
          -41 283 -168 -48 callsubr
          hintmask 10010000
          99 -12 rmoveto
          -90 callsubr
          hintmask 01100000
          -134 577 -107 callgsubr
          endchar
        </CharString>
        <CharString name="icyrillic">
          33 callsubr
          87 82 hstemhm
          49 102 -77 -48 callsubr
          hintmask 10010000
          99 -12 rmoveto
          -90 callsubr
          hintmask 01100000
          1 654 rmoveto
          -20 -31 -16 -25 -24 31 -17 -49 callgsubr
          17 24 25 -32 16 -19 hvcurveto
          endchar
        </CharString>
        <CharString name="idieresis">
          33 callsubr
          51 82 hstemhm
          -24 102 -4 52 -4 102 hintmask 00000000
          hintmask 10010000
          99 -12 rmoveto
          -90 callsubr
          hintmask 01101000
          -72 618 rmoveto
          -106 callsubr
          146 hmoveto
          6 callgsubr
        </CharString>
        <CharString name="iecyrillic">
          -50 callgsubr
          hstemhm
          62 52 360 52 -42 88 callgsubr
          536 285 rmoveto
          150 -56 callsubr
          -29 -102 callgsubr
          -11 callgsubr
          hintmask 11111000
          -100 callgsubr
          68 vlineto
          hintmask 11110100
          -18 callsubr
        </CharString>
        <CharString name="igrave">
          33 callsubr
          33 178 hstemhm
          -29 155 -52 -48 callsubr
          hintmask 10010000
          99 -12 rmoveto
          -90 callsubr
          hintmask 01100000
          -103 696 -99 callsubr
          endchar
        </CharString>
        <CharString name="iicyrillic">
          43 21 -21 461 -20 39 callsubr
          529 461 -39 callsubr
          endchar
        </CharString>
        <CharString name="iicyrillic_grave">
          43 0 14 427 20 66 callsubr
          75 52 75 155 120 52 vstem
          529 461 -39 callsubr
          -302 655 -99 callsubr
          endchar
        </CharString>
        <CharString name="iishortcyrillic">
          43 0 14 427 20 36 52 hstem
          75 52 31 52 195 52 20 52 vstem
          457 614 -73 callsubr
          72 -153 -39 callsubr
          endchar
        </CharString>
        <CharString name="ikayahli">
          23 -5 52 218 52 97 52 hstem
          63 -38 callgsubr
          417 466 rmoveto
          -254 hlineto
          41 callsubr
          hvcurveto
          -72 129 vlineto
          23 13 8 20 19 -17 5 -19 hvcurveto
          -77 37 hlineto
          42 -16 callgsubr
          -42 hvcurveto
          -7 vlineto
          -402 -201 rlineto
          -22 vlineto
          -92 20 -37 80 vhcurveto
          70 callgsubr
          213 vlineto
          -28 callsubr
          48 -175 rmoveto
          -185 vlineto
          -69 callsubr
          10 vlineto
          endchar
        </CharString>
        <CharString name="imacron">
          33 callsubr
          61 53 hstemhm
          -55 310 -181 -48 callsubr
          hintmask 01100000
          -55 561 rmoveto
          -93 callgsubr
          hintmask 10010000
          154 -573 rmoveto
          -90 callsubr
          endchar
        </CharString>
        <CharString name="infinity">
          330 155 52 224 52 hstem
          58 52 671 52 vstem
          655 206 rmoveto
          -45 -58 43 70 -70 hvcurveto
          67 69 59 44 45 hhcurveto
          68 58 -55 -57 -57 -58 -55 -68 hvcurveto
          -419 225 rmoveto
          45 59 -44 -68 69 hvcurveto
          -69 -70 -58 -43 -45 hhcurveto
          -68 -58 56 57 57 58 54 68 hvcurveto
          -6 52 rmoveto
          -77 -95 -64 -102 -94 95 -68 79 67 59 45 83 88 hvcurveto
          -83 88 59 -45 68 hhcurveto
          77 95 64 102 94 -95 68 -79 -67 -59 -45 -83 -88 hvcurveto
          83 -88 -59 45 -68 hhcurveto
          endchar
        </CharString>
        <CharString name="integral">
          -230 -205 52 854 52 hstem
          140 52 vstem
          47 -205 rmoveto
          99 46 21 133 hvcurveto
          624 vlineto
          120 6 8 87 19 17 5 20 22 -16 5 -20 -99 -46 -21 -133 vhcurveto
          -624 vlineto
          -120 -6 -8 -87 45 callgsubr
          vhcurveto
          endchar
        </CharString>
        <CharString name="iocyrillic">
          -50 callgsubr
          56 82 hstemhm
          62 52 62 102 44 102 50 52 -42 -13 callsubr
          hintmask 1110100010000000
          536 285 rmoveto
          150 -56 callsubr
          -29 -102 callgsubr
          -11 callgsubr
          hintmask 1110100100000000
          -100 callgsubr
          68 vlineto
          hintmask 1110100010000000
          -94 callsubr
          hintmask 0001011000000000
          -58 190 rmoveto
          -106 callsubr
          146 hmoveto
          6 callgsubr
        </CharString>
        <CharString name="iogonek">
          -360 -205 50 628 -20 107 82 hstemhm
          10 52 -12 102 -77 -48 callsubr
          hintmask 11101000
          101 642 rmoveto
          -20 -31 -16 -25 -24 31 -17 -49 callgsubr
          17 24 25 -32 16 -19 hvcurveto
          hintmask 11110100
          -39 -743 rmoveto
          16 26 56 32 25 vhcurveto
          8 6 -1 9 9 vvcurveto
          -69 callgsubr
          -418 vlineto
          -28 -33 -37 -57 -33 -72 callgsubr
          -34 -8 27 27 hvcurveto
          endchar
        </CharString>
        <CharString name="iota">
          -333 48 callgsubr
          72 52 vstem
          179 hmoveto
          -53 callsubr
          endchar
        </CharString>
        <CharString name="iotadieresis">
          -333 -5 callsubr
          56 82 hstemhm
          -26 102 -4 52 -4 102 99 callgsubr
          179 hmoveto
          -53 callsubr
          hintmask 00110100
          -147 606 rmoveto
          -106 callsubr
          146 hmoveto
          6 callgsubr
        </CharString>
        <CharString name="iotadieresistonos">
          -333 -5 callsubr
          43 82 -3 230 hstemhm
          -26 102 -4 52 -45 99 -58 102 hintmask 00000000
          hintmask 00101001
          25 593 rmoveto
          -106 callsubr
          146 -94 callgsubr
          hintmask 00010010
          -9 callsubr
          hintmask 11000100
          26 -820 rmoveto
          -53 callsubr
          endchar
        </CharString>
        <CharString name="iotatonos">
          -333 -5 callsubr
          51 230 hstemhm
          72 52 -42 99 hintmask 00000000
          hintmask 11010000
          179 hmoveto
          -53 callsubr
          hintmask 00101000
          -16 749 rmoveto
          -17 -7 -13 -12 -4 hvcurveto
          -44 -157 rlineto
          -1 -3 -1 -5 -4 vvcurveto
          -22 13 -14 15 12 9 14 21 4 vhcurveto
          45 157 rlineto
          1 4 0 5 2 vvcurveto
          22 -14 5 -11 vhcurveto
          endchar
        </CharString>
        <CharString name="itilde">
          33 callsubr
          62 -31 callsubr
          -41 282 -167 -48 callsubr
          hintmask 01010000
          154 591 -85 callgsubr
          hintmask 00110000
          -106 callgsubr
          hintmask 01010000
          -105 callgsubr
          hintmask 10001000
          -55 -603 rmoveto
          -90 callsubr
          endchar
        </CharString>
        <CharString name="iucyrillic">
          127 -17 callgsubr
          74 52 66 52 330 52 vstem
          126 24 rmoveto
          188 66 -36 vlineto
          -150 86 -26 133 131 84 26 150 vhcurveto
          109 vlineto
          150 -84 26 -131 -133 -86 -26 -150 vhcurveto
          -21 -66 172 vlineto
          28 -16 4 -10 -10 -16 -4 -28 vhcurveto
          -412 vlineto
          -26 15 -20 callgsubr
          285 28 rmoveto
          -115 -52 10 115 hvcurveto
          107 vlineto
          115 52 10 115 113 50 -10 -115 vhcurveto
          47 callgsubr
          -113 vhcurveto
          endchar
        </CharString>
        <CharString name="j">
          -359 -175 52 571 20 92 82 hstemhm
          48 102 -75 -48 callsubr
          hintmask 00110000
          99 642 rmoveto
          -20 -31 -16 -25 -24 31 -17 -49 callgsubr
          17 24 25 -32 16 -19 hvcurveto
          hintmask 11001000
          28 -642 rmoveto
          -58 callgsubr
          endchar
        </CharString>
        <CharString name="jcircumflex">
          -359 -175 52 571 20 56 173 hstemhm
          -43 283 -165 52 99 callgsubr
          127 hmoveto
          -58 callgsubr
          hintmask 00110000
          -164 565 -107 callgsubr
          endchar
        </CharString>
        <CharString name="jecyrillic">
          -359 -175 52 571 20 92 82 hstemhm
          48 102 -75 -48 callsubr
          hintmask 00110000
          99 642 rmoveto
          -20 -31 -16 -25 -24 31 -17 -49 callgsubr
          17 24 25 -32 16 -19 hvcurveto
          hintmask 11001000
          28 -642 rmoveto
          -58 callgsubr
          endchar
        </CharString>
        <CharString name="k">
          -107 14 -21 473 -20 197 -20 hstem
          75 52 vstem
          442 19 -41 callsubr
        </CharString>
        <CharString name="kacyrillic">
          1 -7 52 160 53 callgsubr
          hstem
          74 52 255 53 cntrmask 11100000
          190 205 -49 callsubr
        </CharString>
</ttFont>
